<svg width="33" height="33" viewBox="0 0 33 33" fill="none" xmlns="http://www.w3.org/2000/svg">
<circle cx="16.4999" cy="16.4999" r="16.4999" fill="#191919"/>
<path d="M16.7995 9.52697C16.6526 9.52697 16.5334 9.40822 16.5334 9.26131C16.5334 9.11429 16.6526 8.99506 16.7995 8.99506C20.6874 8.99506 23.8503 12.1585 23.8503 16.0463C23.8503 16.1933 23.7315 16.3125 23.5846 16.3125C23.4382 16.3125 23.3183 16.1933 23.3183 16.0463C23.3183 12.4519 20.3939 9.52697 16.7995 9.52697ZM23.5846 16.7698C23.9834 16.7698 24.3081 16.4457 24.3081 16.0463C24.3081 11.9062 20.9398 8.53784 16.7995 8.53784C16.4007 8.53784 16.0757 8.863 16.0757 9.26131C16.0757 9.66058 16.4007 9.98466 16.7995 9.98466C20.1421 9.98466 22.8611 12.7037 22.8611 16.0463C22.8611 16.4457 23.1858 16.7698 23.5846 16.7698Z" fill="#F6F6F6"/>
<path d="M21.1635 16.3919C21.0166 16.3919 20.8973 16.2726 20.8973 16.1257C20.8973 13.8222 19.0235 11.9484 16.72 11.9484C16.573 11.9484 16.4538 11.8291 16.4538 11.6821C16.4538 11.5357 16.573 11.4164 16.72 11.4164C19.3168 11.4164 21.4292 13.5288 21.4292 16.1257C21.4292 16.2726 21.31 16.3919 21.1635 16.3919V16.3919ZM16.72 10.9592C16.3211 10.9592 15.9961 11.2833 15.9961 11.6821C15.9961 12.081 16.3211 12.4061 16.72 12.4061C18.7711 12.4061 20.4401 14.0746 20.4401 16.1257C20.4401 16.5249 20.7647 16.8491 21.1635 16.8491C21.5624 16.8491 21.8869 16.5249 21.8869 16.1257C21.8869 13.2769 19.5691 10.9592 16.72 10.9592Z" fill="#F6F6F6"/>
<path d="M9.81737 12.3313C9.82865 12.3214 9.83958 12.3106 9.84943 12.2996L9.87081 12.2759C9.88067 12.2655 9.8891 12.2541 9.89753 12.2427C9.94159 12.1788 9.98957 12.1185 10.04 12.0626L10.5012 11.5519C10.8376 11.1799 11.3197 10.9666 11.8219 10.9666C12.2638 10.9666 12.6873 11.1299 13.0149 11.4263L13.7942 12.1309C14.147 12.4501 14.3539 12.8865 14.3777 13.3616C14.4019 13.8361 14.2391 14.2918 13.9198 14.6446L13.4587 15.1548C13.2406 15.3958 12.9624 15.5723 12.6532 15.6654L12.5126 15.7075C12.4157 15.7367 12.3365 15.8069 12.2969 15.8995C12.2563 15.993 12.2597 16.0989 12.3043 16.1889L12.3696 16.32C13.3959 18.38 15.1382 19.9788 17.2772 20.8234L17.3985 20.8709C17.4861 20.9056 17.5835 20.9027 17.6691 20.863C17.7543 20.8234 17.8196 20.7502 17.8493 20.6606L17.8909 20.5379C17.9685 20.3059 18.0923 20.0956 18.2575 19.9125L18.7197 19.4018C19.0561 19.0297 19.5376 18.816 20.0394 18.816C20.4807 18.816 20.9048 18.9793 21.2329 19.2762L22.0122 19.9803C22.7396 20.6384 22.796 21.7661 22.1385 22.494L21.6763 23.0051C21.5516 23.1427 21.4051 23.2605 21.2329 23.3605C20.7954 23.6291 20.222 23.7474 19.6183 23.6914C14.5295 23.2358 10.3027 19.4132 9.33937 14.3952C9.13796 13.3531 9.51501 12.5901 9.81737 12.3313V12.3313ZM19.5564 24.3752C19.6736 24.3862 19.79 24.3912 19.9058 24.3912C20.5282 24.3912 21.1161 24.2377 21.5842 23.9497C21.8103 23.8186 22.0127 23.6558 22.1849 23.4648L22.6471 22.9542C23.5586 21.9457 23.4804 20.3836 22.4724 19.4716L21.6931 18.7669C21.2383 18.3558 20.6515 18.1297 20.0394 18.1297C19.3436 18.1297 18.6772 18.4255 18.2106 18.9416L17.7484 19.4523C17.5722 19.6473 17.4307 19.865 17.3247 20.1015C15.5132 19.333 14.0253 17.9712 13.097 16.2335C13.4276 16.0944 13.7245 15.8831 13.9675 15.615L14.4286 15.1053C14.871 14.6163 15.0961 13.9846 15.0629 13.3269C15.0303 12.6693 14.7433 12.0635 14.2544 11.6218L13.4756 10.9176C13.0213 10.5069 12.434 10.2803 11.8219 10.2803C11.1261 10.2803 10.4591 10.5762 9.99254 11.0917L9.53081 11.6029C9.46644 11.6732 9.40564 11.7499 9.34923 11.8296C8.83406 12.2877 8.42684 13.2908 8.6659 14.5254C9.68674 19.8412 14.1653 23.8919 19.5564 24.3752V24.3752Z" fill="#F6F6F6"/>
</svg>
