<svg width="34" height="38" viewBox="0 0 34 38" fill="none" xmlns="http://www.w3.org/2000/svg">
<circle cx="17.3632" cy="20.8996" r="16.4999" fill="#191919"/>
<circle cx="17.3634" cy="20.899" r="14.6564" fill="#DADADA"/>
<mask id="mask0_53_359" style="mask-type:alpha" maskUnits="userSpaceOnUse" x="2" y="0" width="31" height="36">
<path fill-rule="evenodd" clip-rule="evenodd" d="M4.65679 11.9471C4.3372 9.08638 3.97494 5.84369 4.62955 3.98261C5.50595 1.49099 7.79369 0.36449 8.76961 0.285259C9.5448 0.222325 11.5335 0.244977 13.3836 0.384149C13.5316 0.328758 13.6709 0.295594 13.7982 0.285259C14.1155 0.259499 14.5233 0.36128 14.9792 0.542262C15.8599 0.655863 16.5841 0.805562 16.944 0.996113C17.2453 1.15562 17.6791 1.65467 18.1537 2.32084C18.2213 2.3641 18.2881 2.40685 18.3539 2.44894C18.8979 2.79716 19.3714 3.10027 19.7013 3.27489C19.8712 3.36484 20.151 3.49469 20.501 3.65705C22.1759 4.43423 25.4562 5.95634 25.9689 7.41239L26.2795 9.26649C29.7697 11.9455 32.0198 16.1599 32.0198 20.8998C32.0198 28.9943 25.4579 35.5562 17.3634 35.5562C9.26891 35.5562 2.70703 28.9943 2.70703 20.8998C2.70703 18.1318 3.47433 15.5431 4.80784 13.3347C4.76192 12.8881 4.70994 12.4229 4.65679 11.9471Z" fill="#FAFCFE"/>
</mask>
<g mask="url(#mask0_53_359)">
<path d="M27.5674 12.7828L16.592 6.44397C16.3051 6.27945 16.0536 6.27767 15.8746 6.39996V6.39472L14.8599 6.98849L15.1956 8.45257L15.9667 8.45299V29.3316C15.9667 29.9525 16.4008 30.7078 16.9391 31.0162L27.2963 36.9959L27.2605 38.2041L28.2552 37.6225C28.4316 37.5225 28.5416 37.3033 28.5408 36.9937L28.5416 14.4656C28.5408 13.8451 28.1049 13.0919 27.5674 12.7828V12.7828Z" fill="#191919"/>
<path d="M26.5733 38.135L15.5973 31.7967C15.0594 31.4871 14.6237 30.7331 14.6245 30.1116V7.58568C14.6254 6.96436 15.0602 6.71285 15.5973 7.0242L26.5749 13.3612C27.1112 13.6712 27.5457 14.4257 27.5465 15.0466L27.5457 37.5726C27.5465 38.1939 27.1112 38.4446 26.5733 38.135Z" fill="#565656"/>
<path d="M14.9097 9.10034L15.0284 9.16804L15.0306 28.014L27.2583 35.0824L27.2575 35.2203L14.9113 28.083L14.9097 9.10034V9.10034Z" fill="#131315"/>
<path d="M15.0283 9.16821L27.2574 16.2283L27.2582 35.0826L15.0305 28.0142L15.0283 9.16821V9.16821Z" fill="#BADAFF"/>
<path d="M23.2692 26.5173V11.7032C23.2692 10.468 24.139 8.96106 25.2083 8.34371C25.5472 8.14848 25.8804 8.05815 26.1729 8.08299L14.7996 1.52066C14.5072 1.49666 14.174 1.58616 13.8351 1.78139C12.7658 2.39968 11.896 3.90567 11.896 5.14047V19.9606C11.896 26.4871 14.2785 24.9222 15.2806 28.166L26.6534 34.723C25.6513 31.4788 23.2692 33.0442 23.2692 26.5173Z" fill="#D2DEEC"/>
<path d="M22.5554 25.8576V11.0435C22.5554 9.80833 23.4251 8.30139 24.4945 7.68405C24.8334 7.48881 25.1665 7.39848 25.459 7.42332L14.0858 0.860993C13.7933 0.836995 13.4601 0.926489 13.1212 1.12172C12.0519 1.74001 11.1821 3.24601 11.1821 4.4808V19.3009C11.1821 25.8274 14.2897 24.924 15.2918 28.1678L26.6647 34.7249C25.6625 31.4806 22.5554 32.3845 22.5554 25.8576Z" fill="#EBF4FF"/>
<path d="M13.4135 25.5252L24.8095 32.1045C23.8047 31.1418 22.7864 30.0514 22.5895 26.9823L11.2163 20.4155C11.4106 23.4682 12.4154 24.5663 13.4135 25.5252V25.5252Z" fill="#D2DEEC"/>
<path d="M21.4205 23.6142L18.3465 21.8397C17.9609 21.6166 17.647 21.7974 17.647 22.2436C17.647 22.6908 17.9609 23.2322 18.3474 23.4558L21.4205 25.2307C21.8069 25.4539 22.1204 25.2731 22.1204 24.8264C22.1204 24.3806 21.8069 23.8374 21.4205 23.6142V23.6142Z" fill="#191919"/>
<path d="M19.291 9.44531V10.4775L22.5554 12.252V11.326L19.291 9.44531V9.44531Z" fill="#BADAFF"/>
<path d="M11.8593 6.18741V5.15476L11.1821 4.7644V5.79621L11.8593 6.18741Z" fill="#BADAFF"/>
<path d="M22.1552 22.9806L11.4888 16.8261V6.83008L22.1552 12.9832V22.9806V22.9806Z" fill="#E7E7E8"/>
<path d="M22.017 13.8592L11.6079 7.8541V7.03052L22.0165 13.0357L22.017 13.8592V13.8592Z" fill="white"/>
<path d="M22.017 15.5051L11.6079 9.49957V8.67651L22.0165 14.6807L22.017 15.5051Z" fill="white"/>
<path d="M22.017 17.1506L11.6079 11.1454V10.3215L22.0165 16.3262L22.017 17.1506V17.1506Z" fill="white"/>
<path d="M22.017 18.7961L11.6079 12.791V11.9675L22.0165 17.9727L22.017 18.7961Z" fill="white"/>
<path d="M22.017 20.4422L11.6079 14.4369V13.613L22.0165 19.6178L22.017 20.4422Z" fill="white"/>
<path d="M22.017 22.0705L11.6079 16.0658V15.2419L22.0165 21.2467L22.017 22.0705V22.0705Z" fill="white"/>
<path d="M12.2736 7.93915L14.6896 9.33386C14.7432 9.36477 14.7869 9.33994 14.7869 9.2779C14.7869 9.21544 14.7432 9.13946 14.6896 9.10897L12.2736 7.71426C12.2199 7.68282 12.1763 7.70776 12.1763 7.77064C12.1763 7.83268 12.2199 7.90813 12.2736 7.93915V7.93915Z" fill="#A8A9AC"/>
<path d="M20.1648 12.4908L21.3206 13.1575C21.3742 13.1885 21.4175 13.1627 21.4175 13.1007C21.4175 13.0392 21.3742 12.9632 21.3206 12.9326L20.1648 12.265C20.111 12.2345 20.0679 12.2593 20.0679 12.3209C20.0679 12.3834 20.111 12.4588 20.1648 12.4908Z" fill="#A8A9AC"/>
<path d="M12.2736 8.7624L15.968 10.8955C16.0217 10.9264 16.0654 10.9007 16.0654 10.8387C16.0654 10.7766 16.0217 10.7011 15.968 10.6697L12.2736 8.53667C12.2199 8.50565 12.1763 8.53101 12.1763 8.59347C12.1763 8.65551 12.2199 8.73148 12.2736 8.7624V8.7624Z" fill="#A8A9AC"/>
<path d="M21.3206 13.7554L20.1648 13.0883C20.111 13.0568 20.0679 13.0821 20.0679 13.1437C20.0679 13.2066 20.111 13.2825 20.1648 13.3136L21.3206 13.9807C21.3742 14.0109 21.4175 13.9855 21.4175 13.9235C21.4175 13.8624 21.3742 13.7864 21.3206 13.7554V13.7554Z" fill="#A8A9AC"/>
<path d="M17.0308 12.1067L12.2736 9.35977C12.2199 9.32927 12.1763 9.35369 12.1763 9.41615C12.1763 9.47819 12.2199 9.55416 12.2736 9.5856L17.0308 12.3325C17.0854 12.3626 17.1286 12.3381 17.1286 12.2753C17.1286 12.2133 17.0854 12.1378 17.0308 12.1067V12.1067Z" fill="#A8A9AC"/>
<path d="M21.3206 14.5776L20.1648 13.9109C20.111 13.8803 20.0679 13.9047 20.0679 13.9671C20.0679 14.0292 20.111 14.1047 20.1648 14.1366L21.3206 14.8037C21.3742 14.8339 21.4175 14.8089 21.4175 14.747C21.4175 14.685 21.3742 14.6098 21.3206 14.5776V14.5776Z" fill="#A8A9AC"/>
<path d="M12.2736 10.4082L15.2925 12.1509C15.3462 12.1819 15.3899 12.1574 15.3899 12.0945C15.3899 12.032 15.3462 11.957 15.2925 11.926L12.2736 10.1829C12.2199 10.1523 12.1763 10.1763 12.1763 10.2388C12.1763 10.3008 12.2199 10.3772 12.2736 10.4082V10.4082Z" fill="#A8A9AC"/>
<path d="M21.3206 15.4007L20.1648 14.734C20.111 14.7025 20.0679 14.7278 20.0679 14.7903C20.0679 14.8519 20.111 14.9274 20.1648 14.9593L21.3206 15.6264C21.3742 15.657 21.4175 15.6317 21.4175 15.5697C21.4175 15.5077 21.3742 15.4321 21.3206 15.4007V15.4007Z" fill="#A8A9AC"/>
<path d="M12.2736 11.2303L14.6896 12.6263C14.7432 12.6564 14.7869 12.6319 14.7869 12.5696C14.7869 12.5067 14.7432 12.4324 14.6896 12.4001L12.2736 11.0055C12.2199 10.9745 12.1763 10.9993 12.1763 11.0622C12.1763 11.1242 12.2199 11.1994 12.2736 11.2303V11.2303Z" fill="#A8A9AC"/>
<path d="M21.3206 16.2238L20.1648 15.5571C20.111 15.5256 20.0679 15.5505 20.0679 15.6125C20.0679 15.675 20.111 15.7505 20.1648 15.782L21.3206 16.4491C21.3742 16.4797 21.4175 16.4549 21.4175 16.3928C21.4175 16.3304 21.3742 16.2548 21.3206 16.2238Z" fill="#A8A9AC"/>
<path d="M12.2736 12.0537L16.1794 14.3085C16.2331 14.3391 16.2768 14.3147 16.2768 14.2526C16.2768 14.1902 16.2331 14.1146 16.1794 14.0832L12.2736 11.828C12.2199 11.7978 12.1763 11.8227 12.1763 11.8843C12.1763 11.9467 12.2199 12.0223 12.2736 12.0537V12.0537Z" fill="#A8A9AC"/>
<path d="M21.3206 17.0462L20.1648 16.3791C20.111 16.3485 20.0679 16.3743 20.0679 16.4354C20.0679 16.4979 20.111 16.5734 20.1648 16.6049L21.3206 17.2721C21.3742 17.3026 21.4175 17.2773 21.4175 17.2153C21.4175 17.1532 21.3742 17.0777 21.3206 17.0462Z" fill="#A8A9AC"/>
<path d="M12.2736 12.8764L15.3069 14.6281C15.3607 14.6587 15.4044 14.6334 15.4044 14.5719C15.4044 14.5086 15.3607 14.4339 15.3069 14.4024L12.2736 12.6515C12.2199 12.6205 12.1763 12.6454 12.1763 12.7074C12.1763 12.7694 12.2199 12.8462 12.2736 12.8764V12.8764Z" fill="#A8A9AC"/>
<path d="M21.3206 17.869L20.1648 17.2023C20.111 17.1717 20.0679 17.1966 20.0679 17.2585C20.0679 17.3206 20.111 17.3957 20.1648 17.4276L21.3206 18.0948C21.3742 18.1257 21.4175 18.1005 21.4175 18.038C21.4175 17.9764 21.3742 17.9009 21.3206 17.869Z" fill="#A8A9AC"/>
<path d="M16.1946 15.7378L12.2736 13.4743C12.2199 13.4432 12.1763 13.4682 12.1763 13.5301C12.1763 13.5922 12.2199 13.6681 12.2736 13.6992L16.1946 15.9636C16.2488 15.9937 16.2929 15.9692 16.2929 15.9068C16.2929 15.8444 16.2488 15.7697 16.1946 15.7378Z" fill="#A8A9AC"/>
<path d="M21.3206 18.6924L20.1648 18.026C20.111 17.9945 20.0679 18.0199 20.0679 18.0814C20.0679 18.143 20.111 18.2194 20.1648 18.2504L21.3206 18.9181C21.3742 18.9486 21.4175 18.9229 21.4175 18.8609C21.4175 18.7988 21.3742 18.7233 21.3206 18.6924Z" fill="#A8A9AC"/>
<path d="M12.2736 14.5217L14.1507 15.6054C14.2045 15.6364 14.2476 15.6111 14.2476 15.5491C14.2476 15.487 14.2045 15.4115 14.1507 15.3806L12.2736 14.2972C12.2199 14.2658 12.1763 14.2911 12.1763 14.3531C12.1763 14.4147 12.2199 14.4915 12.2736 14.5217V14.5217Z" fill="#A8A9AC"/>
<path d="M21.3206 19.5149L20.1648 18.8485C20.111 18.817 20.0679 18.8424 20.0679 18.9044C20.0679 18.9664 20.111 19.0423 20.1648 19.0734L21.3206 19.741C21.3742 19.7711 21.4175 19.7458 21.4175 19.6846C21.4175 19.6218 21.3742 19.5467 21.3206 19.5149V19.5149Z" fill="#A8A9AC"/>
<path d="M14.6896 16.5145L12.2736 15.1203C12.2199 15.0889 12.1763 15.1138 12.1763 15.1753C12.1763 15.2382 12.2199 15.3142 12.2736 15.3448L14.6896 16.7394C14.7432 16.7708 14.7869 16.745 14.7869 16.6835C14.7869 16.6211 14.7432 16.5455 14.6896 16.5145Z" fill="#A8A9AC"/>
<path d="M21.3206 20.3376L20.1648 19.6704C20.111 19.6394 20.0679 19.6652 20.0679 19.7268C20.0679 19.7887 20.111 19.8647 20.1648 19.8961L21.3206 20.5629C21.3742 20.5944 21.4175 20.5686 21.4175 20.5065C21.4175 20.4446 21.3742 20.3691 21.3206 20.3376V20.3376Z" fill="#A8A9AC"/>
<path d="M14.6896 17.3289L12.2736 15.9347C12.2199 15.9033 12.1763 15.9282 12.1763 15.9902C12.1763 16.0526 12.2199 16.1286 12.2736 16.1592L14.6896 17.5542C14.7432 17.5853 14.7869 17.5595 14.7869 17.498C14.7869 17.4355 14.7432 17.3599 14.6896 17.3289Z" fill="#A8A9AC"/>
<path d="M21.3206 21.1522L20.1648 20.4854C20.111 20.4539 20.0679 20.4797 20.0679 20.5417C20.0679 20.6032 20.111 20.6792 20.1648 20.7107L21.3206 21.3779C21.3742 21.4089 21.4175 21.3831 21.4175 21.3215C21.4175 21.259 21.3742 21.1836 21.3206 21.1522V21.1522Z" fill="#A8A9AC"/>
<path d="M14.6896 18.1684L12.2736 16.7741C12.2199 16.7427 12.1763 16.7676 12.1763 16.8296C12.1763 16.892 12.2199 16.968 12.2736 16.9986L14.6896 18.3937C14.7432 18.4246 14.7869 18.3989 14.7869 18.3373C14.7869 18.2749 14.7432 18.1993 14.6896 18.1684V18.1684Z" fill="#A8A9AC"/>
<path d="M21.3206 21.9912L20.1648 21.324C20.111 21.2929 20.0679 21.3187 20.0679 21.3803C20.0679 21.4423 20.111 21.5182 20.1648 21.5497L21.3206 22.2165C21.3742 22.2479 21.4175 22.2221 21.4175 22.1606C21.4175 22.0982 21.3742 22.0226 21.3206 21.9912V21.9912Z" fill="#A8A9AC"/>
<path d="M12.1113 6.33258C12.1113 6.33258 12.5753 5.13615 12.5642 5.75904C12.5532 6.38194 12.5006 6.61794 12.5501 6.51472" stroke="#A8A9AC" stroke-width="0.3" stroke-miterlimit="1.5" stroke-linecap="round" stroke-linejoin="round"/>
<path d="M15.748 8.42414C15.748 8.42414 16.2121 7.2277 16.201 7.8506C16.19 8.47349 16.1374 8.70949 16.1868 8.60627" stroke="#A8A9AC" stroke-width="0.3" stroke-miterlimit="1.5" stroke-linecap="round" stroke-linejoin="round"/>
<path d="M12.5498 6.51491C12.5498 6.51491 12.9789 5.36867 12.9679 5.99157C12.9569 6.61446 12.9043 6.85046 12.9538 6.74724" stroke="#A8A9AC" stroke-width="0.3" stroke-miterlimit="1.5" stroke-linecap="round" stroke-linejoin="round"/>
<path d="M16.1865 8.60622C16.1865 8.60622 16.6158 7.45998 16.6047 8.08287C16.5937 8.70577 16.541 8.94177 16.5905 8.83855" stroke="#A8A9AC" stroke-width="0.3" stroke-miterlimit="1.5" stroke-linecap="round" stroke-linejoin="round"/>
<path d="M14.166 7.44411C14.166 7.44411 14.5953 6.29787 14.5843 6.92077C14.5731 7.54366 14.5205 7.77966 14.57 7.67644" stroke="#A8A9AC" stroke-width="0.3" stroke-miterlimit="1.5" stroke-linecap="round" stroke-linejoin="round"/>
<path d="M17.8027 9.53542C17.8027 9.53542 18.2319 8.38918 18.2209 9.01207C18.2098 9.63497 18.1573 9.87097 18.2067 9.76775" stroke="#A8A9AC" stroke-width="0.3" stroke-miterlimit="1.5" stroke-linecap="round" stroke-linejoin="round"/>
<path d="M13.3579 6.97951C13.3579 6.97951 13.787 5.83327 13.776 6.45617C13.7649 7.07906 13.7124 7.31506 13.7619 7.21184" stroke="#A8A9AC" stroke-width="0.3" stroke-miterlimit="1.5" stroke-linecap="round" stroke-linejoin="round"/>
<path d="M16.9946 9.07082C16.9946 9.07082 17.4239 7.92458 17.4128 8.54747C17.4018 9.17037 17.3491 9.40637 17.3986 9.30315" stroke="#A8A9AC" stroke-width="0.3" stroke-miterlimit="1.5" stroke-linecap="round" stroke-linejoin="round"/>
<path d="M14.9741 7.90871C14.9741 7.90871 15.4034 6.76247 15.3922 7.38537C15.3812 8.00826 15.3286 8.24426 15.3781 8.14104" stroke="#A8A9AC" stroke-width="0.3" stroke-miterlimit="1.5" stroke-linecap="round" stroke-linejoin="round"/>
<path d="M18.6104 10.0003C18.6104 10.0003 19.0395 8.85402 19.0285 9.47692C19.0174 10.0998 18.9649 10.3358 19.0143 10.2326" stroke="#A8A9AC" stroke-width="0.3" stroke-miterlimit="1.5" stroke-linecap="round" stroke-linejoin="round"/>
<path d="M12.9541 6.74709C12.9541 6.74709 13.3832 5.60085 13.3722 6.22374C13.3612 6.84664 13.3086 7.08264 13.3581 6.97942" stroke="#A8A9AC" stroke-width="0.3" stroke-miterlimit="1.5" stroke-linecap="round" stroke-linejoin="round"/>
<path d="M16.5903 8.8384C16.5903 8.8384 17.0196 7.69216 17.0085 8.31505C16.9975 8.93795 16.9448 9.17395 16.9943 9.07072" stroke="#A8A9AC" stroke-width="0.3" stroke-miterlimit="1.5" stroke-linecap="round" stroke-linejoin="round"/>
<path d="M14.5698 7.67629C14.5698 7.67629 14.9991 6.53005 14.988 7.15294C14.9769 7.77584 14.9243 8.01184 14.9738 7.90862" stroke="#A8A9AC" stroke-width="0.3" stroke-miterlimit="1.5" stroke-linecap="round" stroke-linejoin="round"/>
<path d="M18.2065 9.76784C18.2065 9.76784 18.6357 8.6216 18.6247 9.2445C18.6136 9.86739 18.5611 10.1034 18.6105 10.0002" stroke="#A8A9AC" stroke-width="0.3" stroke-miterlimit="1.5" stroke-linecap="round" stroke-linejoin="round"/>
<path d="M13.7622 7.21169C13.7622 7.21169 14.1913 6.06545 14.1803 6.68834C14.1692 7.31124 14.1167 7.54724 14.1662 7.44402" stroke="#A8A9AC" stroke-width="0.3" stroke-miterlimit="1.5" stroke-linecap="round" stroke-linejoin="round"/>
<path d="M17.3984 9.303C17.3984 9.303 17.8277 8.15675 17.8166 8.77965C17.8056 9.40255 17.753 9.63855 17.8024 9.53532" stroke="#A8A9AC" stroke-width="0.3" stroke-miterlimit="1.5" stroke-linecap="round" stroke-linejoin="round"/>
<path d="M15.3779 8.14089C15.3779 8.14089 15.8072 6.99465 15.7961 7.61754C15.7851 8.24044 15.7324 8.47644 15.7819 8.37321" stroke="#A8A9AC" stroke-width="0.3" stroke-miterlimit="1.5" stroke-linecap="round" stroke-linejoin="round"/>
<path d="M20.1696 25.5375V10.7235C20.1696 9.48826 21.0394 7.98132 22.1087 7.36398C22.4476 7.16875 22.7808 7.07841 23.0733 7.10325L11.7 0.540924C11.4075 0.516926 11.0744 0.606421 10.7355 0.801653C9.66618 1.41994 8.79639 2.92594 8.79639 4.16073V18.9808C8.79639 25.5073 11.1789 23.9424 12.181 27.1862L23.5538 33.7433C22.5517 30.4991 20.1696 32.0644 20.1696 25.5375Z" fill="#D2DEEC"/>
<path d="M19.2976 25.2817V10.4676C19.2976 9.23241 20.1674 7.72546 21.2367 7.10812C21.5756 6.91289 21.9088 6.82255 22.2012 6.84739L10.828 0.285065C10.5355 0.261067 10.2024 0.350561 9.86349 0.545793C8.79417 1.16408 7.92438 2.67008 7.92438 3.90487V18.725C7.92438 25.2515 11.0319 24.348 12.0341 27.5918L23.4069 34.1489C22.4048 30.9047 19.2976 31.8086 19.2976 25.2817Z" fill="#EBF4FF"/>
<path d="M10.1557 24.9495L21.5517 31.5288C20.5469 30.5661 19.5286 29.4757 19.3317 26.4066L7.9585 19.8398C8.15278 22.8925 9.15755 23.9906 10.1557 24.9495V24.9495Z" fill="#D2DEEC"/>
<path d="M18.1627 23.0385L15.0887 21.264C14.7031 21.0409 14.3892 21.2217 14.3892 21.6679C14.3892 22.1151 14.7031 22.6565 15.0896 22.8801L18.1627 24.655C18.5491 24.8782 18.8626 24.6974 18.8626 24.2507C18.8626 23.8049 18.5491 23.2617 18.1627 23.0385V23.0385Z" fill="#191919"/>
<path d="M16.0332 8.86963V9.90185L19.2975 11.6763V10.7503L16.0332 8.86963V8.86963Z" fill="#BADAFF"/>
<path d="M8.6015 5.61148V4.57884L7.92432 4.18848V5.22028L8.6015 5.61148Z" fill="#BADAFF"/>
<path d="M18.8973 22.4046L8.23096 16.2502V6.25415L18.8973 12.4073V22.4046V22.4046Z" fill="#E7E7E8"/>
<path d="M18.7592 13.2833L8.3501 7.27817V6.45459L18.7587 12.4597L18.7592 13.2833V13.2833Z" fill="white"/>
<path d="M18.7592 14.9294L8.3501 8.92389V8.10083L18.7587 14.105L18.7592 14.9294Z" fill="white"/>
<path d="M18.7592 16.5749L8.3501 10.5697V9.74585L18.7587 15.7506L18.7592 16.5749V16.5749Z" fill="white"/>
<path d="M18.7592 18.2205L8.3501 12.2153V11.3918L18.7587 17.397L18.7592 18.2205Z" fill="white"/>
<path d="M18.7592 19.8665L8.3501 13.8612V13.0374L18.7587 19.0421L18.7592 19.8665Z" fill="white"/>
<path d="M18.7592 21.4949L8.3501 15.4902V14.6663L18.7587 20.671L18.7592 21.4949V21.4949Z" fill="white"/>
<path d="M9.01581 7.36347L11.4317 8.75817C11.4854 8.78909 11.5291 8.76425 11.5291 8.70221C11.5291 8.63976 11.4854 8.56378 11.4317 8.53329L9.01581 7.13858C8.96205 7.10714 8.91846 7.13208 8.91846 7.19496C8.91846 7.257 8.96205 7.33245 9.01581 7.36347V7.36347Z" fill="#A8A9AC"/>
<path d="M16.907 11.9151L18.0628 12.5818C18.1164 12.6128 18.1597 12.5871 18.1597 12.525C18.1597 12.4635 18.1164 12.3875 18.0628 12.3569L16.907 11.6893C16.8532 11.6588 16.8101 11.6836 16.8101 11.7453C16.8101 11.8077 16.8532 11.8832 16.907 11.9151Z" fill="#A8A9AC"/>
<path d="M9.01581 8.18671L12.7102 10.3198C12.7639 10.3507 12.8076 10.325 12.8076 10.263C12.8076 10.201 12.7639 10.1254 12.7102 10.094L9.01581 7.96099C8.96205 7.92997 8.91846 7.95533 8.91846 8.01778C8.91846 8.07982 8.96205 8.1558 9.01581 8.18671V8.18671Z" fill="#A8A9AC"/>
<path d="M18.0628 13.1797L16.907 12.5126C16.8532 12.4811 16.8101 12.5064 16.8101 12.568C16.8101 12.6309 16.8532 12.7069 16.907 12.7379L18.0628 13.405C18.1164 13.4352 18.1597 13.4098 18.1597 13.3478C18.1597 13.2867 18.1164 13.2107 18.0628 13.1797V13.1797Z" fill="#A8A9AC"/>
<path d="M13.7729 11.5311L9.01581 8.78408C8.96205 8.75359 8.91846 8.77801 8.91846 8.84046C8.91846 8.9025 8.96205 8.97848 9.01581 9.00992L13.7729 11.7568C13.8275 11.787 13.8708 11.7624 13.8708 11.6996C13.8708 11.6376 13.8275 11.5621 13.7729 11.5311V11.5311Z" fill="#A8A9AC"/>
<path d="M18.0628 14.0019L16.907 13.3352C16.8532 13.3046 16.8101 13.329 16.8101 13.3915C16.8101 13.4535 16.8532 13.529 16.907 13.5609L18.0628 14.228C18.1164 14.2582 18.1597 14.2333 18.1597 14.1713C18.1597 14.1093 18.1164 14.0342 18.0628 14.0019V14.0019Z" fill="#A8A9AC"/>
<path d="M9.01581 9.83254L12.0347 11.5752C12.0884 11.6062 12.1321 11.5817 12.1321 11.5188C12.1321 11.4563 12.0884 11.3813 12.0347 11.3503L9.01581 9.60724C8.96205 9.57664 8.91846 9.60063 8.91846 9.66309C8.91846 9.72513 8.96205 9.80152 9.01581 9.83254V9.83254Z" fill="#A8A9AC"/>
<path d="M18.0628 14.825L16.907 14.1583C16.8532 14.1269 16.8101 14.1521 16.8101 14.2146C16.8101 14.2762 16.8532 14.3517 16.907 14.3836L18.0628 15.0507C18.1164 15.0813 18.1597 15.056 18.1597 14.994C18.1597 14.932 18.1164 14.8564 18.0628 14.825V14.825Z" fill="#A8A9AC"/>
<path d="M9.01581 10.6546L11.4317 12.0506C11.4854 12.0808 11.5291 12.0562 11.5291 11.9939C11.5291 11.931 11.4854 11.8567 11.4317 11.8244L9.01581 10.4298C8.96205 10.3988 8.91846 10.4237 8.91846 10.4865C8.91846 10.5486 8.96205 10.6237 9.01581 10.6546V10.6546Z" fill="#A8A9AC"/>
<path d="M18.0628 15.6479L16.907 14.9812C16.8532 14.9497 16.8101 14.9745 16.8101 15.0366C16.8101 15.099 16.8532 15.1746 16.907 15.206L18.0628 15.8732C18.1164 15.9038 18.1597 15.8789 18.1597 15.8169C18.1597 15.7544 18.1164 15.6789 18.0628 15.6479Z" fill="#A8A9AC"/>
<path d="M9.01581 11.478L12.9216 13.7328C12.9753 13.7634 13.019 13.739 13.019 13.6769C13.019 13.6145 12.9753 13.5389 12.9216 13.5075L9.01581 11.2523C8.96205 11.2221 8.91846 11.2471 8.91846 11.3086C8.91846 11.371 8.96205 11.4466 9.01581 11.478V11.478Z" fill="#A8A9AC"/>
<path d="M18.0628 16.4706L16.907 15.8034C16.8532 15.7728 16.8101 15.7986 16.8101 15.8597C16.8101 15.9222 16.8532 15.9977 16.907 16.0292L18.0628 16.6964C18.1164 16.7269 18.1597 16.7016 18.1597 16.6396C18.1597 16.5776 18.1164 16.502 18.0628 16.4706Z" fill="#A8A9AC"/>
<path d="M9.01581 12.3007L12.0491 14.0525C12.1028 14.0831 12.1465 14.0577 12.1465 13.9962C12.1465 13.9329 12.1028 13.8582 12.0491 13.8267L9.01581 12.0758C8.96205 12.0448 8.91846 12.0698 8.91846 12.1317C8.91846 12.1937 8.96205 12.2705 9.01581 12.3007V12.3007Z" fill="#A8A9AC"/>
<path d="M18.0628 17.2933L16.907 16.6266C16.8532 16.596 16.8101 16.6209 16.8101 16.6829C16.8101 16.7449 16.8532 16.82 16.907 16.8519L18.0628 17.5191C18.1164 17.55 18.1597 17.5248 18.1597 17.4623C18.1597 17.4007 18.1164 17.3253 18.0628 17.2933Z" fill="#A8A9AC"/>
<path d="M12.9368 15.1621L9.01581 12.8986C8.96205 12.8676 8.91846 12.8925 8.91846 12.9544C8.91846 13.0165 8.96205 13.0925 9.01581 13.1235L12.9368 15.3879C12.991 15.4181 13.0351 15.3935 13.0351 15.3311C13.0351 15.2687 12.991 15.194 12.9368 15.1621Z" fill="#A8A9AC"/>
<path d="M18.0628 18.1167L16.907 17.4503C16.8532 17.4189 16.8101 17.4442 16.8101 17.5057C16.8101 17.5673 16.8532 17.6437 16.907 17.6748L18.0628 18.3424C18.1164 18.3729 18.1597 18.3472 18.1597 18.2852C18.1597 18.2231 18.1164 18.1476 18.0628 18.1167Z" fill="#A8A9AC"/>
<path d="M9.01581 13.946L10.8929 15.0297C10.9466 15.0607 10.9898 15.0354 10.9898 14.9734C10.9898 14.9114 10.9466 14.8358 10.8929 14.8049L9.01581 13.7215C8.96205 13.6901 8.91846 13.7154 8.91846 13.7774C8.91846 13.839 8.96205 13.9158 9.01581 13.946V13.946Z" fill="#A8A9AC"/>
<path d="M18.0628 18.9392L16.907 18.2728C16.8532 18.2414 16.8101 18.2667 16.8101 18.3287C16.8101 18.3907 16.8532 18.4667 16.907 18.4977L18.0628 19.1653C18.1164 19.1954 18.1597 19.1701 18.1597 19.1089C18.1597 19.0461 18.1164 18.971 18.0628 18.9392V18.9392Z" fill="#A8A9AC"/>
<path d="M11.4317 15.9388L9.01581 14.5446C8.96205 14.5132 8.91846 14.5381 8.91846 14.5996C8.91846 14.6625 8.96205 14.7385 9.01581 14.7691L11.4317 16.1637C11.4854 16.1951 11.5291 16.1693 11.5291 16.1078C11.5291 16.0454 11.4854 15.9698 11.4317 15.9388Z" fill="#A8A9AC"/>
<path d="M18.0628 19.7619L16.907 19.0947C16.8532 19.0637 16.8101 19.0895 16.8101 19.1511C16.8101 19.213 16.8532 19.289 16.907 19.3204L18.0628 19.9872C18.1164 20.0187 18.1597 19.9929 18.1597 19.9309C18.1597 19.8689 18.1164 19.7934 18.0628 19.7619V19.7619Z" fill="#A8A9AC"/>
<path d="M11.4317 16.7532L9.01581 15.3591C8.96205 15.3276 8.91846 15.3526 8.91846 15.4145C8.91846 15.477 8.96205 15.5529 9.01581 15.5835L11.4317 16.9786C11.4854 17.0096 11.5291 16.9838 11.5291 16.9223C11.5291 16.8598 11.4854 16.7843 11.4317 16.7532Z" fill="#A8A9AC"/>
<path d="M18.0628 20.5765L16.907 19.9097C16.8532 19.8782 16.8101 19.904 16.8101 19.966C16.8101 20.0276 16.8532 20.1035 16.907 20.135L18.0628 20.8022C18.1164 20.8332 18.1597 20.8074 18.1597 20.7458C18.1597 20.6834 18.1164 20.6079 18.0628 20.5765V20.5765Z" fill="#A8A9AC"/>
<path d="M11.4317 17.5927L9.01581 16.1984C8.96205 16.167 8.91846 16.1919 8.91846 16.254C8.91846 16.3163 8.96205 16.3923 9.01581 16.4229L11.4317 17.818C11.4854 17.8489 11.5291 17.8232 11.5291 17.7616C11.5291 17.6992 11.4854 17.6236 11.4317 17.5927V17.5927Z" fill="#A8A9AC"/>
<path d="M18.0628 21.4155L16.907 20.7483C16.8532 20.7173 16.8101 20.743 16.8101 20.8047C16.8101 20.8666 16.8532 20.9426 16.907 20.974L18.0628 21.6408C18.1164 21.6722 18.1597 21.6465 18.1597 21.585C18.1597 21.5225 18.1164 21.4469 18.0628 21.4155V21.4155Z" fill="#A8A9AC"/>
<path d="M8.85352 5.75666C8.85352 5.75666 9.31744 4.56022 9.30644 5.18312C9.29543 5.80602 9.24283 6.04201 9.29229 5.93879" stroke="#A8A9AC" stroke-width="0.3" stroke-miterlimit="1.5" stroke-linecap="round" stroke-linejoin="round"/>
<path d="M12.4902 7.84821C12.4902 7.84821 12.9543 6.65177 12.9432 7.27467C12.9322 7.89757 12.8795 8.13356 12.929 8.03034" stroke="#A8A9AC" stroke-width="0.3" stroke-miterlimit="1.5" stroke-linecap="round" stroke-linejoin="round"/>
<path d="M9.29199 5.93898C9.29199 5.93898 9.72112 4.79274 9.71012 5.41564C9.69912 6.03854 9.64651 6.27453 9.69597 6.17131" stroke="#A8A9AC" stroke-width="0.3" stroke-miterlimit="1.5" stroke-linecap="round" stroke-linejoin="round"/>
<path d="M12.9287 8.03029C12.9287 8.03029 13.3579 6.88405 13.3468 7.50695C13.3358 8.12984 13.2832 8.36584 13.3327 8.26262" stroke="#A8A9AC" stroke-width="0.3" stroke-miterlimit="1.5" stroke-linecap="round" stroke-linejoin="round"/>
<path d="M10.9082 6.86818C10.9082 6.86818 11.3374 5.72194 11.3264 6.34484C11.3153 6.96774 11.2627 7.20373 11.3122 7.10051" stroke="#A8A9AC" stroke-width="0.3" stroke-miterlimit="1.5" stroke-linecap="round" stroke-linejoin="round"/>
<path d="M14.5449 8.95949C14.5449 8.95949 14.9741 7.81325 14.9631 8.43615C14.9519 9.05904 14.8994 9.29504 14.9489 9.19182" stroke="#A8A9AC" stroke-width="0.3" stroke-miterlimit="1.5" stroke-linecap="round" stroke-linejoin="round"/>
<path d="M10.1001 6.40358C10.1001 6.40358 10.5292 5.25734 10.5182 5.88024C10.5071 6.50313 10.4546 6.73913 10.5041 6.63591" stroke="#A8A9AC" stroke-width="0.3" stroke-miterlimit="1.5" stroke-linecap="round" stroke-linejoin="round"/>
<path d="M13.7368 8.49489C13.7368 8.49489 14.1661 7.34865 14.1549 7.97155C14.1439 8.59444 14.0913 8.83044 14.1408 8.72722" stroke="#A8A9AC" stroke-width="0.3" stroke-miterlimit="1.5" stroke-linecap="round" stroke-linejoin="round"/>
<path d="M11.7163 7.33278C11.7163 7.33278 12.1455 6.18654 12.1344 6.80944C12.1234 7.43234 12.0708 7.66833 12.1203 7.56511" stroke="#A8A9AC" stroke-width="0.3" stroke-miterlimit="1.5" stroke-linecap="round" stroke-linejoin="round"/>
<path d="M15.3525 9.42433C15.3525 9.42433 15.7817 8.27809 15.7707 8.90099C15.7596 9.52389 15.7071 9.75989 15.7565 9.65666" stroke="#A8A9AC" stroke-width="0.3" stroke-miterlimit="1.5" stroke-linecap="round" stroke-linejoin="round"/>
<path d="M9.69629 6.17116C9.69629 6.17116 10.1254 5.02492 10.1144 5.64782C10.1034 6.27071 10.0508 6.50671 10.1003 6.40349" stroke="#A8A9AC" stroke-width="0.3" stroke-miterlimit="1.5" stroke-linecap="round" stroke-linejoin="round"/>
<path d="M13.3325 8.26247C13.3325 8.26247 13.7618 7.11623 13.7506 7.73912C13.7396 8.36202 13.687 8.59802 13.7365 8.4948" stroke="#A8A9AC" stroke-width="0.3" stroke-miterlimit="1.5" stroke-linecap="round" stroke-linejoin="round"/>
<path d="M11.312 7.10036C11.312 7.10036 11.7412 5.95412 11.7301 6.57702C11.7191 7.19991 11.6665 7.43591 11.716 7.33269" stroke="#A8A9AC" stroke-width="0.3" stroke-miterlimit="1.5" stroke-linecap="round" stroke-linejoin="round"/>
<path d="M14.9487 9.19191C14.9487 9.19191 15.3779 8.04567 15.3669 8.66857C15.3558 9.29147 15.3032 9.52746 15.3527 9.42424" stroke="#A8A9AC" stroke-width="0.3" stroke-miterlimit="1.5" stroke-linecap="round" stroke-linejoin="round"/>
<path d="M10.5044 6.63576C10.5044 6.63576 10.9335 5.48952 10.9225 6.11242C10.9114 6.73531 10.8589 6.97131 10.9084 6.86809" stroke="#A8A9AC" stroke-width="0.3" stroke-miterlimit="1.5" stroke-linecap="round" stroke-linejoin="round"/>
<path d="M14.1406 8.72707C14.1406 8.72707 14.5699 7.58083 14.5588 8.20372C14.5478 8.82662 14.4951 9.06262 14.5446 8.9594" stroke="#A8A9AC" stroke-width="0.3" stroke-miterlimit="1.5" stroke-linecap="round" stroke-linejoin="round"/>
<path d="M12.1201 7.56496C12.1201 7.56496 12.5494 6.41872 12.5382 7.04162C12.5272 7.66451 12.4746 7.90051 12.5241 7.79729" stroke="#A8A9AC" stroke-width="0.3" stroke-miterlimit="1.5" stroke-linecap="round" stroke-linejoin="round"/>
<path d="M17.0192 26.8569V12.0428C17.0192 10.8076 17.889 9.30066 18.9583 8.68331C19.2972 8.48808 19.6304 8.39775 19.9229 8.42259L8.54964 1.86026C8.25716 1.83626 7.92402 1.92576 7.58511 2.12099C6.51579 2.73928 5.646 4.24527 5.646 5.48007V20.3002C5.646 26.8267 8.02847 25.2618 9.03062 28.5056L20.4034 35.0626C19.4013 31.8184 17.0192 33.3838 17.0192 26.8569Z" fill="#D2DEEC"/>
<path d="M16.2526 26.6889V11.8748C16.2526 10.6396 17.1224 9.13269 18.1917 8.51535C18.5306 8.32011 18.8638 8.22978 19.1563 8.25462L7.78304 1.69229C7.49055 1.66829 7.15741 1.75779 6.81851 1.95302C5.74919 2.57131 4.87939 4.07731 4.87939 5.3121V20.1322C4.87939 26.6587 7.98697 25.7553 8.98911 28.9991L20.3619 35.5562C19.3598 32.3119 16.2526 33.2158 16.2526 26.6889Z" fill="#EBF4FF"/>
<path d="M7.1108 26.3567L18.5068 32.936C17.502 31.9733 16.4837 30.8829 16.2868 27.8138L4.91357 21.2471C5.10786 24.2997 6.11263 25.3979 7.1108 26.3567V26.3567Z" fill="#D2DEEC"/>
<path d="M15.1178 24.4457L12.0437 22.6713C11.6582 22.4482 11.3442 22.6289 11.3442 23.0751C11.3442 23.5223 11.6582 24.0638 12.0447 24.2873L15.1178 26.0622C15.5042 26.2854 15.8177 26.1046 15.8177 25.6579C15.8177 25.2121 15.5042 24.669 15.1178 24.4457V24.4457Z" fill="#191919"/>
<path d="M12.9883 10.2769V11.3091L16.2526 13.0836V12.1575L12.9883 10.2769V10.2769Z" fill="#BADAFF"/>
<path d="M5.55657 7.01871V5.98606L4.87939 5.5957V6.62751L5.55657 7.01871Z" fill="#BADAFF"/>
<path d="M15.8524 23.8119L5.18604 17.6574V7.66138L15.8524 13.8145V23.8119V23.8119Z" fill="#E7E7E8"/>
<path d="M15.7143 14.6905L5.30518 8.68539V7.86182L15.7138 13.867L15.7143 14.6905V14.6905Z" fill="white"/>
<path d="M15.7143 16.3367L5.30518 10.3311V9.50806L15.7138 15.5122L15.7143 16.3367Z" fill="white"/>
<path d="M15.7143 17.9821L5.30518 11.977V11.1531L15.7138 17.1578L15.7143 17.9821V17.9821Z" fill="white"/>
<path d="M15.7143 19.6277L5.30518 13.6225V12.7991L15.7138 18.8042L15.7143 19.6277Z" fill="white"/>
<path d="M15.7143 22.9021L5.30518 16.8974V16.0735L15.7138 22.0782L15.7143 22.9021V22.9021Z" fill="white"/>
<path d="M5.97089 8.77069L8.38682 10.1654C8.44047 10.1963 8.48417 10.1715 8.48417 10.1094C8.48417 10.047 8.44047 9.97101 8.38682 9.94051L5.97089 8.5458C5.91713 8.51437 5.87354 8.53931 5.87354 8.60218C5.87354 8.66422 5.91713 8.73967 5.97089 8.77069V8.77069Z" fill="#A8A9AC"/>
<path d="M13.8621 13.3224L15.0178 13.9891C15.0715 14.0201 15.1148 13.9943 15.1148 13.9323C15.1148 13.8707 15.0715 13.7948 15.0178 13.7642L13.8621 13.0965C13.8083 13.066 13.7651 13.0909 13.7651 13.1525C13.7651 13.2149 13.8083 13.2904 13.8621 13.3224Z" fill="#A8A9AC"/>
<path d="M5.97089 9.59394L9.66531 11.727C9.71896 11.7579 9.76266 11.7323 9.76266 11.6702C9.76266 11.6082 9.71896 11.5326 9.66531 11.5012L5.97089 9.36821C5.91713 9.33719 5.87354 9.36255 5.87354 9.42501C5.87354 9.48705 5.91713 9.56303 5.97089 9.59394V9.59394Z" fill="#A8A9AC"/>
<path d="M15.0178 14.5869L13.8621 13.9198C13.8083 13.8884 13.7651 13.9136 13.7651 13.9752C13.7651 14.0381 13.8083 14.1141 13.8621 14.1451L15.0178 14.8122C15.0715 14.8424 15.1148 14.817 15.1148 14.755C15.1148 14.6939 15.0715 14.6179 15.0178 14.5869V14.5869Z" fill="#A8A9AC"/>
<path d="M10.728 12.9383L5.97089 10.1913C5.91713 10.1608 5.87354 10.1852 5.87354 10.2477C5.87354 10.3097 5.91713 10.3857 5.97089 10.4171L10.728 13.164C10.7826 13.1942 10.8259 13.1697 10.8259 13.1068C10.8259 13.0449 10.7826 12.9693 10.728 12.9383V12.9383Z" fill="#A8A9AC"/>
<path d="M15.0178 15.4091L13.8621 14.7424C13.8083 14.7118 13.7651 14.7362 13.7651 14.7987C13.7651 14.8607 13.8083 14.9363 13.8621 14.9681L15.0178 15.6353C15.0715 15.6654 15.1148 15.6405 15.1148 15.5786C15.1148 15.5165 15.0715 15.4414 15.0178 15.4091V15.4091Z" fill="#A8A9AC"/>
<path d="M5.97089 11.2398L8.9898 12.9824C9.04346 13.0134 9.08716 12.9889 9.08716 12.926C9.08716 12.8636 9.04346 12.7885 8.9898 12.7575L5.97089 11.0145C5.91713 10.9839 5.87354 11.0079 5.87354 11.0703C5.87354 11.1324 5.91713 11.2088 5.97089 11.2398V11.2398Z" fill="#A8A9AC"/>
<path d="M15.0178 16.2322L13.8621 15.5655C13.8083 15.5341 13.7651 15.5593 13.7651 15.6218C13.7651 15.6834 13.8083 15.759 13.8621 15.7908L15.0178 16.458C15.0715 16.4886 15.1148 16.4632 15.1148 16.4013C15.1148 16.3392 15.0715 16.2637 15.0178 16.2322V16.2322Z" fill="#A8A9AC"/>
<path d="M5.97089 12.0618L8.38682 13.4578C8.44047 13.488 8.48417 13.4635 8.48417 13.4011C8.48417 13.3382 8.44047 13.2639 8.38682 13.2317L5.97089 11.8371C5.91713 11.806 5.87354 11.8309 5.87354 11.8938C5.87354 11.9558 5.91713 12.0309 5.97089 12.0618V12.0618Z" fill="#A8A9AC"/>
<path d="M15.0178 17.0551L13.8621 16.3884C13.8083 16.3569 13.7651 16.3818 13.7651 16.4438C13.7651 16.5063 13.8083 16.5818 13.8621 16.6133L15.0178 17.2804C15.0715 17.311 15.1148 17.2861 15.1148 17.2241C15.1148 17.1617 15.0715 17.0861 15.0178 17.0551Z" fill="#A8A9AC"/>
<path d="M5.97089 12.8853L9.87668 15.14C9.93033 15.1706 9.97403 15.1462 9.97403 15.0842C9.97403 15.0217 9.93033 14.9461 9.87668 14.9147L5.97089 12.6595C5.91713 12.6294 5.87354 12.6543 5.87354 12.7158C5.87354 12.7783 5.91713 12.8538 5.97089 12.8853V12.8853Z" fill="#A8A9AC"/>
<path d="M15.0178 17.8778L13.8621 17.2107C13.8083 17.1801 13.7651 17.2058 13.7651 17.2669C13.7651 17.3294 13.8083 17.405 13.8621 17.4364L15.0178 18.1036C15.0715 18.1341 15.1148 18.1089 15.1148 18.0468C15.1148 17.9848 15.0715 17.9092 15.0178 17.8778Z" fill="#A8A9AC"/>
<path d="M5.97089 13.7079L9.00416 15.4597C9.05792 15.4903 9.10162 15.4649 9.10162 15.4034C9.10162 15.3401 9.05792 15.2654 9.00416 15.234L5.97089 13.4831C5.91713 13.452 5.87354 13.477 5.87354 13.5389C5.87354 13.601 5.91713 13.6778 5.97089 13.7079V13.7079Z" fill="#A8A9AC"/>
<path d="M15.0178 18.7005L13.8621 18.0338C13.8083 18.0032 13.7651 18.0282 13.7651 18.0901C13.7651 18.1521 13.8083 18.2273 13.8621 18.2591L15.0178 18.9263C15.0715 18.9573 15.1148 18.932 15.1148 18.8695C15.1148 18.8079 15.0715 18.7325 15.0178 18.7005Z" fill="#A8A9AC"/>
<path d="M9.89187 16.5694L5.97089 14.3058C5.91713 14.2748 5.87354 14.2997 5.87354 14.3617C5.87354 14.4237 5.91713 14.4997 5.97089 14.5307L9.89187 16.7951C9.94605 16.8253 9.99017 16.8008 9.99017 16.7383C9.99017 16.6759 9.94605 16.6012 9.89187 16.5694Z" fill="#A8A9AC"/>
<path d="M15.0178 19.5239L13.8621 18.8575C13.8083 18.8261 13.7651 18.8514 13.7651 18.913C13.7651 18.9746 13.8083 19.051 13.8621 19.082L15.0178 19.7496C15.0715 19.7801 15.1148 19.7545 15.1148 19.6924C15.1148 19.6304 15.0715 19.5548 15.0178 19.5239Z" fill="#A8A9AC"/>
<path d="M5.97089 15.3532L7.84796 16.4369C7.90172 16.4679 7.9449 16.4427 7.9449 16.3806C7.9449 16.3186 7.90172 16.243 7.84796 16.2121L5.97089 15.1287C5.91713 15.0973 5.87354 15.1227 5.87354 15.1846C5.87354 15.2462 5.91713 15.323 5.97089 15.3532V15.3532Z" fill="#A8A9AC"/>
<path d="M15.0178 20.3464L13.8621 19.68C13.8083 19.6486 13.7651 19.6739 13.7651 19.736C13.7651 19.7979 13.8083 19.8739 13.8621 19.9049L15.0178 20.5726C15.0715 20.6026 15.1148 20.5774 15.1148 20.5162C15.1148 20.4533 15.0715 20.3783 15.0178 20.3464V20.3464Z" fill="#A8A9AC"/>
<path d="M8.38682 17.346L5.97089 15.9518C5.91713 15.9204 5.87354 15.9453 5.87354 16.0069C5.87354 16.0697 5.91713 16.1457 5.97089 16.1763L8.38682 17.5709C8.44047 17.6024 8.48417 17.5766 8.48417 17.5151C8.48417 17.4526 8.44047 17.377 8.38682 17.346Z" fill="#A8A9AC"/>
<path d="M15.0178 21.1692L13.8621 20.5019C13.8083 20.4709 13.7651 20.4967 13.7651 20.5583C13.7651 20.6202 13.8083 20.6962 13.8621 20.7277L15.0178 21.3945C15.0715 21.4259 15.1148 21.4001 15.1148 21.3381C15.1148 21.2762 15.0715 21.2006 15.0178 21.1692V21.1692Z" fill="#A8A9AC"/>
<path d="M8.38682 18.1605L5.97089 16.7663C5.91713 16.7348 5.87354 16.7598 5.87354 16.8217C5.87354 16.8842 5.91713 16.9602 5.97089 16.9908L8.38682 18.3858C8.44047 18.4168 8.48417 18.391 8.48417 18.3295C8.48417 18.267 8.44047 18.1915 8.38682 18.1605Z" fill="#A8A9AC"/>
<path d="M15.0178 21.9837L13.8621 21.3169C13.8083 21.2855 13.7651 21.3112 13.7651 21.3733C13.7651 21.4348 13.8083 21.5108 13.8621 21.5422L15.0178 22.2094C15.0715 22.2404 15.1148 22.2147 15.1148 22.153C15.1148 22.0906 15.0715 22.0151 15.0178 21.9837V21.9837Z" fill="#A8A9AC"/>
<path d="M8.38682 18.9999L5.97089 17.6056C5.91713 17.5742 5.87354 17.5991 5.87354 17.6612C5.87354 17.7235 5.91713 17.7995 5.97089 17.8301L8.38682 19.2252C8.44047 19.2562 8.48417 19.2305 8.48417 19.1689C8.48417 19.1064 8.44047 19.0308 8.38682 18.9999V18.9999Z" fill="#A8A9AC"/>
<path d="M15.0178 22.8227L13.8621 22.1555C13.8083 22.1245 13.7651 22.1503 13.7651 22.2119C13.7651 22.2738 13.8083 22.3498 13.8621 22.3812L15.0178 23.048C15.0715 23.0795 15.1148 23.0537 15.1148 22.9922C15.1148 22.9297 15.0715 22.8542 15.0178 22.8227V22.8227Z" fill="#A8A9AC"/>
<path d="M5.80859 7.16388C5.80859 7.16388 6.27252 5.96745 6.26152 6.59034C6.25051 7.21324 6.19791 7.44924 6.24737 7.34602" stroke="#A8A9AC" stroke-width="0.3" stroke-miterlimit="1.5" stroke-linecap="round" stroke-linejoin="round"/>
<path d="M9.44531 9.25544C9.44531 9.25544 9.90934 8.059 9.89823 8.6819C9.88723 9.30479 9.83462 9.54079 9.88409 9.43757" stroke="#A8A9AC" stroke-width="0.3" stroke-miterlimit="1.5" stroke-linecap="round" stroke-linejoin="round"/>
<path d="M6.24707 7.34621C6.24707 7.34621 6.6762 6.19997 6.6652 6.82287C6.6542 7.44576 6.60159 7.68176 6.65105 7.57854" stroke="#A8A9AC" stroke-width="0.3" stroke-miterlimit="1.5" stroke-linecap="round" stroke-linejoin="round"/>
<path d="M9.88379 9.43752C9.88379 9.43752 10.313 8.29128 10.3019 8.91417C10.2909 9.53707 10.2383 9.77307 10.2878 9.66985" stroke="#A8A9AC" stroke-width="0.3" stroke-miterlimit="1.5" stroke-linecap="round" stroke-linejoin="round"/>
<path d="M7.86328 8.27541C7.86328 8.27541 8.29252 7.12917 8.28152 7.75206C8.27041 8.37496 8.2178 8.61096 8.26726 8.50774" stroke="#A8A9AC" stroke-width="0.3" stroke-miterlimit="1.5" stroke-linecap="round" stroke-linejoin="round"/>
<path d="M11.5 10.3667C11.5 10.3667 11.9291 9.22048 11.9181 9.84337C11.907 10.4663 11.8545 10.7023 11.904 10.599" stroke="#A8A9AC" stroke-width="0.3" stroke-miterlimit="1.5" stroke-linecap="round" stroke-linejoin="round"/>
<path d="M7.05518 7.81081C7.05518 7.81081 7.48431 6.66457 7.4733 7.28746C7.4622 7.91036 7.40969 8.14636 7.45916 8.04314" stroke="#A8A9AC" stroke-width="0.3" stroke-miterlimit="1.5" stroke-linecap="round" stroke-linejoin="round"/>
<path d="M10.6919 9.90212C10.6919 9.90212 11.1211 8.75588 11.11 9.37877C11.099 10.0017 11.0464 10.2377 11.0959 10.1344" stroke="#A8A9AC" stroke-width="0.3" stroke-miterlimit="1.5" stroke-linecap="round" stroke-linejoin="round"/>
<path d="M8.67139 8.74001C8.67139 8.74001 9.10062 7.59377 9.08951 8.21666C9.07851 8.83956 9.0259 9.07556 9.07537 8.97234" stroke="#A8A9AC" stroke-width="0.3" stroke-miterlimit="1.5" stroke-linecap="round" stroke-linejoin="round"/>
<path d="M12.3076 10.8316C12.3076 10.8316 12.7367 9.68532 12.7257 10.3082C12.7146 10.9311 12.6621 11.1671 12.7116 11.0639" stroke="#A8A9AC" stroke-width="0.3" stroke-miterlimit="1.5" stroke-linecap="round" stroke-linejoin="round"/>
<path d="M6.65137 7.57839C6.65137 7.57839 7.0805 6.43215 7.0695 7.05504C7.05849 7.67794 7.00589 7.91394 7.05535 7.81071" stroke="#A8A9AC" stroke-width="0.3" stroke-miterlimit="1.5" stroke-linecap="round" stroke-linejoin="round"/>
<path d="M10.2876 9.66969C10.2876 9.66969 10.7168 8.52345 10.7057 9.14635C10.6947 9.76925 10.6421 10.0052 10.6916 9.90202" stroke="#A8A9AC" stroke-width="0.3" stroke-miterlimit="1.5" stroke-linecap="round" stroke-linejoin="round"/>
<path d="M8.26709 8.50758C8.26709 8.50758 8.69633 7.36134 8.68522 7.98424C8.67422 8.60714 8.62161 8.84314 8.67107 8.73991" stroke="#A8A9AC" stroke-width="0.3" stroke-miterlimit="1.5" stroke-linecap="round" stroke-linejoin="round"/>
<path d="M11.9038 10.5991C11.9038 10.5991 12.3329 9.4529 12.3219 10.0758C12.3108 10.6987 12.2583 10.9347 12.3078 10.8315" stroke="#A8A9AC" stroke-width="0.3" stroke-miterlimit="1.5" stroke-linecap="round" stroke-linejoin="round"/>
<path d="M7.45947 8.04299C7.45947 8.04299 7.8886 6.89674 7.8776 7.51964C7.86649 8.14254 7.81399 8.37854 7.86345 8.27531" stroke="#A8A9AC" stroke-width="0.3" stroke-miterlimit="1.5" stroke-linecap="round" stroke-linejoin="round"/>
<path d="M11.0957 10.1343C11.0957 10.1343 11.5249 8.98805 11.5138 9.61095C11.5028 10.2338 11.4502 10.4698 11.4997 10.3666" stroke="#A8A9AC" stroke-width="0.3" stroke-miterlimit="1.5" stroke-linecap="round" stroke-linejoin="round"/>
<path d="M9.0752 8.97218C9.0752 8.97218 9.50443 7.82594 9.49333 8.44884C9.48232 9.07174 9.42972 9.30774 9.47918 9.20451" stroke="#A8A9AC" stroke-width="0.3" stroke-miterlimit="1.5" stroke-linecap="round" stroke-linejoin="round"/>
</g>
</svg>
