<svg width="33" height="33" viewBox="0 0 33 33" fill="none" xmlns="http://www.w3.org/2000/svg">
<circle cx="16.4999" cy="16.4999" r="16.4999" fill="#BFBFBF"/>
<path d="M19.1583 25.0102H10.0797C9.7186 25.0102 9.4253 24.7163 9.4253 24.3547V8.64576C9.4253 8.28411 9.7186 7.99023 10.0797 7.99023H22.4885C22.8495 7.99023 23.1429 8.28411 23.1429 8.64576V21.2531H21.2363C20.0907 21.2531 19.1583 22.1848 19.1583 23.3304V25.0102H19.1583ZM20.1767 24.5761V23.2262C20.1767 22.669 20.6296 22.216 21.1862 22.216H22.6799L20.1767 24.5761ZM19.8274 25.7299H19.8286C19.9158 25.7299 20.0012 25.6976 20.0677 25.6352L23.7943 22.1212C23.8644 22.0547 23.8997 21.964 23.9003 21.8709C23.9374 21.8091 23.9598 21.7378 23.9598 21.6612V8.64573C23.9598 7.83411 23.3001 7.17383 22.4885 7.17383H10.0797C9.26864 7.17383 8.6084 7.83411 8.6084 8.64573V24.3546C8.6084 25.1663 9.26864 25.8259 10.0797 25.8259H19.5665C19.6666 25.8259 19.7568 25.7894 19.8274 25.7299V25.7299Z" fill="#191919"/>
<path d="M11.8689 11.5445H20.699V12.1129H11.8689V11.5445ZM11.7871 12.6029H20.7804C21.0065 12.6029 21.1891 12.4203 21.1891 12.1947V11.4632C21.1891 11.237 21.0065 11.0544 20.7804 11.0544H11.7871C11.5621 11.0544 11.3789 11.237 11.3789 11.4632V12.1947C11.3789 12.4203 11.5621 12.6029 11.7871 12.6029Z" fill="#191919"/>
<path d="M11.8689 14.1041H20.699V14.6724H11.8689V14.1041ZM11.7871 15.1625H20.7804C21.0065 15.1625 21.1891 14.9793 21.1891 14.7543V14.0222C21.1891 13.7972 21.0065 13.614 20.7804 13.614H11.7871C11.5621 13.614 11.3789 13.7972 11.3789 14.0222V14.7543C11.3789 14.9793 11.5621 15.1625 11.7871 15.1625Z" fill="#191919"/>
<path d="M20.6991 17.2327H11.869V16.6644H20.6991V17.2327ZM21.1891 17.314V16.5825C21.1891 16.3569 21.0065 16.1743 20.7804 16.1743H11.7871C11.5621 16.1743 11.3789 16.3569 11.3789 16.5825V17.314C11.3789 17.5396 11.5621 17.7228 11.7871 17.7228H20.7804C21.0065 17.7228 21.1891 17.5396 21.1891 17.314Z" fill="#191919"/>
</svg>
