<svg width="33" height="33" viewBox="0 0 33 33" fill="none" xmlns="http://www.w3.org/2000/svg">
<circle cx="16.4999" cy="16.4999" r="16.4999" fill="#1E4588"/>
<path d="M23.3548 15.8431C23.1909 16.0344 22.8996 16.0622 22.7026 15.8934L16.8318 10.8595C16.6593 10.7114 16.4047 10.7106 16.2314 10.8578C16.1064 10.9636 10.3217 15.8722 10.2972 15.893C10.1035 16.0586 9.81044 16.0365 9.64498 15.8435C9.47863 15.6494 9.50109 15.357 9.69323 15.1923L16.2293 9.64749C16.4043 9.49788 16.6573 9.49788 16.8318 9.64749L23.3046 15.1911C23.4983 15.357 23.5208 15.6494 23.3548 15.8431ZM19.305 23.4662V19.3041C19.305 19.0487 19.0978 18.8414 18.8424 18.8414H14.1574C13.902 18.8414 13.701 19.0487 13.701 19.3041V23.4662H11.383V16.1848L16.5289 11.8184L21.6229 16.1803V23.4662H19.305ZM18.3863 23.4662H14.6197V19.7603H18.3863V23.4662ZM20.692 10.4548H21.6229V12.5256L20.692 11.7326V10.4548ZM24.3867 15.436C24.3586 15.0664 24.1881 14.7296 23.9065 14.4884L22.5416 13.3181V9.99242C22.5416 9.73696 22.3344 9.53016 22.079 9.53016H20.2294C19.9739 9.53016 19.7734 9.73696 19.7734 9.99242V10.94L17.4333 8.94516C16.9102 8.49673 16.1509 8.49673 15.6295 8.94359L9.09289 14.4884C8.515 14.9838 8.44027 15.8582 8.94332 16.4461C9.32661 16.8916 9.94088 17.0338 10.4643 16.8499V23.9284C10.4643 24.184 10.6654 24.3912 10.9208 24.3912H22.079C22.3344 24.3912 22.5416 24.184 22.5416 23.9284V16.8499C23.0819 17.0412 23.683 16.881 24.057 16.4452C24.2981 16.1635 24.4154 15.8051 24.3867 15.436Z" fill="#CFE5F2"/>
</svg>
