<svg width="33" height="33" viewBox="0 0 33 33" fill="none" xmlns="http://www.w3.org/2000/svg">
<circle cx="16.4999" cy="16.4999" r="16.4999" fill="#CFE5F2"/>
<path d="M10.3512 9.22456C10.3512 8.47114 11.0043 7.85845 11.8081 7.85845H20.4283C21.2311 7.85845 21.8847 8.47114 21.8847 9.22456V9.47237C21.8847 9.59627 21.9519 9.71123 22.0611 9.77159C22.467 9.99684 22.7095 10.3701 22.7095 10.7702V23.9082C22.7095 24.5718 22.0564 25.1115 21.2526 25.1115H11.8081C11.0043 25.1115 10.3512 24.4989 10.3512 23.7454V9.22456ZM9.66602 9.22456V23.7454C9.66602 24.8763 10.6268 25.7962 11.8081 25.7962H21.2526C22.4334 25.7962 23.3941 24.9493 23.3941 23.9082V10.7702C23.3941 10.1811 23.0897 9.63776 22.5699 9.28126V9.22456C22.5699 8.09367 21.6091 7.17383 20.4283 7.17383H11.8081C10.6268 7.17383 9.66602 8.09367 9.66602 9.22456Z" fill="#1E4588"/>
<path d="M12.2685 9.05185H20.5937C20.8011 9.09805 20.9381 9.18098 21.0011 9.29857C21.0557 9.4015 21.0578 9.53066 21.0426 9.64142H17.631C17.442 9.64142 17.2887 9.79474 17.2887 9.98376V15.2791L16.1379 14.2285C16.0722 14.1686 15.9893 14.1387 15.9069 14.1387C15.8218 14.1387 15.7362 14.1702 15.6706 14.2332L14.6001 15.2549V9.98376C14.6001 9.79474 14.4468 9.64142 14.2583 9.64142H12.3599C12.0034 9.32587 12.0097 9.18571 12.0102 9.18468C12.0244 9.14738 12.1488 9.07965 12.2685 9.05185ZM12.016 10.2478C12.0774 10.2982 12.1546 10.3261 12.2339 10.3261H13.9155V16.0556C13.9155 16.1926 13.9974 16.3165 14.1234 16.37C14.1664 16.3889 14.2127 16.3979 14.2578 16.3979C14.3444 16.3979 14.4294 16.3653 14.4946 16.3028L15.9116 14.9493L17.4 16.3081C17.5003 16.3994 17.6452 16.4236 17.7696 16.3684C17.8935 16.3138 17.9739 16.191 17.9739 16.0556V10.3261H21.3041C21.4411 10.3261 21.5649 10.2441 21.619 10.1187C21.6458 10.0557 21.8747 9.48919 21.608 8.98202C21.4941 8.76467 21.2431 8.48273 20.6966 8.37353C20.6745 8.36933 20.652 8.3667 20.6294 8.3667H12.2339C12.2139 8.3667 12.194 8.36877 12.174 8.37196C12.1036 8.38453 11.4799 8.50899 11.3476 9.01039C11.1991 9.57529 11.8138 10.0814 12.016 10.2478Z" fill="#1E4588"/>
<path d="M15.5782 12.497C15.6338 12.4892 15.6816 12.454 15.7068 12.4036L15.8034 12.2078L15.9 12.4036C15.9252 12.454 15.973 12.4892 16.0292 12.497L16.2455 12.5285L16.089 12.6808C16.0486 12.7207 16.0302 12.7774 16.0397 12.8325L16.0769 13.0483L15.8832 12.9465C15.858 12.9334 15.8307 12.927 15.8034 12.927C15.7761 12.927 15.7488 12.9334 15.7236 12.9465L15.5299 13.0483L15.5671 12.8325C15.5771 12.7774 15.5582 12.7207 15.5178 12.6808L15.3618 12.5285L15.5782 12.497ZM15.2143 12.8635L15.134 13.3324C15.123 13.3964 15.1492 13.4615 15.2017 13.4993C15.2316 13.5213 15.2668 13.5324 15.3025 13.5324C15.3298 13.5324 15.3571 13.5255 15.3823 13.5124L15.8034 13.2914L16.2244 13.5124C16.2822 13.5429 16.352 13.5381 16.4045 13.4993C16.4576 13.4615 16.4838 13.3964 16.4728 13.3324L16.3925 12.8635L16.7327 12.5317C16.7799 12.486 16.7967 12.4183 16.7762 12.3564C16.7563 12.2944 16.7027 12.2493 16.6382 12.2398L16.1672 12.171L15.9572 11.7447C15.9284 11.6864 15.8685 11.6492 15.8034 11.6492C15.7383 11.6492 15.6789 11.6864 15.6496 11.7447L15.4396 12.171L14.9691 12.2398C14.9046 12.2493 14.8505 12.2944 14.8305 12.3564C14.8106 12.4183 14.8274 12.486 14.8741 12.5317L15.2143 12.8635Z" fill="#1E4588"/>
</svg>
