<svg width="34" height="38" viewBox="0 0 34 38" fill="none" xmlns="http://www.w3.org/2000/svg">
<circle cx="17.2851" cy="21.0407" r="16.4999" fill="#1E4588"/>
<circle cx="17.2853" cy="21.0402" r="14.6564" fill="#EFF9FF"/>
<mask id="mask0_53_182" style="mask-type:alpha" maskUnits="userSpaceOnUse" x="2" y="0" width="30" height="36">
<path fill-rule="evenodd" clip-rule="evenodd" d="M4.57844 12.0882C4.25885 9.22749 3.89659 5.9848 4.5512 4.12372C5.4276 1.6321 7.71534 0.505603 8.69126 0.426373C9.46648 0.363436 11.4553 0.386092 13.3055 0.525276C13.4535 0.469877 13.5928 0.436708 13.7201 0.426373C14.0374 0.40061 14.4452 0.502408 14.9011 0.683418C15.7817 0.797013 16.5058 0.946699 16.8657 1.13723C17.167 1.29671 17.6006 1.79565 18.0751 2.46169C18.143 2.50504 18.2099 2.54788 18.2758 2.59005C18.8198 2.93828 19.2933 3.24138 19.6232 3.41601C19.7931 3.50595 20.0729 3.6358 20.4228 3.79816C22.0978 4.57534 25.3781 6.09745 25.8908 7.5535L26.2014 9.4076C29.6916 12.0866 31.9416 16.301 31.9416 21.0409C31.9416 29.1354 25.3798 35.6973 17.2853 35.6973C9.19079 35.6973 2.62891 29.1354 2.62891 21.0409C2.62891 18.2731 3.39614 15.6845 4.72952 13.4761C4.6836 13.0294 4.63161 12.5641 4.57844 12.0882Z" fill="#FAFCFE"/>
</mask>
<g mask="url(#mask0_53_182)">
<path d="M27.4891 12.9239L16.5136 6.58509C16.2267 6.42056 15.9752 6.41878 15.7962 6.54107V6.53583L14.7815 7.1296L15.1173 8.59368L15.8883 8.5941V29.4727C15.8883 30.0936 16.3224 30.849 16.8607 31.1573L27.218 37.137L27.1821 38.3452L28.1768 37.7636C28.3532 37.6636 28.4632 37.4444 28.4624 37.1348L28.4632 14.6067C28.4624 13.9862 28.0266 13.233 27.4891 12.9239V12.9239Z" fill="#191919"/>
<path d="M26.4947 38.2761L15.5187 31.9378C14.9808 31.6282 14.5451 30.8742 14.5459 30.2528V7.7268C14.5467 7.10547 14.9816 6.85397 15.5187 7.16531L26.4963 13.5023C27.0326 13.8123 27.467 14.5668 27.4679 15.1877L27.467 37.7137C27.4679 38.335 27.0326 38.5857 26.4947 38.2761Z" fill="#565656"/>
<path d="M14.8313 9.24146L14.95 9.30915L14.9522 28.1552L27.1799 35.2235L27.1791 35.3614L14.833 28.2241L14.8313 9.24146V9.24146Z" fill="#131315"/>
<path d="M14.9502 9.3092L27.1793 16.3693L27.1801 35.2236L14.9524 28.1552L14.9502 9.3092V9.3092Z" fill="#BADAFF"/>
<path d="M23.1911 26.6582V11.8442C23.1911 10.609 24.0609 9.10205 25.1302 8.48471C25.4691 8.28947 25.8023 8.19914 26.0947 8.22398L14.7215 1.66165C14.429 1.63765 14.0959 1.72715 13.757 1.92238C12.6877 2.54067 11.8179 4.04667 11.8179 5.28146V20.1016C11.8179 26.6281 14.2003 25.0631 15.2025 28.3069L26.5753 34.864C25.5732 31.6198 23.1911 33.1851 23.1911 26.6582Z" fill="#D2DEEC"/>
<path d="M22.4772 25.9986V11.1845C22.4772 9.94932 23.347 8.44238 24.4163 7.82504C24.7552 7.62981 25.0884 7.53947 25.3809 7.56431L14.0076 1.00198C13.7152 0.977986 13.382 1.06748 13.0431 1.26271C11.9738 1.881 11.104 3.387 11.104 4.62179V19.4419C11.104 25.9684 14.2116 25.065 15.2137 28.3088L26.5865 34.8659C25.5844 31.6216 22.4772 32.5255 22.4772 25.9986Z" fill="#EBF4FF"/>
<path d="M13.3354 25.6664L24.7314 32.2457C23.7266 31.283 22.7083 30.1926 22.5114 27.1235L11.1382 20.5568C11.3325 23.6094 12.3372 24.7076 13.3354 25.6664V25.6664Z" fill="#D2DEEC"/>
<path d="M21.3424 23.7554L18.2683 21.981C17.8828 21.7579 17.5688 21.9386 17.5688 22.3848C17.5688 22.832 17.8828 23.3735 18.2693 23.597L21.3424 25.3719C21.7288 25.5951 22.0423 25.4143 22.0423 24.9676C22.0423 24.5218 21.7288 23.9787 21.3424 23.7554V23.7554Z" fill="#191919"/>
<path d="M19.2129 9.58655V10.6188L22.4772 12.3933V11.4672L19.2129 9.58655V9.58655Z" fill="#BADAFF"/>
<path d="M11.7812 6.3284V5.29575L11.104 4.9054V5.9372L11.7812 6.3284Z" fill="#BADAFF"/>
<path d="M22.077 23.1216L11.4106 16.9671V6.97107L22.077 13.1242V23.1216V23.1216Z" fill="#E7E7E8"/>
<path d="M21.9389 14.0002L11.5298 7.99509V7.17151L21.9384 13.1766L21.9389 14.0002V14.0002Z" fill="white"/>
<path d="M21.9389 15.6464L11.5298 9.6408V8.81775L21.9384 14.8219L21.9389 15.6464Z" fill="white"/>
<path d="M21.9389 17.2918L11.5298 11.2867V10.4628L21.9384 16.4675L21.9389 17.2918V17.2918Z" fill="white"/>
<path d="M21.9389 18.9374L11.5298 12.9322V12.1088L21.9384 18.1139L21.9389 18.9374Z" fill="white"/>
<path d="M21.9389 20.5834L11.5298 14.5782V13.7543L21.9384 19.759L21.9389 20.5834Z" fill="white"/>
<path d="M21.9389 22.2118L11.5298 16.2071V15.3832L21.9384 21.3879L21.9389 22.2118V22.2118Z" fill="white"/>
<path d="M12.1955 8.08039L14.6114 9.47509C14.6651 9.50601 14.7088 9.48117 14.7088 9.41913C14.7088 9.35668 14.6651 9.2807 14.6114 9.2502L12.1955 7.8555C12.1417 7.82406 12.0981 7.849 12.0981 7.91188C12.0981 7.97391 12.1417 8.04937 12.1955 8.08039V8.08039Z" fill="#A8A9AC"/>
<path d="M20.0867 12.632L21.2425 13.2987C21.2961 13.3298 21.3394 13.304 21.3394 13.2419C21.3394 13.1804 21.2961 13.1045 21.2425 13.0739L20.0867 12.4062C20.0329 12.3757 19.9897 12.4006 19.9897 12.4622C19.9897 12.5246 20.0329 12.6001 20.0867 12.632Z" fill="#A8A9AC"/>
<path d="M12.1955 8.90363L15.8899 11.0367C15.9436 11.0676 15.9873 11.042 15.9873 10.9799C15.9873 10.9179 15.9436 10.8423 15.8899 10.8109L12.1955 8.67791C12.1417 8.64689 12.0981 8.67225 12.0981 8.7347C12.0981 8.79674 12.1417 8.87272 12.1955 8.90363V8.90363Z" fill="#A8A9AC"/>
<path d="M21.2425 13.8966L20.0867 13.2295C20.0329 13.198 19.9897 13.2233 19.9897 13.2849C19.9897 13.3478 20.0329 13.4238 20.0867 13.4548L21.2425 14.1219C21.2961 14.1521 21.3394 14.1267 21.3394 14.0647C21.3394 14.0036 21.2961 13.9276 21.2425 13.8966V13.8966Z" fill="#A8A9AC"/>
<path d="M16.9526 12.248L12.1955 9.501C12.1417 9.47051 12.0981 9.49493 12.0981 9.55738C12.0981 9.61942 12.1417 9.6954 12.1955 9.72683L16.9526 12.4737C17.0072 12.5039 17.0505 12.4794 17.0505 12.4165C17.0505 12.3546 17.0072 12.279 16.9526 12.248V12.248Z" fill="#A8A9AC"/>
<path d="M21.2425 14.7188L20.0867 14.0521C20.0329 14.0215 19.9897 14.0459 19.9897 14.1084C19.9897 14.1704 20.0329 14.246 20.0867 14.2778L21.2425 14.9449C21.2961 14.9751 21.3394 14.9502 21.3394 14.8882C21.3394 14.8262 21.2961 14.7511 21.2425 14.7188V14.7188Z" fill="#A8A9AC"/>
<path d="M12.1955 10.5495L15.2144 12.2921C15.2681 12.3231 15.3118 12.2986 15.3118 12.2357C15.3118 12.1733 15.2681 12.0982 15.2144 12.0672L12.1955 10.3242C12.1417 10.2936 12.0981 10.3176 12.0981 10.38C12.0981 10.442 12.1417 10.5184 12.1955 10.5495V10.5495Z" fill="#A8A9AC"/>
<path d="M21.2425 15.5419L20.0867 14.8752C20.0329 14.8438 19.9897 14.869 19.9897 14.9315C19.9897 14.9931 20.0329 15.0687 20.0867 15.1005L21.2425 15.7676C21.2961 15.7982 21.3394 15.7729 21.3394 15.711C21.3394 15.6489 21.2961 15.5734 21.2425 15.5419V15.5419Z" fill="#A8A9AC"/>
<path d="M12.1955 11.3715L14.6114 12.7675C14.6651 12.7977 14.7088 12.7732 14.7088 12.7108C14.7088 12.6479 14.6651 12.5736 14.6114 12.5414L12.1955 11.1468C12.1417 11.1157 12.0981 11.1406 12.0981 11.2034C12.0981 11.2655 12.1417 11.3406 12.1955 11.3715V11.3715Z" fill="#A8A9AC"/>
<path d="M21.2425 16.3648L20.0867 15.6981C20.0329 15.6666 19.9897 15.6915 19.9897 15.7535C19.9897 15.816 20.0329 15.8915 20.0867 15.923L21.2425 16.5901C21.2961 16.6207 21.3394 16.5958 21.3394 16.5338C21.3394 16.4713 21.2961 16.3958 21.2425 16.3648Z" fill="#A8A9AC"/>
<path d="M12.1955 12.195L16.1013 14.4497C16.1549 14.4803 16.1986 14.4559 16.1986 14.3938C16.1986 14.3314 16.1549 14.2558 16.1013 14.2244L12.1955 11.9692C12.1417 11.939 12.0981 11.964 12.0981 12.0255C12.0981 12.088 12.1417 12.1635 12.1955 12.195V12.195Z" fill="#A8A9AC"/>
<path d="M21.2425 17.1875L20.0867 16.5204C20.0329 16.4898 19.9897 16.5155 19.9897 16.5766C19.9897 16.6391 20.0329 16.7146 20.0867 16.7461L21.2425 17.4133C21.2961 17.4438 21.3394 17.4186 21.3394 17.3565C21.3394 17.2945 21.2961 17.2189 21.2425 17.1875Z" fill="#A8A9AC"/>
<path d="M12.1955 13.0176L15.2288 14.7694C15.2825 14.8 15.3262 14.7746 15.3262 14.7131C15.3262 14.6498 15.2825 14.5751 15.2288 14.5437L12.1955 12.7927C12.1417 12.7617 12.0981 12.7867 12.0981 12.8486C12.0981 12.9106 12.1417 12.9875 12.1955 13.0176V13.0176Z" fill="#A8A9AC"/>
<path d="M21.2425 18.0102L20.0867 17.3435C20.0329 17.3129 19.9897 17.3378 19.9897 17.3998C19.9897 17.4618 20.0329 17.537 20.0867 17.5688L21.2425 18.236C21.2961 18.267 21.3394 18.2417 21.3394 18.1792C21.3394 18.1176 21.2961 18.0422 21.2425 18.0102Z" fill="#A8A9AC"/>
<path d="M16.1165 15.8791L12.1955 13.6155C12.1417 13.5845 12.0981 13.6094 12.0981 13.6714C12.0981 13.7334 12.1417 13.8094 12.1955 13.8404L16.1165 16.1048C16.1707 16.135 16.2148 16.1104 16.2148 16.048C16.2148 15.9856 16.1707 15.9109 16.1165 15.8791Z" fill="#A8A9AC"/>
<path d="M21.2425 18.8336L20.0867 18.1672C20.0329 18.1358 19.9897 18.1611 19.9897 18.2226C19.9897 18.2843 20.0329 18.3607 20.0867 18.3917L21.2425 19.0593C21.2961 19.0898 21.3394 19.0641 21.3394 19.0021C21.3394 18.9401 21.2961 18.8645 21.2425 18.8336Z" fill="#A8A9AC"/>
<path d="M12.1955 14.6629L14.0726 15.7466C14.1263 15.7776 14.1695 15.7524 14.1695 15.6903C14.1695 15.6283 14.1263 15.5527 14.0726 15.5218L12.1955 14.4384C12.1417 14.407 12.0981 14.4324 12.0981 14.4943C12.0981 14.5559 12.1417 14.6327 12.1955 14.6629V14.6629Z" fill="#A8A9AC"/>
<path d="M21.2425 19.6561L20.0867 18.9897C20.0329 18.9583 19.9897 18.9836 19.9897 19.0457C19.9897 19.1076 20.0329 19.1836 20.0867 19.2146L21.2425 19.8822C21.2961 19.9123 21.3394 19.8871 21.3394 19.8259C21.3394 19.763 21.2961 19.688 21.2425 19.6561V19.6561Z" fill="#A8A9AC"/>
<path d="M14.6114 16.6557L12.1955 15.2615C12.1417 15.2301 12.0981 15.255 12.0981 15.3166C12.0981 15.3794 12.1417 15.4554 12.1955 15.486L14.6114 16.8806C14.6651 16.912 14.7088 16.8863 14.7088 16.8248C14.7088 16.7623 14.6651 16.6867 14.6114 16.6557Z" fill="#A8A9AC"/>
<path d="M21.2425 20.4789L20.0867 19.8116C20.0329 19.7806 19.9897 19.8064 19.9897 19.868C19.9897 19.9299 20.0329 20.0059 20.0867 20.0374L21.2425 20.7042C21.2961 20.7356 21.3394 20.7098 21.3394 20.6478C21.3394 20.5859 21.2961 20.5103 21.2425 20.4789V20.4789Z" fill="#A8A9AC"/>
<path d="M14.6114 17.4702L12.1955 16.076C12.1417 16.0445 12.0981 16.0695 12.0981 16.1314C12.0981 16.1939 12.1417 16.2698 12.1955 16.3004L14.6114 17.6955C14.6651 17.7265 14.7088 17.7007 14.7088 17.6392C14.7088 17.5767 14.6651 17.5012 14.6114 17.4702Z" fill="#A8A9AC"/>
<path d="M21.2425 21.2934L20.0867 20.6266C20.0329 20.5951 19.9897 20.6209 19.9897 20.683C19.9897 20.7445 20.0329 20.8205 20.0867 20.8519L21.2425 21.5191C21.2961 21.5501 21.3394 21.5244 21.3394 21.4627C21.3394 21.4003 21.2961 21.3248 21.2425 21.2934V21.2934Z" fill="#A8A9AC"/>
<path d="M14.6114 18.3096L12.1955 16.9153C12.1417 16.8839 12.0981 16.9088 12.0981 16.9709C12.0981 17.0332 12.1417 17.1092 12.1955 17.1398L14.6114 18.5349C14.6651 18.5658 14.7088 18.5402 14.7088 18.4785C14.7088 18.4161 14.6651 18.3405 14.6114 18.3096V18.3096Z" fill="#A8A9AC"/>
<path d="M21.2425 22.1324L20.0867 21.4652C20.0329 21.4342 19.9897 21.46 19.9897 21.5216C19.9897 21.5835 20.0329 21.6595 20.0867 21.6909L21.2425 22.3577C21.2961 22.3892 21.3394 22.3634 21.3394 22.3019C21.3394 22.2394 21.2961 22.1639 21.2425 22.1324V22.1324Z" fill="#A8A9AC"/>
<path d="M12.0332 6.47358C12.0332 6.47358 12.4971 5.27714 12.4861 5.90004C12.4751 6.52293 12.4225 6.75893 12.472 6.65571" stroke="#A8A9AC" stroke-width="0.3" stroke-miterlimit="1.5" stroke-linecap="round" stroke-linejoin="round"/>
<path d="M15.6699 8.56501C15.6699 8.56501 16.134 7.36857 16.1228 7.99147C16.1118 8.61436 16.0592 8.85036 16.1087 8.74714" stroke="#A8A9AC" stroke-width="0.3" stroke-miterlimit="1.5" stroke-linecap="round" stroke-linejoin="round"/>
<path d="M12.4719 6.65578C12.4719 6.65578 12.9011 5.50954 12.8901 6.13244C12.879 6.75533 12.8264 6.99133 12.8759 6.88811" stroke="#A8A9AC" stroke-width="0.3" stroke-miterlimit="1.5" stroke-linecap="round" stroke-linejoin="round"/>
<path d="M16.1084 8.74721C16.1084 8.74721 16.5376 7.60097 16.5265 8.22387C16.5155 8.84676 16.4629 9.08276 16.5124 8.97954" stroke="#A8A9AC" stroke-width="0.3" stroke-miterlimit="1.5" stroke-linecap="round" stroke-linejoin="round"/>
<path d="M14.0879 7.58498C14.0879 7.58498 14.5171 6.43874 14.5061 7.06163C14.495 7.68453 14.4424 7.92053 14.4919 7.81731" stroke="#A8A9AC" stroke-width="0.3" stroke-miterlimit="1.5" stroke-linecap="round" stroke-linejoin="round"/>
<path d="M17.7246 9.67641C17.7246 9.67641 18.1537 8.53017 18.1427 9.15307C18.1316 9.77596 18.0791 10.012 18.1286 9.90874" stroke="#A8A9AC" stroke-width="0.3" stroke-miterlimit="1.5" stroke-linecap="round" stroke-linejoin="round"/>
<path d="M13.2798 7.12038C13.2798 7.12038 13.7089 5.97414 13.6979 6.59703C13.6868 7.21993 13.6343 7.45593 13.6838 7.35271" stroke="#A8A9AC" stroke-width="0.3" stroke-miterlimit="1.5" stroke-linecap="round" stroke-linejoin="round"/>
<path d="M16.9165 9.21181C16.9165 9.21181 17.3457 8.06557 17.3346 8.68847C17.3236 9.31136 17.271 9.54736 17.3205 9.44414" stroke="#A8A9AC" stroke-width="0.3" stroke-miterlimit="1.5" stroke-linecap="round" stroke-linejoin="round"/>
<path d="M14.8958 8.0497C14.8958 8.0497 15.325 6.90346 15.3139 7.52636C15.3029 8.14925 15.2503 8.38525 15.2997 8.28203" stroke="#A8A9AC" stroke-width="0.3" stroke-miterlimit="1.5" stroke-linecap="round" stroke-linejoin="round"/>
<path d="M18.5322 10.1413C18.5322 10.1413 18.9614 8.99501 18.9504 9.61791C18.9392 10.2408 18.8867 10.4768 18.9362 10.3736" stroke="#A8A9AC" stroke-width="0.3" stroke-miterlimit="1.5" stroke-linecap="round" stroke-linejoin="round"/>
<path d="M12.876 6.88808C12.876 6.88808 13.3051 5.74184 13.2941 6.36474C13.2831 6.98763 13.2305 7.22363 13.28 7.12041" stroke="#A8A9AC" stroke-width="0.3" stroke-miterlimit="1.5" stroke-linecap="round" stroke-linejoin="round"/>
<path d="M16.5122 8.97951C16.5122 8.97951 16.9414 7.83327 16.9303 8.45617C16.9193 9.07906 16.8667 9.31506 16.9162 9.21184" stroke="#A8A9AC" stroke-width="0.3" stroke-miterlimit="1.5" stroke-linecap="round" stroke-linejoin="round"/>
<path d="M14.4917 7.81728C14.4917 7.81728 14.9209 6.67104 14.9098 7.29393C14.8988 7.91683 14.8462 8.15283 14.8957 8.04961" stroke="#A8A9AC" stroke-width="0.3" stroke-miterlimit="1.5" stroke-linecap="round" stroke-linejoin="round"/>
<path d="M18.1284 9.90871C18.1284 9.90871 18.5576 8.76247 18.5465 9.38537C18.5354 10.0083 18.4829 10.2443 18.5324 10.141" stroke="#A8A9AC" stroke-width="0.3" stroke-miterlimit="1.5" stroke-linecap="round" stroke-linejoin="round"/>
<path d="M13.6841 7.35268C13.6841 7.35268 14.1132 6.20644 14.1022 6.82933C14.0911 7.45223 14.0386 7.68823 14.0881 7.58501" stroke="#A8A9AC" stroke-width="0.3" stroke-miterlimit="1.5" stroke-linecap="round" stroke-linejoin="round"/>
<path d="M17.3203 9.44411C17.3203 9.44411 17.7495 8.29787 17.7384 8.92077C17.7274 9.54366 17.6748 9.77966 17.7243 9.67644" stroke="#A8A9AC" stroke-width="0.3" stroke-miterlimit="1.5" stroke-linecap="round" stroke-linejoin="round"/>
<path d="M15.2996 8.282C15.2996 8.282 15.7288 7.13576 15.7177 7.75866C15.7067 8.38155 15.6541 8.61755 15.7035 8.51433" stroke="#A8A9AC" stroke-width="0.3" stroke-miterlimit="1.5" stroke-linecap="round" stroke-linejoin="round"/>
<path d="M20.091 25.6786V10.8646C20.091 9.62938 20.9608 8.12243 22.0301 7.50509C22.369 7.30986 22.7022 7.21953 22.9946 7.24436L11.6214 0.682038C11.3289 0.65804 10.9958 0.747534 10.6569 0.942766C9.58757 1.56105 8.71777 3.06705 8.71777 4.30184V19.122C8.71777 25.6484 11.1003 24.0835 12.1024 27.3273L23.4752 33.8844C22.4731 30.6402 20.091 32.2055 20.091 25.6786Z" fill="#D2DEEC"/>
<path d="M19.2192 25.4228V10.6087C19.2192 9.37352 20.089 7.86658 21.1583 7.24923C21.4972 7.054 21.8303 6.96367 22.1228 6.9885L10.7496 0.426178C10.4571 0.40218 10.124 0.491675 9.78506 0.686907C8.71574 1.30519 7.84595 2.81119 7.84595 4.04598V18.8661C7.84595 25.3926 10.9535 24.4892 11.9557 27.733L23.3285 34.29C22.3263 31.0458 19.2192 31.9497 19.2192 25.4228Z" fill="#EBF4FF"/>
<path d="M10.0773 25.0906L21.4733 31.6699C20.4685 30.7072 19.4503 29.6168 19.2534 26.5477L7.88013 19.981C8.07442 23.0336 9.07918 24.1318 10.0773 25.0906V25.0906Z" fill="#D2DEEC"/>
<path d="M18.0843 23.1796L15.0103 21.4052C14.6248 21.182 14.3108 21.3628 14.3108 21.809C14.3108 22.2562 14.6248 22.7977 15.0112 23.0212L18.0843 24.7961C18.4707 25.0193 18.7843 24.8385 18.7843 24.3918C18.7843 23.946 18.4707 23.4028 18.0843 23.1796V23.1796Z" fill="#191919"/>
<path d="M15.9548 9.01074V10.043L19.2192 11.8174V10.8914L15.9548 9.01074V9.01074Z" fill="#BADAFF"/>
<path d="M8.52313 5.75259V4.71995L7.84595 4.32959V5.36139L8.52313 5.75259Z" fill="#BADAFF"/>
<path d="M18.819 22.5457L8.15259 16.3913V6.39526L18.819 12.5484V22.5457V22.5457Z" fill="#E7E7E8"/>
<path d="M18.6808 13.4244L8.27173 7.41928V6.5957L18.6803 12.6008L18.6808 13.4244V13.4244Z" fill="white"/>
<path d="M18.6808 15.0706L8.27173 9.065V8.24194L18.6803 14.2461L18.6808 15.0706Z" fill="white"/>
<path d="M18.6808 16.716L8.27173 10.7109V9.88696L18.6803 15.8917L18.6808 16.716V16.716Z" fill="white"/>
<path d="M18.6808 18.3616L8.27173 12.3564V11.533L18.6803 17.5381L18.6808 18.3616Z" fill="white"/>
<path d="M18.6808 20.0076L8.27173 14.0024V13.1785L18.6803 19.1832L18.6808 20.0076Z" fill="white"/>
<path d="M18.6808 21.636L8.27173 15.6313V14.8074L18.6803 20.8121L18.6808 21.636V21.636Z" fill="white"/>
<path d="M8.93744 7.50458L11.3534 8.89929C11.407 8.9302 11.4507 8.90537 11.4507 8.84333C11.4507 8.78087 11.407 8.70489 11.3534 8.6744L8.93744 7.27969C8.88368 7.24825 8.84009 7.27319 8.84009 7.33607C8.84009 7.39811 8.88368 7.47356 8.93744 7.50458V7.50458Z" fill="#A8A9AC"/>
<path d="M16.8286 12.0562L17.9844 12.7229C18.0381 12.754 18.0813 12.7282 18.0813 12.6661C18.0813 12.6046 18.0381 12.5287 17.9844 12.4981L16.8286 11.8304C16.7749 11.7999 16.7317 11.8247 16.7317 11.8864C16.7317 11.9488 16.7749 12.0243 16.8286 12.0562Z" fill="#A8A9AC"/>
<path d="M8.93744 8.32783L12.6319 10.4609C12.6855 10.4918 12.7292 10.4662 12.7292 10.4041C12.7292 10.3421 12.6855 10.2665 12.6319 10.2351L8.93744 8.1021C8.88368 8.07108 8.84009 8.09644 8.84009 8.1589C8.84009 8.22094 8.88368 8.29691 8.93744 8.32783V8.32783Z" fill="#A8A9AC"/>
<path d="M17.9844 13.3208L16.8286 12.6537C16.7749 12.6222 16.7317 12.6475 16.7317 12.7091C16.7317 12.772 16.7749 12.848 16.8286 12.879L17.9844 13.5461C18.0381 13.5763 18.0813 13.5509 18.0813 13.4889C18.0813 13.4278 18.0381 13.3518 17.9844 13.3208V13.3208Z" fill="#A8A9AC"/>
<path d="M13.6946 11.6722L8.93744 8.9252C8.88368 8.8947 8.84009 8.91912 8.84009 8.98158C8.84009 9.04362 8.88368 9.11959 8.93744 9.15103L13.6946 11.8979C13.7492 11.9281 13.7925 11.9036 13.7925 11.8407C13.7925 11.7787 13.7492 11.7032 13.6946 11.6722V11.6722Z" fill="#A8A9AC"/>
<path d="M17.9844 14.143L16.8286 13.4763C16.7749 13.4457 16.7317 13.4701 16.7317 13.5326C16.7317 13.5946 16.7749 13.6702 16.8286 13.702L17.9844 14.3691C18.0381 14.3993 18.0813 14.3744 18.0813 14.3124C18.0813 14.2504 18.0381 14.1753 17.9844 14.143V14.143Z" fill="#A8A9AC"/>
<path d="M8.93744 9.97366L11.9564 11.7163C12.01 11.7473 12.0537 11.7228 12.0537 11.6599C12.0537 11.5974 12.01 11.5224 11.9564 11.4914L8.93744 9.74835C8.88368 9.71775 8.84009 9.74175 8.84009 9.8042C8.84009 9.86624 8.88368 9.94264 8.93744 9.97366V9.97366Z" fill="#A8A9AC"/>
<path d="M17.9844 14.9661L16.8286 14.2994C16.7749 14.268 16.7317 14.2932 16.7317 14.3557C16.7317 14.4173 16.7749 14.4929 16.8286 14.5247L17.9844 15.1918C18.0381 15.2224 18.0813 15.1971 18.0813 15.1351C18.0813 15.0731 18.0381 14.9976 17.9844 14.9661V14.9661Z" fill="#A8A9AC"/>
<path d="M8.93744 10.7957L11.3534 12.1917C11.407 12.2219 11.4507 12.1974 11.4507 12.135C11.4507 12.0721 11.407 11.9978 11.3534 11.9655L8.93744 10.5709C8.88368 10.5399 8.84009 10.5648 8.84009 10.6276C8.84009 10.6897 8.88368 10.7648 8.93744 10.7957V10.7957Z" fill="#A8A9AC"/>
<path d="M17.9844 15.789L16.8286 15.1223C16.7749 15.0908 16.7317 15.1157 16.7317 15.1777C16.7317 15.2402 16.7749 15.3157 16.8286 15.3472L17.9844 16.0143C18.0381 16.0449 18.0813 16.02 18.0813 15.958C18.0813 15.8955 18.0381 15.82 17.9844 15.789Z" fill="#A8A9AC"/>
<path d="M8.93744 11.6191L12.8432 13.8739C12.8969 13.9045 12.9406 13.8801 12.9406 13.818C12.9406 13.7556 12.8969 13.68 12.8432 13.6486L8.93744 11.3934C8.88368 11.3632 8.84009 11.3882 8.84009 11.4497C8.84009 11.5121 8.88368 11.5877 8.93744 11.6191V11.6191Z" fill="#A8A9AC"/>
<path d="M17.9844 16.6117L16.8286 15.9446C16.7749 15.914 16.7317 15.9397 16.7317 16.0008C16.7317 16.0633 16.7749 16.1388 16.8286 16.1703L17.9844 16.8375C18.0381 16.868 18.0813 16.8427 18.0813 16.7807C18.0813 16.7187 18.0381 16.6431 17.9844 16.6117Z" fill="#A8A9AC"/>
<path d="M8.93744 12.4418L11.9707 14.1936C12.0245 14.2242 12.0682 14.1988 12.0682 14.1373C12.0682 14.074 12.0245 13.9993 11.9707 13.9678L8.93744 12.2169C8.88368 12.1859 8.84009 12.2109 8.84009 12.2728C8.84009 12.3348 8.88368 12.4117 8.93744 12.4418V12.4418Z" fill="#A8A9AC"/>
<path d="M17.9844 17.4344L16.8286 16.7677C16.7749 16.7371 16.7317 16.762 16.7317 16.824C16.7317 16.886 16.7749 16.9611 16.8286 16.993L17.9844 17.6602C18.0381 17.6911 18.0813 17.6659 18.0813 17.6034C18.0813 17.5418 18.0381 17.4664 17.9844 17.4344Z" fill="#A8A9AC"/>
<path d="M12.8584 15.3033L8.93744 13.0397C8.88368 13.0087 8.84009 13.0336 8.84009 13.0956C8.84009 13.1576 8.88368 13.2336 8.93744 13.2646L12.8584 15.529C12.9126 15.5592 12.9567 15.5346 12.9567 15.4722C12.9567 15.4098 12.9126 15.3351 12.8584 15.3033Z" fill="#A8A9AC"/>
<path d="M17.9844 18.2578L16.8286 17.5914C16.7749 17.56 16.7317 17.5853 16.7317 17.6468C16.7317 17.7085 16.7749 17.7849 16.8286 17.8159L17.9844 18.4835C18.0381 18.514 18.0813 18.4883 18.0813 18.4263C18.0813 18.3643 18.0381 18.2887 17.9844 18.2578Z" fill="#A8A9AC"/>
<path d="M8.93744 14.0871L10.8145 15.1708C10.8683 15.2018 10.9115 15.1765 10.9115 15.1145C10.9115 15.0525 10.8683 14.9769 10.8145 14.946L8.93744 13.8626C8.88368 13.8312 8.84009 13.8566 8.84009 13.9185C8.84009 13.9801 8.88368 14.0569 8.93744 14.0871V14.0871Z" fill="#A8A9AC"/>
<path d="M17.9844 19.0803L16.8286 18.4139C16.7749 18.3825 16.7317 18.4078 16.7317 18.4699C16.7317 18.5318 16.7749 18.6078 16.8286 18.6388L17.9844 19.3064C18.0381 19.3365 18.0813 19.3113 18.0813 19.2501C18.0813 19.1872 18.0381 19.1121 17.9844 19.0803V19.0803Z" fill="#A8A9AC"/>
<path d="M11.3534 16.0799L8.93744 14.6857C8.88368 14.6543 8.84009 14.6792 8.84009 14.7407C8.84009 14.8036 8.88368 14.8796 8.93744 14.9102L11.3534 16.3048C11.407 16.3362 11.4507 16.3105 11.4507 16.2489C11.4507 16.1865 11.407 16.1109 11.3534 16.0799Z" fill="#A8A9AC"/>
<path d="M17.9844 19.903L16.8286 19.2358C16.7749 19.2048 16.7317 19.2306 16.7317 19.2922C16.7317 19.3541 16.7749 19.4301 16.8286 19.4616L17.9844 20.1284C18.0381 20.1598 18.0813 20.134 18.0813 20.072C18.0813 20.01 18.0381 19.9345 17.9844 19.903V19.903Z" fill="#A8A9AC"/>
<path d="M11.3534 16.8944L8.93744 15.5002C8.88368 15.4687 8.84009 15.4937 8.84009 15.5556C8.84009 15.6181 8.88368 15.694 8.93744 15.7246L11.3534 17.1197C11.407 17.1507 11.4507 17.1249 11.4507 17.0634C11.4507 17.0009 11.407 16.9254 11.3534 16.8944Z" fill="#A8A9AC"/>
<path d="M17.9844 20.7176L16.8286 20.0508C16.7749 20.0193 16.7317 20.0451 16.7317 20.1072C16.7317 20.1687 16.7749 20.2446 16.8286 20.2761L17.9844 20.9433C18.0381 20.9743 18.0813 20.9486 18.0813 20.8869C18.0813 20.8245 18.0381 20.749 17.9844 20.7176V20.7176Z" fill="#A8A9AC"/>
<path d="M11.3534 17.7338L8.93744 16.3395C8.88368 16.3081 8.84009 16.333 8.84009 16.3951C8.84009 16.4574 8.88368 16.5334 8.93744 16.564L11.3534 17.9591C11.407 17.99 11.4507 17.9644 11.4507 17.9027C11.4507 17.8403 11.407 17.7647 11.3534 17.7338V17.7338Z" fill="#A8A9AC"/>
<path d="M17.9844 21.5566L16.8286 20.8894C16.7749 20.8584 16.7317 20.8841 16.7317 20.9458C16.7317 21.0077 16.7749 21.0837 16.8286 21.1151L17.9844 21.7819C18.0381 21.8134 18.0813 21.7876 18.0813 21.7261C18.0813 21.6636 18.0381 21.588 17.9844 21.5566V21.5566Z" fill="#A8A9AC"/>
<path d="M8.77515 5.89777C8.77515 5.89777 9.23907 4.70133 9.22807 5.32423C9.21706 5.94713 9.16446 6.18313 9.21392 6.0799" stroke="#A8A9AC" stroke-width="0.3" stroke-miterlimit="1.5" stroke-linecap="round" stroke-linejoin="round"/>
<path d="M12.4119 7.9892C12.4119 7.9892 12.8759 6.79276 12.8648 7.41566C12.8538 8.03856 12.8012 8.27456 12.8506 8.17133" stroke="#A8A9AC" stroke-width="0.3" stroke-miterlimit="1.5" stroke-linecap="round" stroke-linejoin="round"/>
<path d="M9.21387 6.07997C9.21387 6.07997 9.643 4.93373 9.632 5.55663C9.62099 6.17953 9.56839 6.41552 9.61785 6.3123" stroke="#A8A9AC" stroke-width="0.3" stroke-miterlimit="1.5" stroke-linecap="round" stroke-linejoin="round"/>
<path d="M12.8503 8.1714C12.8503 8.1714 13.2796 7.02516 13.2685 7.64806C13.2575 8.27096 13.2049 8.50695 13.2543 8.40373" stroke="#A8A9AC" stroke-width="0.3" stroke-miterlimit="1.5" stroke-linecap="round" stroke-linejoin="round"/>
<path d="M10.8298 7.00917C10.8298 7.00917 11.2591 5.86293 11.2481 6.48583C11.237 7.10873 11.1844 7.34472 11.2338 7.2415" stroke="#A8A9AC" stroke-width="0.3" stroke-miterlimit="1.5" stroke-linecap="round" stroke-linejoin="round"/>
<path d="M14.4666 9.1006C14.4666 9.1006 14.8957 7.95436 14.8847 8.57726C14.8736 9.20016 14.8211 9.43615 14.8705 9.33293" stroke="#A8A9AC" stroke-width="0.3" stroke-miterlimit="1.5" stroke-linecap="round" stroke-linejoin="round"/>
<path d="M10.0217 6.54457C10.0217 6.54457 10.4509 5.39833 10.4399 6.02123C10.4287 6.64413 10.3762 6.88012 10.4257 6.7769" stroke="#A8A9AC" stroke-width="0.3" stroke-miterlimit="1.5" stroke-linecap="round" stroke-linejoin="round"/>
<path d="M13.6584 8.636C13.6584 8.636 14.0877 7.48976 14.0766 8.11266C14.0656 8.73556 14.013 8.97155 14.0624 8.86833" stroke="#A8A9AC" stroke-width="0.3" stroke-miterlimit="1.5" stroke-linecap="round" stroke-linejoin="round"/>
<path d="M11.6377 7.47389C11.6377 7.47389 12.0669 6.32765 12.0558 6.95055C12.0448 7.57345 11.9922 7.80945 12.0417 7.70622" stroke="#A8A9AC" stroke-width="0.3" stroke-miterlimit="1.5" stroke-linecap="round" stroke-linejoin="round"/>
<path d="M15.2742 9.56545C15.2742 9.56545 15.7033 8.41921 15.6923 9.0421C15.6812 9.665 15.6287 9.901 15.6782 9.79778" stroke="#A8A9AC" stroke-width="0.3" stroke-miterlimit="1.5" stroke-linecap="round" stroke-linejoin="round"/>
<path d="M9.61792 6.31227C9.61792 6.31227 10.0471 5.16603 10.036 5.78893C10.025 6.41183 9.97244 6.64782 10.0219 6.5446" stroke="#A8A9AC" stroke-width="0.3" stroke-miterlimit="1.5" stroke-linecap="round" stroke-linejoin="round"/>
<path d="M13.2542 8.4037C13.2542 8.4037 13.6834 7.25746 13.6723 7.88036C13.6613 8.50326 13.6087 8.73925 13.6581 8.63603" stroke="#A8A9AC" stroke-width="0.3" stroke-miterlimit="1.5" stroke-linecap="round" stroke-linejoin="round"/>
<path d="M11.2336 7.24147C11.2336 7.24147 11.6629 6.09523 11.6518 6.71813C11.6408 7.34103 11.5882 7.57702 11.6376 7.4738" stroke="#A8A9AC" stroke-width="0.3" stroke-miterlimit="1.5" stroke-linecap="round" stroke-linejoin="round"/>
<path d="M14.8704 9.3329C14.8704 9.3329 15.2995 8.18666 15.2885 8.80956C15.2774 9.43246 15.2249 9.66845 15.2743 9.56523" stroke="#A8A9AC" stroke-width="0.3" stroke-miterlimit="1.5" stroke-linecap="round" stroke-linejoin="round"/>
<path d="M10.426 6.77687C10.426 6.77687 10.8552 5.63063 10.8442 6.25353C10.833 6.87643 10.7805 7.11242 10.83 7.0092" stroke="#A8A9AC" stroke-width="0.3" stroke-miterlimit="1.5" stroke-linecap="round" stroke-linejoin="round"/>
<path d="M14.0623 8.8683C14.0623 8.8683 14.4915 7.72206 14.4804 8.34496C14.4694 8.96786 14.4168 9.20385 14.4662 9.10063" stroke="#A8A9AC" stroke-width="0.3" stroke-miterlimit="1.5" stroke-linecap="round" stroke-linejoin="round"/>
<path d="M12.0415 7.70619C12.0415 7.70619 12.4707 6.55995 12.4596 7.18285C12.4486 7.80575 12.396 8.04174 12.4455 7.93852" stroke="#A8A9AC" stroke-width="0.3" stroke-miterlimit="1.5" stroke-linecap="round" stroke-linejoin="round"/>
<path d="M16.9409 26.9981V12.184C16.9409 10.9488 17.8106 9.44189 18.88 8.82455C19.2189 8.62932 19.552 8.53899 19.8445 8.56382L8.47127 2.0015C8.17879 1.9775 7.84565 2.06699 7.50674 2.26222C6.43742 2.88051 5.56763 4.38651 5.56763 5.6213V20.4414C5.56763 26.9679 7.9501 25.403 8.95225 28.6468L20.3251 35.2039C19.3229 31.9597 16.9409 33.525 16.9409 26.9981Z" fill="#D2DEEC"/>
<path d="M16.1742 26.83V12.016C16.1742 10.7807 17.044 9.2738 18.1134 8.65646C18.4523 8.46123 18.7854 8.37089 19.0779 8.39573L7.70467 1.8334C7.41219 1.80941 7.07904 1.8989 6.74014 2.09413C5.67082 2.71242 4.80103 4.21842 4.80103 5.45321V20.2733C4.80103 26.7998 7.9086 25.8964 8.91074 29.1402L20.2836 35.6973C19.2814 32.4531 16.1742 33.3569 16.1742 26.83Z" fill="#EBF4FF"/>
<path d="M7.03243 26.4979L18.4284 33.0772C17.4236 32.1144 16.4053 31.024 16.2084 27.9549L4.83521 21.3882C5.02949 24.4408 6.03426 25.539 7.03243 26.4979V26.4979Z" fill="#D2DEEC"/>
<path d="M15.0394 24.5869L11.9654 22.8124C11.5798 22.5893 11.2659 22.77 11.2659 23.2163C11.2659 23.6634 11.5798 24.2049 11.9663 24.4284L15.0394 26.2033C15.4258 26.4265 15.7393 26.2458 15.7393 25.799C15.7393 25.3532 15.4258 24.8101 15.0394 24.5869V24.5869Z" fill="#191919"/>
<path d="M12.9099 10.418V11.4502L16.1743 13.2247V12.2986L12.9099 10.418V10.418Z" fill="#BADAFF"/>
<path d="M5.47821 7.15982V6.12718L4.80103 5.73682V6.76862L5.47821 7.15982Z" fill="#BADAFF"/>
<path d="M15.7741 23.953L5.10767 17.7985V7.80249L15.7741 13.9556V23.953V23.953Z" fill="#E7E7E8"/>
<path d="M15.6359 14.8316L5.22681 8.82651V8.00293L15.6354 14.0081L15.6359 14.8316V14.8316Z" fill="white"/>
<path d="M15.6359 16.4778L5.22681 10.4722V9.64917L15.6354 15.6534L15.6359 16.4778Z" fill="white"/>
<path d="M15.6359 18.1232L5.22681 12.1181V11.2942L15.6354 17.2989L15.6359 18.1232V18.1232Z" fill="white"/>
<path d="M15.6359 19.7688L5.22681 13.7637V12.9402L15.6354 18.9453L15.6359 19.7688Z" fill="white"/>
<path d="M15.6359 23.0432L5.22681 17.0385V16.2146L15.6354 22.2193L15.6359 23.0432V23.0432Z" fill="white"/>
<path d="M5.89252 8.91181L8.30845 10.3065C8.3621 10.3374 8.4058 10.3126 8.4058 10.2506C8.4058 10.1881 8.3621 10.1121 8.30845 10.0816L5.89252 8.68692C5.83876 8.65548 5.79517 8.68042 5.79517 8.7433C5.79517 8.80534 5.83876 8.88079 5.89252 8.91181V8.91181Z" fill="#A8A9AC"/>
<path d="M13.7837 13.4635L14.9395 14.1302C14.9931 14.1612 15.0364 14.1354 15.0364 14.0734C15.0364 14.0119 14.9931 13.9359 14.9395 13.9053L13.7837 13.2376C13.7299 13.2071 13.6868 13.232 13.6868 13.2936C13.6868 13.356 13.7299 13.4315 13.7837 13.4635Z" fill="#A8A9AC"/>
<path d="M5.89252 9.73505L9.58694 11.8681C9.64059 11.8991 9.68429 11.8734 9.68429 11.8113C9.68429 11.7493 9.64059 11.6737 9.58694 11.6423L5.89252 9.50933C5.83876 9.47831 5.79517 9.50367 5.79517 9.56612C5.79517 9.62816 5.83876 9.70414 5.89252 9.73505V9.73505Z" fill="#A8A9AC"/>
<path d="M14.9395 14.728L13.7837 14.0609C13.7299 14.0295 13.6868 14.0547 13.6868 14.1163C13.6868 14.1792 13.7299 14.2552 13.7837 14.2862L14.9395 14.9533C14.9931 14.9835 15.0364 14.9582 15.0364 14.8961C15.0364 14.835 14.9931 14.759 14.9395 14.728V14.728Z" fill="#A8A9AC"/>
<path d="M10.6497 13.0794L5.89252 10.3324C5.83876 10.3019 5.79517 10.3263 5.79517 10.3888C5.79517 10.4508 5.83876 10.5268 5.89252 10.5583L10.6497 13.3051C10.7043 13.3353 10.7475 13.3108 10.7475 13.2479C10.7475 13.186 10.7043 13.1104 10.6497 13.0794V13.0794Z" fill="#A8A9AC"/>
<path d="M14.9395 15.5502L13.7837 14.8835C13.7299 14.8529 13.6868 14.8773 13.6868 14.9398C13.6868 15.0018 13.7299 15.0774 13.7837 15.1092L14.9395 15.7764C14.9931 15.8065 15.0364 15.7816 15.0364 15.7197C15.0364 15.6576 14.9931 15.5825 14.9395 15.5502V15.5502Z" fill="#A8A9AC"/>
<path d="M5.89252 11.3809L8.91143 13.1235C8.96509 13.1545 9.00879 13.13 9.00879 13.0671C9.00879 13.0047 8.96509 12.9296 8.91143 12.8986L5.89252 11.1556C5.83876 11.125 5.79517 11.149 5.79517 11.2114C5.79517 11.2735 5.83876 11.3499 5.89252 11.3809V11.3809Z" fill="#A8A9AC"/>
<path d="M14.9395 16.3733L13.7837 15.7066C13.7299 15.6752 13.6868 15.7005 13.6868 15.7629C13.6868 15.8245 13.7299 15.9001 13.7837 15.9319L14.9395 16.5991C14.9931 16.6297 15.0364 16.6043 15.0364 16.5424C15.0364 16.4803 14.9931 16.4048 14.9395 16.3733V16.3733Z" fill="#A8A9AC"/>
<path d="M5.89252 12.203L8.30845 13.5989C8.3621 13.6291 8.4058 13.6046 8.4058 13.5422C8.4058 13.4794 8.3621 13.4051 8.30845 13.3728L5.89252 11.9782C5.83876 11.9472 5.79517 11.972 5.79517 12.0349C5.79517 12.0969 5.83876 12.172 5.89252 12.203V12.203Z" fill="#A8A9AC"/>
<path d="M14.9395 17.1962L13.7837 16.5295C13.7299 16.4981 13.6868 16.5229 13.6868 16.5849C13.6868 16.6474 13.7299 16.7229 13.7837 16.7544L14.9395 17.4215C14.9931 17.4521 15.0364 17.4273 15.0364 17.3652C15.0364 17.3028 14.9931 17.2272 14.9395 17.1962Z" fill="#A8A9AC"/>
<path d="M5.89252 13.0264L9.79831 15.2811C9.85197 15.3117 9.89566 15.2873 9.89566 15.2253C9.89566 15.1628 9.85197 15.0873 9.79831 15.0558L5.89252 12.8006C5.83876 12.7705 5.79517 12.7954 5.79517 12.8569C5.79517 12.9194 5.83876 12.9949 5.89252 13.0264V13.0264Z" fill="#A8A9AC"/>
<path d="M14.9395 18.0189L13.7837 17.3518C13.7299 17.3212 13.6868 17.347 13.6868 17.4081C13.6868 17.4705 13.7299 17.5461 13.7837 17.5775L14.9395 18.2447C14.9931 18.2752 15.0364 18.25 15.0364 18.1879C15.0364 18.1259 14.9931 18.0503 14.9395 18.0189Z" fill="#A8A9AC"/>
<path d="M5.89252 13.8491L8.92579 15.6008C8.97955 15.6314 9.02325 15.606 9.02325 15.5445C9.02325 15.4812 8.97955 15.4065 8.92579 15.3751L5.89252 13.6242C5.83876 13.5932 5.79517 13.6181 5.79517 13.68C5.79517 13.7421 5.83876 13.8189 5.89252 13.8491V13.8491Z" fill="#A8A9AC"/>
<path d="M14.9395 18.8416L13.7837 18.1749C13.7299 18.1443 13.6868 18.1693 13.6868 18.2312C13.6868 18.2932 13.7299 18.3684 13.7837 18.4002L14.9395 19.0675C14.9931 19.0984 15.0364 19.0731 15.0364 19.0107C15.0364 18.949 14.9931 18.8736 14.9395 18.8416Z" fill="#A8A9AC"/>
<path d="M9.8135 16.7105L5.89252 14.4469C5.83876 14.4159 5.79517 14.4408 5.79517 14.5028C5.79517 14.5648 5.83876 14.6408 5.89252 14.6718L9.8135 16.9362C9.86768 16.9664 9.9118 16.9419 9.9118 16.8794C9.9118 16.8171 9.86768 16.7423 9.8135 16.7105Z" fill="#A8A9AC"/>
<path d="M14.9395 19.665L13.7837 18.9986C13.7299 18.9672 13.6868 18.9926 13.6868 19.0541C13.6868 19.1157 13.7299 19.1921 13.7837 19.2231L14.9395 19.8907C14.9931 19.9212 15.0364 19.8956 15.0364 19.8335C15.0364 19.7715 14.9931 19.6959 14.9395 19.665Z" fill="#A8A9AC"/>
<path d="M5.89252 15.4943L7.76959 16.578C7.82335 16.609 7.86653 16.5838 7.86653 16.5217C7.86653 16.4597 7.82335 16.3841 7.76959 16.3532L5.89252 15.2699C5.83876 15.2384 5.79517 15.2638 5.79517 15.3257C5.79517 15.3873 5.83876 15.4642 5.89252 15.4943V15.4943Z" fill="#A8A9AC"/>
<path d="M14.9395 20.4875L13.7837 19.8211C13.7299 19.7897 13.6868 19.8151 13.6868 19.8771C13.6868 19.939 13.7299 20.015 13.7837 20.046L14.9395 20.7137C14.9931 20.7437 15.0364 20.7185 15.0364 20.6573C15.0364 20.5944 14.9931 20.5194 14.9395 20.4875V20.4875Z" fill="#A8A9AC"/>
<path d="M8.30845 17.4871L5.89252 16.093C5.83876 16.0615 5.79517 16.0865 5.79517 16.148C5.79517 16.2109 5.83876 16.2868 5.89252 16.3174L8.30845 17.712C8.3621 17.7435 8.4058 17.7177 8.4058 17.6562C8.4058 17.5937 8.3621 17.5182 8.30845 17.4871Z" fill="#A8A9AC"/>
<path d="M14.9395 21.3103L13.7837 20.6431C13.7299 20.612 13.6868 20.6378 13.6868 20.6994C13.6868 20.7614 13.7299 20.8373 13.7837 20.8688L14.9395 21.5356C14.9931 21.567 15.0364 21.5412 15.0364 21.4792C15.0364 21.4173 14.9931 21.3417 14.9395 21.3103V21.3103Z" fill="#A8A9AC"/>
<path d="M8.30845 18.3016L5.89252 16.9074C5.83876 16.876 5.79517 16.9009 5.79517 16.9628C5.79517 17.0253 5.83876 17.1013 5.89252 17.1319L8.30845 18.5269C8.3621 18.5579 8.4058 18.5321 8.4058 18.4706C8.4058 18.4082 8.3621 18.3326 8.30845 18.3016Z" fill="#A8A9AC"/>
<path d="M14.9395 22.1248L13.7837 21.458C13.7299 21.4266 13.6868 21.4523 13.6868 21.5144C13.6868 21.5759 13.7299 21.6519 13.7837 21.6833L14.9395 22.3505C14.9931 22.3816 15.0364 22.3558 15.0364 22.2942C15.0364 22.2317 14.9931 22.1563 14.9395 22.1248V22.1248Z" fill="#A8A9AC"/>
<path d="M8.30845 19.141L5.89252 17.7468C5.83876 17.7153 5.79517 17.7403 5.79517 17.8023C5.79517 17.8646 5.83876 17.9406 5.89252 17.9712L8.30845 19.3664C8.3621 19.3973 8.4058 19.3716 8.4058 19.31C8.4058 19.2475 8.3621 19.172 8.30845 19.141V19.141Z" fill="#A8A9AC"/>
<path d="M14.9395 22.9638L13.7837 22.2966C13.7299 22.2656 13.6868 22.2914 13.6868 22.353C13.6868 22.4149 13.7299 22.4909 13.7837 22.5223L14.9395 23.1891C14.9931 23.2206 15.0364 23.1948 15.0364 23.1333C15.0364 23.0708 14.9931 22.9953 14.9395 22.9638V22.9638Z" fill="#A8A9AC"/>
<path d="M5.73022 7.305C5.73022 7.305 6.19415 6.10856 6.18315 6.73146C6.17214 7.35435 6.11954 7.59035 6.169 7.48713" stroke="#A8A9AC" stroke-width="0.3" stroke-miterlimit="1.5" stroke-linecap="round" stroke-linejoin="round"/>
<path d="M9.36694 9.39643C9.36694 9.39643 9.83097 8.19999 9.81986 8.82289C9.80886 9.44578 9.75625 9.68178 9.80572 9.57856" stroke="#A8A9AC" stroke-width="0.3" stroke-miterlimit="1.5" stroke-linecap="round" stroke-linejoin="round"/>
<path d="M6.16895 7.4872C6.16895 7.4872 6.59808 6.34096 6.58707 6.96386C6.57607 7.58675 6.52346 7.82275 6.57293 7.71953" stroke="#A8A9AC" stroke-width="0.3" stroke-miterlimit="1.5" stroke-linecap="round" stroke-linejoin="round"/>
<path d="M9.80542 9.57863C9.80542 9.57863 10.2347 8.43239 10.2236 9.05529C10.2125 9.67818 10.1599 9.91418 10.2094 9.81096" stroke="#A8A9AC" stroke-width="0.3" stroke-miterlimit="1.5" stroke-linecap="round" stroke-linejoin="round"/>
<path d="M7.78491 8.4164C7.78491 8.4164 8.21415 7.27016 8.20315 7.89306C8.19204 8.51595 8.13943 8.75195 8.18889 8.64873" stroke="#A8A9AC" stroke-width="0.3" stroke-miterlimit="1.5" stroke-linecap="round" stroke-linejoin="round"/>
<path d="M11.4216 10.5078C11.4216 10.5078 11.8508 9.36159 11.8398 9.98449C11.8287 10.6074 11.7762 10.8434 11.8256 10.7402" stroke="#A8A9AC" stroke-width="0.3" stroke-miterlimit="1.5" stroke-linecap="round" stroke-linejoin="round"/>
<path d="M6.97681 7.9518C6.97681 7.9518 7.40594 6.80556 7.39494 7.42846C7.38383 8.05135 7.33133 8.28735 7.38079 8.18413" stroke="#A8A9AC" stroke-width="0.3" stroke-miterlimit="1.5" stroke-linecap="round" stroke-linejoin="round"/>
<path d="M10.6135 10.0432C10.6135 10.0432 11.0428 8.89699 11.0317 9.51989C11.0207 10.1428 10.968 10.3788 11.0175 10.2756" stroke="#A8A9AC" stroke-width="0.3" stroke-miterlimit="1.5" stroke-linecap="round" stroke-linejoin="round"/>
<path d="M8.59277 8.88112C8.59277 8.88112 9.02201 7.73488 9.0109 8.35778C8.9999 8.98067 8.94729 9.21667 8.99675 9.11345" stroke="#A8A9AC" stroke-width="0.3" stroke-miterlimit="1.5" stroke-linecap="round" stroke-linejoin="round"/>
<path d="M12.2292 10.9727C12.2292 10.9727 12.6584 9.82643 12.6474 10.4493C12.6363 11.0722 12.5838 11.3082 12.6332 11.205" stroke="#A8A9AC" stroke-width="0.3" stroke-miterlimit="1.5" stroke-linecap="round" stroke-linejoin="round"/>
<path d="M6.573 7.7195C6.573 7.7195 7.00213 6.57326 6.99113 7.19616C6.98012 7.81905 6.92752 8.05505 6.97698 7.95183" stroke="#A8A9AC" stroke-width="0.3" stroke-miterlimit="1.5" stroke-linecap="round" stroke-linejoin="round"/>
<path d="M10.2092 9.81093C10.2092 9.81093 10.6385 8.66469 10.6274 9.28759C10.6164 9.91048 10.5637 10.1465 10.6132 10.0433" stroke="#A8A9AC" stroke-width="0.3" stroke-miterlimit="1.5" stroke-linecap="round" stroke-linejoin="round"/>
<path d="M8.18872 8.6487C8.18872 8.6487 8.61796 7.50246 8.60685 8.12536C8.59585 8.74825 8.54324 8.98425 8.5927 8.88103" stroke="#A8A9AC" stroke-width="0.3" stroke-miterlimit="1.5" stroke-linecap="round" stroke-linejoin="round"/>
<path d="M11.8254 10.7401C11.8254 10.7401 12.2546 9.59389 12.2436 10.2168C12.2325 10.8397 12.18 11.0757 12.2294 10.9725" stroke="#A8A9AC" stroke-width="0.3" stroke-miterlimit="1.5" stroke-linecap="round" stroke-linejoin="round"/>
<path d="M7.3811 8.1841C7.3811 8.1841 7.81024 7.03786 7.79923 7.66076C7.78812 8.28365 7.73562 8.51965 7.78508 8.41643" stroke="#A8A9AC" stroke-width="0.3" stroke-miterlimit="1.5" stroke-linecap="round" stroke-linejoin="round"/>
<path d="M11.0173 10.2755C11.0173 10.2755 11.4466 9.12929 11.4355 9.75219C11.4245 10.3751 11.3719 10.6111 11.4213 10.5079" stroke="#A8A9AC" stroke-width="0.3" stroke-miterlimit="1.5" stroke-linecap="round" stroke-linejoin="round"/>
<path d="M8.99658 9.11342C8.99658 9.11342 9.42582 7.96718 9.41471 8.59008C9.40371 9.21297 9.3511 9.44897 9.40057 9.34575" stroke="#A8A9AC" stroke-width="0.3" stroke-miterlimit="1.5" stroke-linecap="round" stroke-linejoin="round"/>
</g>
</svg>
