<svg width="34" height="38" viewBox="0 0 34 38" fill="none" xmlns="http://www.w3.org/2000/svg">
<circle cx="16.7618" cy="20.8996" r="16.4999" fill="#B41D1D"/>
<circle cx="16.762" cy="20.899" r="14.6564" fill="#FDCBCB"/>
<mask id="mask0_53_5" style="mask-type:alpha" maskUnits="userSpaceOnUse" x="2" y="0" width="30" height="36">
<path fill-rule="evenodd" clip-rule="evenodd" d="M4.05541 11.9471C3.73582 9.08638 3.37356 5.84369 4.02817 3.98261C4.90457 1.49099 7.19231 0.36449 8.16823 0.285259C8.94342 0.222325 10.9322 0.244977 12.7823 0.384149C12.9302 0.328758 13.0695 0.295594 13.1968 0.285259C13.5141 0.259499 13.9219 0.36128 14.3778 0.542262C15.2585 0.655863 15.9827 0.805562 16.3427 0.996113C16.644 1.15562 17.0777 1.65467 17.5523 2.32084C17.62 2.3641 17.6868 2.40685 17.7525 2.44894C18.2965 2.79716 18.7701 3.10027 19.0999 3.27489C19.2698 3.36484 19.5497 3.49469 19.8996 3.65705C21.5745 4.43423 24.8549 5.95634 25.3675 7.41239L25.6781 9.26649C29.1684 11.9455 31.4184 16.1599 31.4184 20.8998C31.4184 28.9943 24.8565 35.5562 16.762 35.5562C8.66753 35.5562 2.10565 28.9943 2.10565 20.8998C2.10565 18.1318 2.87296 15.5431 4.20646 13.3347C4.16054 12.8881 4.10857 12.4229 4.05541 11.9471Z" fill="#FAFCFE"/>
</mask>
<g mask="url(#mask0_53_5)">
<path d="M26.9661 12.7828L15.9906 6.44397C15.7037 6.27945 15.4522 6.27767 15.2732 6.39996V6.39472L14.2585 6.98849L14.5942 8.45257L15.3653 8.45299V29.3316C15.3653 29.9525 15.7994 30.7078 16.3377 31.0162L26.695 36.9959L26.6591 38.2041L27.6538 37.6225C27.8302 37.5225 27.9402 37.3033 27.9394 36.9937L27.9402 14.4656C27.9394 13.8451 27.5035 13.0919 26.9661 12.7828V12.7828Z" fill="#191919"/>
<path d="M25.9719 38.135L14.9959 31.7967C14.458 31.4871 14.0223 30.7331 14.0231 30.1116V7.58568C14.024 6.96436 14.4589 6.71285 14.9959 7.0242L25.9736 13.3612C26.5098 13.6712 26.9443 14.4257 26.9451 15.0466L26.9443 37.5726C26.9451 38.1939 26.5098 38.4446 25.9719 38.135Z" fill="#565656"/>
<path d="M14.3083 9.10034L14.427 9.16804L14.4292 28.014L26.6569 35.0824L26.6561 35.2203L14.31 28.083L14.3083 9.10034V9.10034Z" fill="#131315"/>
<path d="M14.4269 9.16821L26.656 16.2283L26.6569 35.0826L14.4291 28.0142L14.4269 9.16821V9.16821Z" fill="#BADAFF"/>
<path d="M22.6678 26.5173V11.7032C22.6678 10.468 23.5376 8.96106 24.607 8.34371C24.9459 8.14848 25.279 8.05815 25.5715 8.08299L14.1983 1.52066C13.9058 1.49666 13.5726 1.58616 13.2337 1.78139C12.1644 2.39968 11.2946 3.90567 11.2946 5.14047V19.9606C11.2946 26.4871 13.6771 24.9222 14.6792 28.166L26.052 34.723C25.0499 31.4788 22.6678 33.0442 22.6678 26.5173Z" fill="#D2DEEC"/>
<path d="M21.954 25.8576V11.0435C21.954 9.80833 22.8238 8.30139 23.8931 7.68405C24.232 7.48881 24.5651 7.39848 24.8576 7.42332L13.4844 0.860993C13.1919 0.836995 12.8588 0.926489 12.5199 1.12172C11.4505 1.74001 10.5807 3.24601 10.5807 4.4808V19.3009C10.5807 25.8274 13.6883 24.924 14.6905 28.1678L26.0633 34.7249C25.0611 31.4806 21.954 32.3845 21.954 25.8576Z" fill="#EBF4FF"/>
<path d="M12.8122 25.5252L24.2081 32.1045C23.2033 31.1418 22.1851 30.0514 21.9882 26.9823L10.6149 20.4155C10.8092 23.4682 11.814 24.5663 12.8122 25.5252V25.5252Z" fill="#D2DEEC"/>
<path d="M20.8191 23.6142L17.7451 21.8397C17.3596 21.6166 17.0456 21.7974 17.0456 22.2436C17.0456 22.6908 17.3596 23.2322 17.746 23.4558L20.8191 25.2307C21.2055 25.4539 21.5191 25.2731 21.5191 24.8264C21.5191 24.3806 21.2055 23.8374 20.8191 23.6142V23.6142Z" fill="#191919"/>
<path d="M18.6896 9.44531V10.4775L21.954 12.252V11.326L18.6896 9.44531V9.44531Z" fill="#BADAFF"/>
<path d="M11.2579 6.18741V5.15476L10.5807 4.7644V5.79621L11.2579 6.18741Z" fill="#BADAFF"/>
<path d="M21.5538 22.9806L10.8874 16.8261V6.83008L21.5538 12.9832V22.9806V22.9806Z" fill="#E7E7E8"/>
<path d="M21.4156 13.8592L11.0065 7.8541V7.03052L21.4151 13.0357L21.4156 13.8592V13.8592Z" fill="white"/>
<path d="M21.4156 15.5051L11.0065 9.49957V8.67651L21.4151 14.6807L21.4156 15.5051Z" fill="white"/>
<path d="M21.4156 17.1506L11.0065 11.1454V10.3215L21.4151 16.3262L21.4156 17.1506V17.1506Z" fill="white"/>
<path d="M21.4156 18.7961L11.0065 12.791V11.9675L21.4151 17.9727L21.4156 18.7961Z" fill="white"/>
<path d="M21.4156 20.4422L11.0065 14.4369V13.613L21.4151 19.6178L21.4156 20.4422Z" fill="white"/>
<path d="M21.4156 22.0705L11.0065 16.0658V15.2419L21.4151 21.2467L21.4156 22.0705V22.0705Z" fill="white"/>
<path d="M11.6722 7.93915L14.0882 9.33386C14.1418 9.36477 14.1855 9.33994 14.1855 9.2779C14.1855 9.21544 14.1418 9.13946 14.0882 9.10897L11.6722 7.71426C11.6185 7.68282 11.5749 7.70776 11.5749 7.77064C11.5749 7.83268 11.6185 7.90813 11.6722 7.93915V7.93915Z" fill="#A8A9AC"/>
<path d="M19.5634 12.4908L20.7192 13.1575C20.7729 13.1885 20.8161 13.1627 20.8161 13.1007C20.8161 13.0392 20.7729 12.9632 20.7192 12.9326L19.5634 12.265C19.5097 12.2345 19.4665 12.2593 19.4665 12.3209C19.4665 12.3834 19.5097 12.4588 19.5634 12.4908Z" fill="#A8A9AC"/>
<path d="M11.6722 8.7624L15.3667 10.8955C15.4203 10.9264 15.464 10.9007 15.464 10.8387C15.464 10.7766 15.4203 10.7011 15.3667 10.6697L11.6722 8.53667C11.6185 8.50565 11.5749 8.53101 11.5749 8.59347C11.5749 8.65551 11.6185 8.73148 11.6722 8.7624V8.7624Z" fill="#A8A9AC"/>
<path d="M20.7192 13.7554L19.5634 13.0883C19.5097 13.0568 19.4665 13.0821 19.4665 13.1437C19.4665 13.2066 19.5097 13.2825 19.5634 13.3136L20.7192 13.9807C20.7729 14.0109 20.8161 13.9855 20.8161 13.9235C20.8161 13.8624 20.7729 13.7864 20.7192 13.7554V13.7554Z" fill="#A8A9AC"/>
<path d="M16.4294 12.1067L11.6722 9.35977C11.6185 9.32927 11.5749 9.35369 11.5749 9.41615C11.5749 9.47819 11.6185 9.55416 11.6722 9.5856L16.4294 12.3325C16.484 12.3626 16.5273 12.3381 16.5273 12.2753C16.5273 12.2133 16.484 12.1378 16.4294 12.1067V12.1067Z" fill="#A8A9AC"/>
<path d="M20.7192 14.5776L19.5634 13.9109C19.5097 13.8803 19.4665 13.9047 19.4665 13.9671C19.4665 14.0292 19.5097 14.1047 19.5634 14.1366L20.7192 14.8037C20.7729 14.8339 20.8161 14.8089 20.8161 14.747C20.8161 14.685 20.7729 14.6098 20.7192 14.5776V14.5776Z" fill="#A8A9AC"/>
<path d="M11.6722 10.4082L14.6912 12.1509C14.7448 12.1819 14.7885 12.1574 14.7885 12.0945C14.7885 12.032 14.7448 11.957 14.6912 11.926L11.6722 10.1829C11.6185 10.1523 11.5749 10.1763 11.5749 10.2388C11.5749 10.3008 11.6185 10.3772 11.6722 10.4082V10.4082Z" fill="#A8A9AC"/>
<path d="M20.7192 15.4007L19.5634 14.734C19.5097 14.7025 19.4665 14.7278 19.4665 14.7903C19.4665 14.8519 19.5097 14.9274 19.5634 14.9593L20.7192 15.6264C20.7729 15.657 20.8161 15.6317 20.8161 15.5697C20.8161 15.5077 20.7729 15.4321 20.7192 15.4007V15.4007Z" fill="#A8A9AC"/>
<path d="M11.6722 11.2303L14.0882 12.6263C14.1418 12.6564 14.1855 12.6319 14.1855 12.5696C14.1855 12.5067 14.1418 12.4324 14.0882 12.4001L11.6722 11.0055C11.6185 10.9745 11.5749 10.9993 11.5749 11.0622C11.5749 11.1242 11.6185 11.1994 11.6722 11.2303V11.2303Z" fill="#A8A9AC"/>
<path d="M20.7192 16.2238L19.5634 15.5571C19.5097 15.5256 19.4665 15.5505 19.4665 15.6125C19.4665 15.675 19.5097 15.7505 19.5634 15.782L20.7192 16.4491C20.7729 16.4797 20.8161 16.4549 20.8161 16.3928C20.8161 16.3304 20.7729 16.2548 20.7192 16.2238Z" fill="#A8A9AC"/>
<path d="M11.6722 12.0537L15.578 14.3085C15.6317 14.3391 15.6754 14.3147 15.6754 14.2526C15.6754 14.1902 15.6317 14.1146 15.578 14.0832L11.6722 11.828C11.6185 11.7978 11.5749 11.8227 11.5749 11.8843C11.5749 11.9467 11.6185 12.0223 11.6722 12.0537V12.0537Z" fill="#A8A9AC"/>
<path d="M20.7192 17.0462L19.5634 16.3791C19.5097 16.3485 19.4665 16.3743 19.4665 16.4354C19.4665 16.4979 19.5097 16.5734 19.5634 16.6049L20.7192 17.2721C20.7729 17.3026 20.8161 17.2773 20.8161 17.2153C20.8161 17.1532 20.7729 17.0777 20.7192 17.0462Z" fill="#A8A9AC"/>
<path d="M11.6722 12.8764L14.7055 14.6281C14.7593 14.6587 14.803 14.6334 14.803 14.5719C14.803 14.5086 14.7593 14.4339 14.7055 14.4024L11.6722 12.6515C11.6185 12.6205 11.5749 12.6454 11.5749 12.7074C11.5749 12.7694 11.6185 12.8462 11.6722 12.8764V12.8764Z" fill="#A8A9AC"/>
<path d="M20.7192 17.869L19.5634 17.2023C19.5097 17.1717 19.4665 17.1966 19.4665 17.2585C19.4665 17.3206 19.5097 17.3957 19.5634 17.4276L20.7192 18.0948C20.7729 18.1257 20.8161 18.1005 20.8161 18.038C20.8161 17.9764 20.7729 17.9009 20.7192 17.869Z" fill="#A8A9AC"/>
<path d="M15.5932 15.7378L11.6722 13.4743C11.6185 13.4432 11.5749 13.4682 11.5749 13.5301C11.5749 13.5922 11.6185 13.6681 11.6722 13.6992L15.5932 15.9636C15.6474 15.9937 15.6915 15.9692 15.6915 15.9068C15.6915 15.8444 15.6474 15.7697 15.5932 15.7378Z" fill="#A8A9AC"/>
<path d="M20.7192 18.6924L19.5634 18.026C19.5097 17.9945 19.4665 18.0199 19.4665 18.0814C19.4665 18.143 19.5097 18.2194 19.5634 18.2504L20.7192 18.9181C20.7729 18.9486 20.8161 18.9229 20.8161 18.8609C20.8161 18.7988 20.7729 18.7233 20.7192 18.6924Z" fill="#A8A9AC"/>
<path d="M11.6722 14.5217L13.5493 15.6054C13.6031 15.6364 13.6463 15.6111 13.6463 15.5491C13.6463 15.487 13.6031 15.4115 13.5493 15.3806L11.6722 14.2972C11.6185 14.2658 11.5749 14.2911 11.5749 14.3531C11.5749 14.4147 11.6185 14.4915 11.6722 14.5217V14.5217Z" fill="#A8A9AC"/>
<path d="M20.7192 19.5149L19.5634 18.8485C19.5097 18.817 19.4665 18.8424 19.4665 18.9044C19.4665 18.9664 19.5097 19.0423 19.5634 19.0734L20.7192 19.741C20.7729 19.7711 20.8161 19.7458 20.8161 19.6846C20.8161 19.6218 20.7729 19.5467 20.7192 19.5149V19.5149Z" fill="#A8A9AC"/>
<path d="M14.0882 16.5145L11.6722 15.1203C11.6185 15.0889 11.5749 15.1138 11.5749 15.1753C11.5749 15.2382 11.6185 15.3142 11.6722 15.3448L14.0882 16.7394C14.1418 16.7708 14.1855 16.745 14.1855 16.6835C14.1855 16.6211 14.1418 16.5455 14.0882 16.5145Z" fill="#A8A9AC"/>
<path d="M20.7192 20.3376L19.5634 19.6704C19.5097 19.6394 19.4665 19.6652 19.4665 19.7268C19.4665 19.7887 19.5097 19.8647 19.5634 19.8961L20.7192 20.5629C20.7729 20.5944 20.8161 20.5686 20.8161 20.5065C20.8161 20.4446 20.7729 20.3691 20.7192 20.3376V20.3376Z" fill="#A8A9AC"/>
<path d="M14.0882 17.3289L11.6722 15.9347C11.6185 15.9033 11.5749 15.9282 11.5749 15.9902C11.5749 16.0526 11.6185 16.1286 11.6722 16.1592L14.0882 17.5542C14.1418 17.5853 14.1855 17.5595 14.1855 17.498C14.1855 17.4355 14.1418 17.3599 14.0882 17.3289Z" fill="#A8A9AC"/>
<path d="M20.7192 21.1522L19.5634 20.4854C19.5097 20.4539 19.4665 20.4797 19.4665 20.5417C19.4665 20.6032 19.5097 20.6792 19.5634 20.7107L20.7192 21.3779C20.7729 21.4089 20.8161 21.3831 20.8161 21.3215C20.8161 21.259 20.7729 21.1836 20.7192 21.1522V21.1522Z" fill="#A8A9AC"/>
<path d="M14.0882 18.1684L11.6722 16.7741C11.6185 16.7427 11.5749 16.7676 11.5749 16.8296C11.5749 16.892 11.6185 16.968 11.6722 16.9986L14.0882 18.3937C14.1418 18.4246 14.1855 18.3989 14.1855 18.3373C14.1855 18.2749 14.1418 18.1993 14.0882 18.1684V18.1684Z" fill="#A8A9AC"/>
<path d="M20.7192 21.9912L19.5634 21.324C19.5097 21.2929 19.4665 21.3187 19.4665 21.3803C19.4665 21.4423 19.5097 21.5182 19.5634 21.5497L20.7192 22.2165C20.7729 22.2479 20.8161 22.2221 20.8161 22.1606C20.8161 22.0982 20.7729 22.0226 20.7192 21.9912V21.9912Z" fill="#A8A9AC"/>
<path d="M11.5099 6.33258C11.5099 6.33258 11.9739 5.13615 11.9629 5.75904C11.9519 6.38194 11.8993 6.61794 11.9487 6.51472" stroke="#A8A9AC" stroke-width="0.3" stroke-miterlimit="1.5" stroke-linecap="round" stroke-linejoin="round"/>
<path d="M15.1467 8.42414C15.1467 8.42414 15.6107 7.2277 15.5996 7.8506C15.5886 8.47349 15.536 8.70949 15.5854 8.60627" stroke="#A8A9AC" stroke-width="0.3" stroke-miterlimit="1.5" stroke-linecap="round" stroke-linejoin="round"/>
<path d="M11.9484 6.51491C11.9484 6.51491 12.3776 5.36867 12.3666 5.99157C12.3556 6.61446 12.3029 6.85046 12.3524 6.74724" stroke="#A8A9AC" stroke-width="0.3" stroke-miterlimit="1.5" stroke-linecap="round" stroke-linejoin="round"/>
<path d="M15.5851 8.60622C15.5851 8.60622 16.0144 7.45998 16.0033 8.08287C15.9923 8.70577 15.9397 8.94177 15.9891 8.83855" stroke="#A8A9AC" stroke-width="0.3" stroke-miterlimit="1.5" stroke-linecap="round" stroke-linejoin="round"/>
<path d="M13.5646 7.44411C13.5646 7.44411 13.9939 6.29787 13.9829 6.92077C13.9718 7.54366 13.9192 7.77966 13.9686 7.67644" stroke="#A8A9AC" stroke-width="0.3" stroke-miterlimit="1.5" stroke-linecap="round" stroke-linejoin="round"/>
<path d="M17.2014 9.53542C17.2014 9.53542 17.6305 8.38918 17.6195 9.01207C17.6084 9.63497 17.5559 9.87097 17.6053 9.76775" stroke="#A8A9AC" stroke-width="0.3" stroke-miterlimit="1.5" stroke-linecap="round" stroke-linejoin="round"/>
<path d="M12.7565 6.97951C12.7565 6.97951 13.1857 5.83327 13.1747 6.45617C13.1636 7.07906 13.111 7.31506 13.1605 7.21184" stroke="#A8A9AC" stroke-width="0.3" stroke-miterlimit="1.5" stroke-linecap="round" stroke-linejoin="round"/>
<path d="M16.3932 9.07082C16.3932 9.07082 16.8225 7.92458 16.8114 8.54747C16.8004 9.17037 16.7478 9.40637 16.7972 9.30315" stroke="#A8A9AC" stroke-width="0.3" stroke-miterlimit="1.5" stroke-linecap="round" stroke-linejoin="round"/>
<path d="M14.3727 7.90871C14.3727 7.90871 14.802 6.76247 14.7909 7.38537C14.7799 8.00826 14.7273 8.24426 14.7767 8.14104" stroke="#A8A9AC" stroke-width="0.3" stroke-miterlimit="1.5" stroke-linecap="round" stroke-linejoin="round"/>
<path d="M18.009 10.0003C18.009 10.0003 18.4381 8.85402 18.4271 9.47692C18.416 10.0998 18.3635 10.3358 18.413 10.2326" stroke="#A8A9AC" stroke-width="0.3" stroke-miterlimit="1.5" stroke-linecap="round" stroke-linejoin="round"/>
<path d="M12.3527 6.74709C12.3527 6.74709 12.7819 5.60085 12.7709 6.22374C12.7598 6.84664 12.7072 7.08264 12.7567 6.97942" stroke="#A8A9AC" stroke-width="0.3" stroke-miterlimit="1.5" stroke-linecap="round" stroke-linejoin="round"/>
<path d="M15.989 8.8384C15.989 8.8384 16.4182 7.69216 16.4071 8.31505C16.3961 8.93795 16.3435 9.17395 16.3929 9.07072" stroke="#A8A9AC" stroke-width="0.3" stroke-miterlimit="1.5" stroke-linecap="round" stroke-linejoin="round"/>
<path d="M13.9684 7.67629C13.9684 7.67629 14.3977 6.53005 14.3866 7.15294C14.3756 7.77584 14.323 8.01184 14.3724 7.90862" stroke="#A8A9AC" stroke-width="0.3" stroke-miterlimit="1.5" stroke-linecap="round" stroke-linejoin="round"/>
<path d="M17.6052 9.76784C17.6052 9.76784 18.0343 8.6216 18.0233 9.2445C18.0122 9.86739 17.9597 10.1034 18.0091 10.0002" stroke="#A8A9AC" stroke-width="0.3" stroke-miterlimit="1.5" stroke-linecap="round" stroke-linejoin="round"/>
<path d="M13.1608 7.21169C13.1608 7.21169 13.59 6.06545 13.579 6.68834C13.5678 7.31124 13.5153 7.54724 13.5648 7.44402" stroke="#A8A9AC" stroke-width="0.3" stroke-miterlimit="1.5" stroke-linecap="round" stroke-linejoin="round"/>
<path d="M16.7971 9.303C16.7971 9.303 17.2263 8.15675 17.2152 8.77965C17.2042 9.40255 17.1516 9.63855 17.201 9.53532" stroke="#A8A9AC" stroke-width="0.3" stroke-miterlimit="1.5" stroke-linecap="round" stroke-linejoin="round"/>
<path d="M14.7766 8.14089C14.7766 8.14089 15.2058 6.99465 15.1947 7.61754C15.1837 8.24044 15.1311 8.47644 15.1805 8.37321" stroke="#A8A9AC" stroke-width="0.3" stroke-miterlimit="1.5" stroke-linecap="round" stroke-linejoin="round"/>
<path d="M19.5682 25.5375V10.7235C19.5682 9.48826 20.438 7.98132 21.5073 7.36398C21.8463 7.16875 22.1794 7.07841 22.4719 7.10325L11.0986 0.540924C10.8062 0.516926 10.473 0.606421 10.1341 0.801653C9.0648 1.41994 8.19501 2.92594 8.19501 4.16073V18.9808C8.19501 25.5073 10.5775 23.9424 11.5796 27.1862L22.9524 33.7433C21.9503 30.4991 19.5682 32.0644 19.5682 25.5375Z" fill="#D2DEEC"/>
<path d="M18.6962 25.2817V10.4676C18.6962 9.23241 19.566 7.72546 20.6353 7.10812C20.9742 6.91289 21.3074 6.82255 21.5999 6.84739L10.2266 0.285065C9.93416 0.261067 9.60102 0.350561 9.26211 0.545793C8.19279 1.16408 7.323 2.67008 7.323 3.90487V18.725C7.323 25.2515 10.4306 24.348 11.4327 27.5918L22.8055 34.1489C21.8034 30.9047 18.6962 31.8086 18.6962 25.2817Z" fill="#EBF4FF"/>
<path d="M9.55434 24.9495L20.9503 31.5288C19.9455 30.5661 18.9272 29.4757 18.7303 26.4066L7.35712 19.8398C7.55141 22.8925 8.55617 23.9906 9.55434 24.9495V24.9495Z" fill="#D2DEEC"/>
<path d="M17.5613 23.0385L14.4873 21.264C14.1017 21.0409 13.7878 21.2217 13.7878 21.6679C13.7878 22.1151 14.1017 22.6565 14.4882 22.8801L17.5613 24.655C17.9477 24.8782 18.2612 24.6974 18.2612 24.2507C18.2612 23.8049 17.9477 23.2617 17.5613 23.0385V23.0385Z" fill="#191919"/>
<path d="M15.4318 8.86963V9.90185L18.6962 11.6763V10.7503L15.4318 8.86963V8.86963Z" fill="#BADAFF"/>
<path d="M8.00012 5.61148V4.57884L7.32294 4.18848V5.22028L8.00012 5.61148Z" fill="#BADAFF"/>
<path d="M18.296 22.4046L7.62958 16.2502V6.25415L18.296 12.4073V22.4046V22.4046Z" fill="#E7E7E8"/>
<path d="M18.1578 13.2833L7.74872 7.27817V6.45459L18.1573 12.4597L18.1578 13.2833V13.2833Z" fill="white"/>
<path d="M18.1578 14.9294L7.74872 8.92389V8.10083L18.1573 14.105L18.1578 14.9294Z" fill="white"/>
<path d="M18.1578 16.5749L7.74872 10.5697V9.74585L18.1573 15.7506L18.1578 16.5749V16.5749Z" fill="white"/>
<path d="M18.1578 18.2205L7.74872 12.2153V11.3918L18.1573 17.397L18.1578 18.2205Z" fill="white"/>
<path d="M18.1578 19.8665L7.74872 13.8612V13.0374L18.1573 19.0421L18.1578 19.8665Z" fill="white"/>
<path d="M18.1578 21.4949L7.74872 15.4902V14.6663L18.1573 20.671L18.1578 21.4949V21.4949Z" fill="white"/>
<path d="M8.41443 7.36347L10.8304 8.75817C10.884 8.78909 10.9277 8.76425 10.9277 8.70221C10.9277 8.63976 10.884 8.56378 10.8304 8.53329L8.41443 7.13858C8.36067 7.10714 8.31708 7.13208 8.31708 7.19496C8.31708 7.257 8.36067 7.33245 8.41443 7.36347V7.36347Z" fill="#A8A9AC"/>
<path d="M16.3056 11.9151L17.4614 12.5818C17.515 12.6128 17.5583 12.5871 17.5583 12.525C17.5583 12.4635 17.515 12.3875 17.4614 12.3569L16.3056 11.6893C16.2519 11.6588 16.2087 11.6836 16.2087 11.7453C16.2087 11.8077 16.2519 11.8832 16.3056 11.9151Z" fill="#A8A9AC"/>
<path d="M8.41443 8.18671L12.1089 10.3198C12.1625 10.3507 12.2062 10.325 12.2062 10.263C12.2062 10.201 12.1625 10.1254 12.1089 10.094L8.41443 7.96099C8.36067 7.92997 8.31708 7.95533 8.31708 8.01778C8.31708 8.07982 8.36067 8.1558 8.41443 8.18671V8.18671Z" fill="#A8A9AC"/>
<path d="M17.4614 13.1797L16.3056 12.5126C16.2519 12.4811 16.2087 12.5064 16.2087 12.568C16.2087 12.6309 16.2519 12.7069 16.3056 12.7379L17.4614 13.405C17.515 13.4352 17.5583 13.4098 17.5583 13.3478C17.5583 13.2867 17.515 13.2107 17.4614 13.1797V13.1797Z" fill="#A8A9AC"/>
<path d="M13.1716 11.5311L8.41443 8.78408C8.36067 8.75359 8.31708 8.77801 8.31708 8.84046C8.31708 8.9025 8.36067 8.97848 8.41443 9.00992L13.1716 11.7568C13.2262 11.787 13.2694 11.7624 13.2694 11.6996C13.2694 11.6376 13.2262 11.5621 13.1716 11.5311V11.5311Z" fill="#A8A9AC"/>
<path d="M17.4614 14.0019L16.3056 13.3352C16.2519 13.3046 16.2087 13.329 16.2087 13.3915C16.2087 13.4535 16.2519 13.529 16.3056 13.5609L17.4614 14.228C17.515 14.2582 17.5583 14.2333 17.5583 14.1713C17.5583 14.1093 17.515 14.0342 17.4614 14.0019V14.0019Z" fill="#A8A9AC"/>
<path d="M8.41443 9.83254L11.4333 11.5752C11.487 11.6062 11.5307 11.5817 11.5307 11.5188C11.5307 11.4563 11.487 11.3813 11.4333 11.3503L8.41443 9.60724C8.36067 9.57664 8.31708 9.60063 8.31708 9.66309C8.31708 9.72513 8.36067 9.80152 8.41443 9.83254V9.83254Z" fill="#A8A9AC"/>
<path d="M17.4614 14.825L16.3056 14.1583C16.2519 14.1269 16.2087 14.1521 16.2087 14.2146C16.2087 14.2762 16.2519 14.3517 16.3056 14.3836L17.4614 15.0507C17.515 15.0813 17.5583 15.056 17.5583 14.994C17.5583 14.932 17.515 14.8564 17.4614 14.825V14.825Z" fill="#A8A9AC"/>
<path d="M8.41443 10.6546L10.8304 12.0506C10.884 12.0808 10.9277 12.0562 10.9277 11.9939C10.9277 11.931 10.884 11.8567 10.8304 11.8244L8.41443 10.4298C8.36067 10.3988 8.31708 10.4237 8.31708 10.4865C8.31708 10.5486 8.36067 10.6237 8.41443 10.6546V10.6546Z" fill="#A8A9AC"/>
<path d="M17.4614 15.6479L16.3056 14.9812C16.2519 14.9497 16.2087 14.9745 16.2087 15.0366C16.2087 15.099 16.2519 15.1746 16.3056 15.206L17.4614 15.8732C17.515 15.9038 17.5583 15.8789 17.5583 15.8169C17.5583 15.7544 17.515 15.6789 17.4614 15.6479Z" fill="#A8A9AC"/>
<path d="M8.41443 11.478L12.3202 13.7328C12.3739 13.7634 12.4176 13.739 12.4176 13.6769C12.4176 13.6145 12.3739 13.5389 12.3202 13.5075L8.41443 11.2523C8.36067 11.2221 8.31708 11.2471 8.31708 11.3086C8.31708 11.371 8.36067 11.4466 8.41443 11.478V11.478Z" fill="#A8A9AC"/>
<path d="M17.4614 16.4706L16.3056 15.8034C16.2519 15.7728 16.2087 15.7986 16.2087 15.8597C16.2087 15.9222 16.2519 15.9977 16.3056 16.0292L17.4614 16.6964C17.515 16.7269 17.5583 16.7016 17.5583 16.6396C17.5583 16.5776 17.515 16.502 17.4614 16.4706Z" fill="#A8A9AC"/>
<path d="M8.41443 12.3007L11.4477 14.0525C11.5015 14.0831 11.5452 14.0577 11.5452 13.9962C11.5452 13.9329 11.5015 13.8582 11.4477 13.8267L8.41443 12.0758C8.36067 12.0448 8.31708 12.0698 8.31708 12.1317C8.31708 12.1937 8.36067 12.2705 8.41443 12.3007V12.3007Z" fill="#A8A9AC"/>
<path d="M17.4614 17.2933L16.3056 16.6266C16.2519 16.596 16.2087 16.6209 16.2087 16.6829C16.2087 16.7449 16.2519 16.82 16.3056 16.8519L17.4614 17.5191C17.515 17.55 17.5583 17.5248 17.5583 17.4623C17.5583 17.4007 17.515 17.3253 17.4614 17.2933Z" fill="#A8A9AC"/>
<path d="M12.3354 15.1621L8.41443 12.8986C8.36067 12.8676 8.31708 12.8925 8.31708 12.9544C8.31708 13.0165 8.36067 13.0925 8.41443 13.1235L12.3354 15.3879C12.3896 15.4181 12.4337 15.3935 12.4337 15.3311C12.4337 15.2687 12.3896 15.194 12.3354 15.1621Z" fill="#A8A9AC"/>
<path d="M17.4614 18.1167L16.3056 17.4503C16.2519 17.4189 16.2087 17.4442 16.2087 17.5057C16.2087 17.5673 16.2519 17.6437 16.3056 17.6748L17.4614 18.3424C17.515 18.3729 17.5583 18.3472 17.5583 18.2852C17.5583 18.2231 17.515 18.1476 17.4614 18.1167Z" fill="#A8A9AC"/>
<path d="M8.41443 13.946L10.2915 15.0297C10.3453 15.0607 10.3884 15.0354 10.3884 14.9734C10.3884 14.9114 10.3453 14.8358 10.2915 14.8049L8.41443 13.7215C8.36067 13.6901 8.31708 13.7154 8.31708 13.7774C8.31708 13.839 8.36067 13.9158 8.41443 13.946V13.946Z" fill="#A8A9AC"/>
<path d="M17.4614 18.9392L16.3056 18.2728C16.2519 18.2414 16.2087 18.2667 16.2087 18.3287C16.2087 18.3907 16.2519 18.4667 16.3056 18.4977L17.4614 19.1653C17.515 19.1954 17.5583 19.1701 17.5583 19.1089C17.5583 19.0461 17.515 18.971 17.4614 18.9392V18.9392Z" fill="#A8A9AC"/>
<path d="M10.8304 15.9388L8.41443 14.5446C8.36067 14.5132 8.31708 14.5381 8.31708 14.5996C8.31708 14.6625 8.36067 14.7385 8.41443 14.7691L10.8304 16.1637C10.884 16.1951 10.9277 16.1693 10.9277 16.1078C10.9277 16.0454 10.884 15.9698 10.8304 15.9388Z" fill="#A8A9AC"/>
<path d="M17.4614 19.7619L16.3056 19.0947C16.2519 19.0637 16.2087 19.0895 16.2087 19.1511C16.2087 19.213 16.2519 19.289 16.3056 19.3204L17.4614 19.9872C17.515 20.0187 17.5583 19.9929 17.5583 19.9309C17.5583 19.8689 17.515 19.7934 17.4614 19.7619V19.7619Z" fill="#A8A9AC"/>
<path d="M10.8304 16.7532L8.41443 15.3591C8.36067 15.3276 8.31708 15.3526 8.31708 15.4145C8.31708 15.477 8.36067 15.5529 8.41443 15.5835L10.8304 16.9786C10.884 17.0096 10.9277 16.9838 10.9277 16.9223C10.9277 16.8598 10.884 16.7843 10.8304 16.7532Z" fill="#A8A9AC"/>
<path d="M17.4614 20.5765L16.3056 19.9097C16.2519 19.8782 16.2087 19.904 16.2087 19.966C16.2087 20.0276 16.2519 20.1035 16.3056 20.135L17.4614 20.8022C17.515 20.8332 17.5583 20.8074 17.5583 20.7458C17.5583 20.6834 17.515 20.6079 17.4614 20.5765V20.5765Z" fill="#A8A9AC"/>
<path d="M10.8304 17.5927L8.41443 16.1984C8.36067 16.167 8.31708 16.1919 8.31708 16.254C8.31708 16.3163 8.36067 16.3923 8.41443 16.4229L10.8304 17.818C10.884 17.8489 10.9277 17.8232 10.9277 17.7616C10.9277 17.6992 10.884 17.6236 10.8304 17.5927V17.5927Z" fill="#A8A9AC"/>
<path d="M17.4614 21.4155L16.3056 20.7483C16.2519 20.7173 16.2087 20.743 16.2087 20.8047C16.2087 20.8666 16.2519 20.9426 16.3056 20.974L17.4614 21.6408C17.515 21.6722 17.5583 21.6465 17.5583 21.585C17.5583 21.5225 17.515 21.4469 17.4614 21.4155V21.4155Z" fill="#A8A9AC"/>
<path d="M8.25214 5.75666C8.25214 5.75666 8.71606 4.56022 8.70506 5.18312C8.69405 5.80602 8.64145 6.04201 8.69091 5.93879" stroke="#A8A9AC" stroke-width="0.3" stroke-miterlimit="1.5" stroke-linecap="round" stroke-linejoin="round"/>
<path d="M11.8889 7.84821C11.8889 7.84821 12.3529 6.65177 12.3418 7.27467C12.3308 7.89757 12.2782 8.13356 12.3276 8.03034" stroke="#A8A9AC" stroke-width="0.3" stroke-miterlimit="1.5" stroke-linecap="round" stroke-linejoin="round"/>
<path d="M8.69061 5.93898C8.69061 5.93898 9.11974 4.79274 9.10874 5.41564C9.09774 6.03854 9.04513 6.27453 9.09459 6.17131" stroke="#A8A9AC" stroke-width="0.3" stroke-miterlimit="1.5" stroke-linecap="round" stroke-linejoin="round"/>
<path d="M12.3273 8.03029C12.3273 8.03029 12.7566 6.88405 12.7455 7.50695C12.7345 8.12984 12.6819 8.36584 12.7313 8.26262" stroke="#A8A9AC" stroke-width="0.3" stroke-miterlimit="1.5" stroke-linecap="round" stroke-linejoin="round"/>
<path d="M10.3068 6.86818C10.3068 6.86818 10.7361 5.72194 10.7251 6.34484C10.7139 6.96774 10.6613 7.20373 10.7108 7.10051" stroke="#A8A9AC" stroke-width="0.3" stroke-miterlimit="1.5" stroke-linecap="round" stroke-linejoin="round"/>
<path d="M13.9435 8.95949C13.9435 8.95949 14.3727 7.81325 14.3617 8.43615C14.3506 9.05904 14.2981 9.29504 14.3475 9.19182" stroke="#A8A9AC" stroke-width="0.3" stroke-miterlimit="1.5" stroke-linecap="round" stroke-linejoin="round"/>
<path d="M9.49872 6.40358C9.49872 6.40358 9.92785 5.25734 9.91685 5.88024C9.90574 6.50313 9.85324 6.73913 9.9027 6.63591" stroke="#A8A9AC" stroke-width="0.3" stroke-miterlimit="1.5" stroke-linecap="round" stroke-linejoin="round"/>
<path d="M13.1354 8.49489C13.1354 8.49489 13.5647 7.34865 13.5536 7.97155C13.5426 8.59444 13.49 8.83044 13.5394 8.72722" stroke="#A8A9AC" stroke-width="0.3" stroke-miterlimit="1.5" stroke-linecap="round" stroke-linejoin="round"/>
<path d="M11.1149 7.33278C11.1149 7.33278 11.5442 6.18654 11.5331 6.80944C11.5221 7.43234 11.4694 7.66833 11.5189 7.56511" stroke="#A8A9AC" stroke-width="0.3" stroke-miterlimit="1.5" stroke-linecap="round" stroke-linejoin="round"/>
<path d="M14.7512 9.42433C14.7512 9.42433 15.1803 8.27809 15.1693 8.90099C15.1582 9.52389 15.1057 9.75989 15.1551 9.65666" stroke="#A8A9AC" stroke-width="0.3" stroke-miterlimit="1.5" stroke-linecap="round" stroke-linejoin="round"/>
<path d="M9.09491 6.17116C9.09491 6.17116 9.52404 5.02492 9.51304 5.64782C9.50203 6.27071 9.44943 6.50671 9.49889 6.40349" stroke="#A8A9AC" stroke-width="0.3" stroke-miterlimit="1.5" stroke-linecap="round" stroke-linejoin="round"/>
<path d="M12.7311 8.26247C12.7311 8.26247 13.1604 7.11623 13.1493 7.73912C13.1383 8.36202 13.0857 8.59802 13.1351 8.4948" stroke="#A8A9AC" stroke-width="0.3" stroke-miterlimit="1.5" stroke-linecap="round" stroke-linejoin="round"/>
<path d="M10.7106 7.10036C10.7106 7.10036 11.1399 5.95412 11.1288 6.57702C11.1178 7.19991 11.0652 7.43591 11.1146 7.33269" stroke="#A8A9AC" stroke-width="0.3" stroke-miterlimit="1.5" stroke-linecap="round" stroke-linejoin="round"/>
<path d="M14.3474 9.19191C14.3474 9.19191 14.7765 8.04567 14.7655 8.66857C14.7544 9.29147 14.7019 9.52746 14.7513 9.42424" stroke="#A8A9AC" stroke-width="0.3" stroke-miterlimit="1.5" stroke-linecap="round" stroke-linejoin="round"/>
<path d="M9.90302 6.63576C9.90302 6.63576 10.3321 5.48952 10.3211 6.11242C10.31 6.73531 10.2575 6.97131 10.307 6.86809" stroke="#A8A9AC" stroke-width="0.3" stroke-miterlimit="1.5" stroke-linecap="round" stroke-linejoin="round"/>
<path d="M13.5392 8.72707C13.5392 8.72707 13.9685 7.58083 13.9574 8.20372C13.9464 8.82662 13.8938 9.06262 13.9432 8.9594" stroke="#A8A9AC" stroke-width="0.3" stroke-miterlimit="1.5" stroke-linecap="round" stroke-linejoin="round"/>
<path d="M11.5187 7.56496C11.5187 7.56496 11.948 6.41872 11.9369 7.04162C11.9259 7.66451 11.8733 7.90051 11.9227 7.79729" stroke="#A8A9AC" stroke-width="0.3" stroke-miterlimit="1.5" stroke-linecap="round" stroke-linejoin="round"/>
<path d="M16.4178 26.8569V12.0428C16.4178 10.8076 17.2876 9.30066 18.357 8.68331C18.6959 8.48808 19.029 8.39775 19.3215 8.42259L7.94826 1.86026C7.65578 1.83626 7.32264 1.92576 6.98373 2.12099C5.91441 2.73928 5.04462 4.24527 5.04462 5.48007V20.3002C5.04462 26.8267 7.42709 25.2618 8.42924 28.5056L19.802 35.0626C18.7999 31.8184 16.4178 33.3838 16.4178 26.8569Z" fill="#D2DEEC"/>
<path d="M15.6512 26.6889V11.8748C15.6512 10.6396 16.521 9.13269 17.5904 8.51535C17.9293 8.32011 18.2624 8.22978 18.5549 8.25462L7.18166 1.69229C6.88918 1.66829 6.55603 1.75779 6.21713 1.95302C5.14781 2.57131 4.27802 4.07731 4.27802 5.3121V20.1322C4.27802 26.6587 7.38559 25.7553 8.38773 28.9991L19.7605 35.5562C18.7584 32.3119 15.6512 33.2158 15.6512 26.6889Z" fill="#EBF4FF"/>
<path d="M6.50942 26.3567L17.9054 32.936C16.9006 31.9733 15.8823 30.8829 15.6854 27.8138L4.31219 21.2471C4.50648 24.2997 5.51125 25.3979 6.50942 26.3567V26.3567Z" fill="#D2DEEC"/>
<path d="M14.5164 24.4457L11.4424 22.6713C11.0568 22.4482 10.7429 22.6289 10.7429 23.0751C10.7429 23.5223 11.0568 24.0638 11.4433 24.2873L14.5164 26.0622C14.9028 26.2854 15.2163 26.1046 15.2163 25.6579C15.2163 25.2121 14.9028 24.669 14.5164 24.4457V24.4457Z" fill="#191919"/>
<path d="M12.3869 10.2769V11.3091L15.6512 13.0836V12.1575L12.3869 10.2769V10.2769Z" fill="#BADAFF"/>
<path d="M4.9552 7.01871V5.98606L4.27802 5.5957V6.62751L4.9552 7.01871Z" fill="#BADAFF"/>
<path d="M15.251 23.8119L4.58466 17.6574V7.66138L15.251 13.8145V23.8119V23.8119Z" fill="#E7E7E8"/>
<path d="M15.1129 14.6905L4.7038 8.68539V7.86182L15.1124 13.867L15.1129 14.6905V14.6905Z" fill="white"/>
<path d="M15.1129 16.3367L4.7038 10.3311V9.50806L15.1124 15.5122L15.1129 16.3367Z" fill="white"/>
<path d="M15.1129 17.9821L4.7038 11.977V11.1531L15.1124 17.1578L15.1129 17.9821V17.9821Z" fill="white"/>
<path d="M15.1129 19.6277L4.7038 13.6225V12.7991L15.1124 18.8042L15.1129 19.6277Z" fill="white"/>
<path d="M15.1129 22.9021L4.7038 16.8974V16.0735L15.1124 22.0782L15.1129 22.9021V22.9021Z" fill="white"/>
<path d="M5.36951 8.77069L7.78544 10.1654C7.83909 10.1963 7.88279 10.1715 7.88279 10.1094C7.88279 10.047 7.83909 9.97101 7.78544 9.94051L5.36951 8.5458C5.31575 8.51437 5.27216 8.53931 5.27216 8.60218C5.27216 8.66422 5.31575 8.73967 5.36951 8.77069V8.77069Z" fill="#A8A9AC"/>
<path d="M13.2607 13.3224L14.4165 13.9891C14.4701 14.0201 14.5134 13.9943 14.5134 13.9323C14.5134 13.8707 14.4701 13.7948 14.4165 13.7642L13.2607 13.0965C13.2069 13.066 13.1638 13.0909 13.1638 13.1525C13.1638 13.2149 13.2069 13.2904 13.2607 13.3224Z" fill="#A8A9AC"/>
<path d="M5.36951 9.59394L9.06393 11.727C9.11758 11.7579 9.16128 11.7323 9.16128 11.6702C9.16128 11.6082 9.11758 11.5326 9.06393 11.5012L5.36951 9.36821C5.31575 9.33719 5.27216 9.36255 5.27216 9.42501C5.27216 9.48705 5.31575 9.56303 5.36951 9.59394V9.59394Z" fill="#A8A9AC"/>
<path d="M14.4165 14.5869L13.2607 13.9198C13.2069 13.8884 13.1638 13.9136 13.1638 13.9752C13.1638 14.0381 13.2069 14.1141 13.2607 14.1451L14.4165 14.8122C14.4701 14.8424 14.5134 14.817 14.5134 14.755C14.5134 14.6939 14.4701 14.6179 14.4165 14.5869V14.5869Z" fill="#A8A9AC"/>
<path d="M10.1266 12.9383L5.36951 10.1913C5.31575 10.1608 5.27216 10.1852 5.27216 10.2477C5.27216 10.3097 5.31575 10.3857 5.36951 10.4171L10.1266 13.164C10.1812 13.1942 10.2245 13.1697 10.2245 13.1068C10.2245 13.0449 10.1812 12.9693 10.1266 12.9383V12.9383Z" fill="#A8A9AC"/>
<path d="M14.4165 15.4091L13.2607 14.7424C13.2069 14.7118 13.1638 14.7362 13.1638 14.7987C13.1638 14.8607 13.2069 14.9363 13.2607 14.9681L14.4165 15.6353C14.4701 15.6654 14.5134 15.6405 14.5134 15.5786C14.5134 15.5165 14.4701 15.4414 14.4165 15.4091V15.4091Z" fill="#A8A9AC"/>
<path d="M5.36951 11.2398L8.38842 12.9824C8.44208 13.0134 8.48578 12.9889 8.48578 12.926C8.48578 12.8636 8.44208 12.7885 8.38842 12.7575L5.36951 11.0145C5.31575 10.9839 5.27216 11.0079 5.27216 11.0703C5.27216 11.1324 5.31575 11.2088 5.36951 11.2398V11.2398Z" fill="#A8A9AC"/>
<path d="M14.4165 16.2322L13.2607 15.5655C13.2069 15.5341 13.1638 15.5593 13.1638 15.6218C13.1638 15.6834 13.2069 15.759 13.2607 15.7908L14.4165 16.458C14.4701 16.4886 14.5134 16.4632 14.5134 16.4013C14.5134 16.3392 14.4701 16.2637 14.4165 16.2322V16.2322Z" fill="#A8A9AC"/>
<path d="M5.36951 12.0618L7.78544 13.4578C7.83909 13.488 7.88279 13.4635 7.88279 13.4011C7.88279 13.3382 7.83909 13.2639 7.78544 13.2317L5.36951 11.8371C5.31575 11.806 5.27216 11.8309 5.27216 11.8938C5.27216 11.9558 5.31575 12.0309 5.36951 12.0618V12.0618Z" fill="#A8A9AC"/>
<path d="M14.4165 17.0551L13.2607 16.3884C13.2069 16.3569 13.1638 16.3818 13.1638 16.4438C13.1638 16.5063 13.2069 16.5818 13.2607 16.6133L14.4165 17.2804C14.4701 17.311 14.5134 17.2861 14.5134 17.2241C14.5134 17.1617 14.4701 17.0861 14.4165 17.0551Z" fill="#A8A9AC"/>
<path d="M5.36951 12.8853L9.2753 15.14C9.32896 15.1706 9.37265 15.1462 9.37265 15.0842C9.37265 15.0217 9.32896 14.9461 9.2753 14.9147L5.36951 12.6595C5.31575 12.6294 5.27216 12.6543 5.27216 12.7158C5.27216 12.7783 5.31575 12.8538 5.36951 12.8853V12.8853Z" fill="#A8A9AC"/>
<path d="M14.4165 17.8778L13.2607 17.2107C13.2069 17.1801 13.1638 17.2058 13.1638 17.2669C13.1638 17.3294 13.2069 17.405 13.2607 17.4364L14.4165 18.1036C14.4701 18.1341 14.5134 18.1089 14.5134 18.0468C14.5134 17.9848 14.4701 17.9092 14.4165 17.8778Z" fill="#A8A9AC"/>
<path d="M5.36951 13.7079L8.40278 15.4597C8.45654 15.4903 8.50024 15.4649 8.50024 15.4034C8.50024 15.3401 8.45654 15.2654 8.40278 15.234L5.36951 13.4831C5.31575 13.452 5.27216 13.477 5.27216 13.5389C5.27216 13.601 5.31575 13.6778 5.36951 13.7079V13.7079Z" fill="#A8A9AC"/>
<path d="M14.4165 18.7005L13.2607 18.0338C13.2069 18.0032 13.1638 18.0282 13.1638 18.0901C13.1638 18.1521 13.2069 18.2273 13.2607 18.2591L14.4165 18.9263C14.4701 18.9573 14.5134 18.932 14.5134 18.8695C14.5134 18.8079 14.4701 18.7325 14.4165 18.7005Z" fill="#A8A9AC"/>
<path d="M9.29049 16.5694L5.36951 14.3058C5.31575 14.2748 5.27216 14.2997 5.27216 14.3617C5.27216 14.4237 5.31575 14.4997 5.36951 14.5307L9.29049 16.7951C9.34467 16.8253 9.38879 16.8008 9.38879 16.7383C9.38879 16.6759 9.34467 16.6012 9.29049 16.5694Z" fill="#A8A9AC"/>
<path d="M14.4165 19.5239L13.2607 18.8575C13.2069 18.8261 13.1638 18.8514 13.1638 18.913C13.1638 18.9746 13.2069 19.051 13.2607 19.082L14.4165 19.7496C14.4701 19.7801 14.5134 19.7545 14.5134 19.6924C14.5134 19.6304 14.4701 19.5548 14.4165 19.5239Z" fill="#A8A9AC"/>
<path d="M5.36951 15.3532L7.24658 16.4369C7.30034 16.4679 7.34352 16.4427 7.34352 16.3806C7.34352 16.3186 7.30034 16.243 7.24658 16.2121L5.36951 15.1287C5.31575 15.0973 5.27216 15.1227 5.27216 15.1846C5.27216 15.2462 5.31575 15.323 5.36951 15.3532V15.3532Z" fill="#A8A9AC"/>
<path d="M14.4165 20.3464L13.2607 19.68C13.2069 19.6486 13.1638 19.6739 13.1638 19.736C13.1638 19.7979 13.2069 19.8739 13.2607 19.9049L14.4165 20.5726C14.4701 20.6026 14.5134 20.5774 14.5134 20.5162C14.5134 20.4533 14.4701 20.3783 14.4165 20.3464V20.3464Z" fill="#A8A9AC"/>
<path d="M7.78544 17.346L5.36951 15.9518C5.31575 15.9204 5.27216 15.9453 5.27216 16.0069C5.27216 16.0697 5.31575 16.1457 5.36951 16.1763L7.78544 17.5709C7.83909 17.6024 7.88279 17.5766 7.88279 17.5151C7.88279 17.4526 7.83909 17.377 7.78544 17.346Z" fill="#A8A9AC"/>
<path d="M14.4165 21.1692L13.2607 20.5019C13.2069 20.4709 13.1638 20.4967 13.1638 20.5583C13.1638 20.6202 13.2069 20.6962 13.2607 20.7277L14.4165 21.3945C14.4701 21.4259 14.5134 21.4001 14.5134 21.3381C14.5134 21.2762 14.4701 21.2006 14.4165 21.1692V21.1692Z" fill="#A8A9AC"/>
<path d="M7.78544 18.1605L5.36951 16.7663C5.31575 16.7348 5.27216 16.7598 5.27216 16.8217C5.27216 16.8842 5.31575 16.9602 5.36951 16.9908L7.78544 18.3858C7.83909 18.4168 7.88279 18.391 7.88279 18.3295C7.88279 18.267 7.83909 18.1915 7.78544 18.1605Z" fill="#A8A9AC"/>
<path d="M14.4165 21.9837L13.2607 21.3169C13.2069 21.2855 13.1638 21.3112 13.1638 21.3733C13.1638 21.4348 13.2069 21.5108 13.2607 21.5422L14.4165 22.2094C14.4701 22.2404 14.5134 22.2147 14.5134 22.153C14.5134 22.0906 14.4701 22.0151 14.4165 21.9837V21.9837Z" fill="#A8A9AC"/>
<path d="M7.78544 18.9999L5.36951 17.6056C5.31575 17.5742 5.27216 17.5991 5.27216 17.6612C5.27216 17.7235 5.31575 17.7995 5.36951 17.8301L7.78544 19.2252C7.83909 19.2562 7.88279 19.2305 7.88279 19.1689C7.88279 19.1064 7.83909 19.0308 7.78544 18.9999V18.9999Z" fill="#A8A9AC"/>
<path d="M14.4165 22.8227L13.2607 22.1555C13.2069 22.1245 13.1638 22.1503 13.1638 22.2119C13.1638 22.2738 13.2069 22.3498 13.2607 22.3812L14.4165 23.048C14.4701 23.0795 14.5134 23.0537 14.5134 22.9922C14.5134 22.9297 14.4701 22.8542 14.4165 22.8227V22.8227Z" fill="#A8A9AC"/>
<path d="M5.20721 7.16388C5.20721 7.16388 5.67114 5.96745 5.66014 6.59034C5.64913 7.21324 5.59653 7.44924 5.64599 7.34602" stroke="#A8A9AC" stroke-width="0.3" stroke-miterlimit="1.5" stroke-linecap="round" stroke-linejoin="round"/>
<path d="M8.84393 9.25544C8.84393 9.25544 9.30796 8.059 9.29685 8.6819C9.28585 9.30479 9.23324 9.54079 9.28271 9.43757" stroke="#A8A9AC" stroke-width="0.3" stroke-miterlimit="1.5" stroke-linecap="round" stroke-linejoin="round"/>
<path d="M5.64569 7.34621C5.64569 7.34621 6.07482 6.19997 6.06382 6.82287C6.05282 7.44576 6.00021 7.68176 6.04967 7.57854" stroke="#A8A9AC" stroke-width="0.3" stroke-miterlimit="1.5" stroke-linecap="round" stroke-linejoin="round"/>
<path d="M9.28241 9.43752C9.28241 9.43752 9.71165 8.29128 9.70054 8.91417C9.68954 9.53707 9.63693 9.77307 9.68639 9.66985" stroke="#A8A9AC" stroke-width="0.3" stroke-miterlimit="1.5" stroke-linecap="round" stroke-linejoin="round"/>
<path d="M7.2619 8.27541C7.2619 8.27541 7.69114 7.12917 7.68014 7.75206C7.66903 8.37496 7.61642 8.61096 7.66588 8.50774" stroke="#A8A9AC" stroke-width="0.3" stroke-miterlimit="1.5" stroke-linecap="round" stroke-linejoin="round"/>
<path d="M10.8986 10.3667C10.8986 10.3667 11.3278 9.22048 11.3168 9.84337C11.3056 10.4663 11.2531 10.7023 11.3026 10.599" stroke="#A8A9AC" stroke-width="0.3" stroke-miterlimit="1.5" stroke-linecap="round" stroke-linejoin="round"/>
<path d="M6.4538 7.81081C6.4538 7.81081 6.88293 6.66457 6.87193 7.28746C6.86082 7.91036 6.80832 8.14636 6.85778 8.04314" stroke="#A8A9AC" stroke-width="0.3" stroke-miterlimit="1.5" stroke-linecap="round" stroke-linejoin="round"/>
<path d="M10.0905 9.90212C10.0905 9.90212 10.5198 8.75588 10.5086 9.37877C10.4976 10.0017 10.445 10.2377 10.4945 10.1344" stroke="#A8A9AC" stroke-width="0.3" stroke-miterlimit="1.5" stroke-linecap="round" stroke-linejoin="round"/>
<path d="M8.07001 8.74001C8.07001 8.74001 8.49924 7.59377 8.48814 8.21666C8.47713 8.83956 8.42453 9.07556 8.47399 8.97234" stroke="#A8A9AC" stroke-width="0.3" stroke-miterlimit="1.5" stroke-linecap="round" stroke-linejoin="round"/>
<path d="M11.7062 10.8316C11.7062 10.8316 12.1354 9.68532 12.1244 10.3082C12.1133 10.9311 12.0608 11.1671 12.1102 11.0639" stroke="#A8A9AC" stroke-width="0.3" stroke-miterlimit="1.5" stroke-linecap="round" stroke-linejoin="round"/>
<path d="M6.04999 7.57839C6.04999 7.57839 6.47912 6.43215 6.46812 7.05504C6.45711 7.67794 6.40451 7.91394 6.45397 7.81071" stroke="#A8A9AC" stroke-width="0.3" stroke-miterlimit="1.5" stroke-linecap="round" stroke-linejoin="round"/>
<path d="M9.68622 9.66969C9.68622 9.66969 10.1155 8.52345 10.1043 9.14635C10.0933 9.76925 10.0407 10.0052 10.0902 9.90202" stroke="#A8A9AC" stroke-width="0.3" stroke-miterlimit="1.5" stroke-linecap="round" stroke-linejoin="round"/>
<path d="M7.66571 8.50758C7.66571 8.50758 8.09495 7.36134 8.08384 7.98424C8.07284 8.60714 8.02023 8.84314 8.06969 8.73991" stroke="#A8A9AC" stroke-width="0.3" stroke-miterlimit="1.5" stroke-linecap="round" stroke-linejoin="round"/>
<path d="M11.3024 10.5991C11.3024 10.5991 11.7316 9.4529 11.7206 10.0758C11.7095 10.6987 11.6569 10.9347 11.7064 10.8315" stroke="#A8A9AC" stroke-width="0.3" stroke-miterlimit="1.5" stroke-linecap="round" stroke-linejoin="round"/>
<path d="M6.85809 8.04299C6.85809 8.04299 7.28723 6.89674 7.27622 7.51964C7.26511 8.14254 7.21261 8.37854 7.26207 8.27531" stroke="#A8A9AC" stroke-width="0.3" stroke-miterlimit="1.5" stroke-linecap="round" stroke-linejoin="round"/>
<path d="M10.4943 10.1343C10.4943 10.1343 10.9236 8.98805 10.9125 9.61095C10.9014 10.2338 10.8488 10.4698 10.8983 10.3666" stroke="#A8A9AC" stroke-width="0.3" stroke-miterlimit="1.5" stroke-linecap="round" stroke-linejoin="round"/>
<path d="M8.47382 8.97218C8.47382 8.97218 8.90305 7.82594 8.89195 8.44884C8.88094 9.07174 8.82834 9.30774 8.8778 9.20451" stroke="#A8A9AC" stroke-width="0.3" stroke-miterlimit="1.5" stroke-linecap="round" stroke-linejoin="round"/>
</g>
</svg>
