<svg width="35" height="35" viewBox="0 0 35 35" fill="none" xmlns="http://www.w3.org/2000/svg">
<path d="M17.5 35C27.165 35 35 27.165 35 17.5C35 7.83502 27.165 0 17.5 0C7.83502 0 0 7.83502 0 17.5C0 27.165 7.83502 35 17.5 35Z" fill="#BFBFBF"/>
<path d="M17.5 9.29122C20.1557 9.29122 20.5179 9.29122 21.6044 9.29122C22.5701 9.29122 23.053 9.53266 23.4151 9.65337C23.898 9.89481 24.2601 10.0155 24.6223 10.3777C24.9844 10.7398 25.2259 11.102 25.3466 11.5848C25.4673 11.947 25.588 12.4299 25.7087 13.3956C25.7087 14.4821 25.7087 14.7235 25.7087 17.5C25.7087 20.2765 25.7087 20.5179 25.7087 21.6044C25.7087 22.5701 25.4673 23.053 25.3466 23.4151C25.1051 23.898 24.9844 24.2601 24.6223 24.6223C24.2601 24.9844 23.898 25.2259 23.4151 25.3466C23.053 25.4673 22.5701 25.588 21.6044 25.7087C20.5179 25.7087 20.2765 25.7087 17.5 25.7087C14.7235 25.7087 14.4821 25.7087 13.3956 25.7087C12.4299 25.7087 11.947 25.4673 11.5848 25.3466C11.102 25.1051 10.7398 24.9844 10.3777 24.6223C10.0155 24.2601 9.77409 23.898 9.65337 23.4151C9.53266 23.053 9.41194 22.5701 9.29122 21.6044C9.29122 20.5179 9.29122 20.2765 9.29122 17.5C9.29122 14.7235 9.29122 14.4821 9.29122 13.3956C9.29122 12.4299 9.53266 11.947 9.65337 11.5848C9.89481 11.102 10.0155 10.7398 10.3777 10.3777C10.7398 10.0155 11.102 9.77409 11.5848 9.65337C11.947 9.53266 12.4299 9.41194 13.3956 9.29122C14.4821 9.29122 14.8442 9.29122 17.5 9.29122ZM17.5 7.48047C14.7235 7.48047 14.4821 7.48047 13.3956 7.48047C12.3091 7.48047 11.5848 7.7219 10.9813 7.96334C10.3777 8.20477 9.77409 8.56692 9.17051 9.17051C8.56692 9.77409 8.32549 10.257 7.96334 10.9813C7.7219 11.5848 7.60119 12.3091 7.48047 13.3956C7.48047 14.4821 7.48047 14.8442 7.48047 17.5C7.48047 20.2765 7.48047 20.5179 7.48047 21.6044C7.48047 22.6908 7.7219 23.4151 7.96334 24.0187C8.20477 24.6223 8.56692 25.2259 9.17051 25.8294C9.77409 26.433 10.257 26.6745 10.9813 27.0366C11.5848 27.2781 12.3091 27.3988 13.3956 27.5195C14.4821 27.5195 14.8442 27.5195 17.5 27.5195C20.1557 27.5195 20.5179 27.5195 21.6044 27.5195C22.6908 27.5195 23.4151 27.2781 24.0187 27.0366C24.6223 26.7952 25.2259 26.433 25.8294 25.8294C26.433 25.2259 26.6745 24.743 27.0366 24.0187C27.278 23.4151 27.3988 22.6908 27.5195 21.6044C27.5195 20.5179 27.5195 20.1558 27.5195 17.5C27.5195 14.8442 27.5195 14.4821 27.5195 13.3956C27.5195 12.3091 27.278 11.5848 27.0366 10.9813C26.7952 10.3777 26.433 9.77409 25.8294 9.17051C25.2259 8.56692 24.743 8.32549 24.0187 7.96334C23.4151 7.7219 22.6908 7.60119 21.6044 7.48047C20.5179 7.48047 20.2765 7.48047 17.5 7.48047Z" fill="#191919"/>
<path d="M17.5 12.3091C14.6028 12.3091 12.3091 14.6028 12.3091 17.5C12.3091 20.3972 14.6028 22.6908 17.5 22.6908C20.3972 22.6908 22.6908 20.3972 22.6908 17.5C22.6908 14.6028 20.3972 12.3091 17.5 12.3091ZM17.5 20.8801C15.6892 20.8801 14.1199 19.4314 14.1199 17.5C14.1199 15.6892 15.5685 14.1199 17.5 14.1199C19.3107 14.1199 20.88 15.5685 20.88 17.5C20.88 19.3107 19.3107 20.8801 17.5 20.8801Z" fill="#191919"/>
<path d="M22.8115 13.3956C23.4782 13.3956 24.0187 12.8551 24.0187 12.1884C24.0187 11.5217 23.4782 10.9813 22.8115 10.9813C22.1448 10.9813 21.6044 11.5217 21.6044 12.1884C21.6044 12.8551 22.1448 13.3956 22.8115 13.3956Z" fill="#191919"/>
</svg>
