<svg width="24" height="24" viewBox="0 0 24 24" fill="none" xmlns="http://www.w3.org/2000/svg">
<circle cx="12.2095" cy="12.0092" r="11.5424" fill="#FFCBCB" fill-opacity="0.2"/>
<circle cx="12.2095" cy="12.0092" r="10.5424" stroke="white" stroke-width="2"/>
<path d="M16.2901 7.75371C17.0972 8.57513 17.6469 9.62168 17.8696 10.761C18.0922 11.9004 17.978 13.0813 17.5411 14.1546C17.1043 15.2278 16.3646 16.1451 15.4156 16.7905C14.4665 17.4359 13.3507 17.7803 12.2093 17.7803C11.0678 17.7804 9.95204 17.4359 9.00297 16.7905C8.05391 16.1451 7.3142 15.2278 6.87739 14.1546C6.44058 13.0813 6.32629 11.9004 6.54897 10.761C6.77165 9.62169 7.3213 8.57514 8.12842 7.75372M12.2093 6.23798V11.4205" stroke="#E41E1E" stroke-width="2" stroke-linecap="round"/>
</svg>
