<svg width="35" height="35" viewBox="0 0 35 35" fill="none" xmlns="http://www.w3.org/2000/svg">
<path d="M17.5 35C27.165 35 35 27.165 35 17.5C35 7.83502 27.165 0 17.5 0C7.83502 0 0 7.83502 0 17.5C0 27.165 7.83502 35 17.5 35Z" fill="#BFBFBF"/>
<path d="M15.773 15.7348V14.9674C15.5068 14.925 15.2378 14.902 14.9682 14.8986C13.6992 14.8956 12.4623 15.2981 11.4381 16.0475C10.414 16.7969 9.65601 17.8539 9.27487 19.0644C8.89373 20.2749 8.90933 21.5755 9.3194 22.7765C9.72947 23.9775 10.5126 25.0161 11.5544 25.7407C10.771 24.9015 10.2472 23.8535 10.0461 22.7232C9.8451 21.5929 9.97545 20.4286 10.4215 19.3708C10.8675 18.3129 11.6101 17.4067 12.5597 16.7616C13.5093 16.1164 14.6253 15.7598 15.773 15.7348Z" fill="#737373"/>
<path d="M15.9176 24.4055C16.6185 24.4046 17.2921 24.1334 17.7981 23.6484C18.3042 23.1634 18.6036 22.5019 18.6341 21.8016V8.82163H21.0061C20.9577 8.55047 20.9344 8.27543 20.9366 8H17.6932V20.9668C17.6671 21.6703 17.3696 22.3365 16.8629 22.8254C16.3563 23.3143 15.68 23.5879 14.9759 23.589C14.5388 23.5851 14.1088 23.4778 13.7212 23.2758C13.9724 23.6238 14.3023 23.9076 14.684 24.1039C15.0657 24.3002 15.4884 24.4035 15.9176 24.4055Z" fill="#737373"/>
<path d="M25.4356 13.2254V12.504C24.5628 12.5039 23.7095 12.2464 22.9824 11.7635C23.6195 12.5048 24.4807 13.0184 25.4356 13.2268V13.2254Z" fill="#737373"/>
<path d="M22.9825 11.7634C22.2665 10.9478 21.8717 9.89952 21.8719 8.81421H21.0063C21.1182 9.41413 21.3511 9.985 21.6907 10.492C22.0303 10.9991 22.4696 11.4316 22.9818 11.7634H22.9825Z" fill="#D1D1D1"/>
<path d="M14.9709 18.1441C14.3636 18.1475 13.775 18.3537 13.2983 18.73C12.8217 19.1062 12.4845 19.631 12.3402 20.2208C12.1959 20.8107 12.2529 21.4318 12.5021 21.9856C12.7512 22.5394 13.1783 22.994 13.7154 23.2773C13.4216 22.8715 13.2458 22.3925 13.2072 21.8931C13.1686 21.3937 13.2688 20.8933 13.4967 20.4473C13.7247 20.0012 14.0715 19.6269 14.4988 19.3656C14.9262 19.1042 15.4174 18.9661 15.9183 18.9665C16.1912 18.9694 16.4623 19.0115 16.7231 19.0916V15.7912C16.4567 15.7514 16.1877 15.7306 15.9183 15.729H15.772V18.2385C15.5109 18.1686 15.2411 18.1368 14.9709 18.1441Z" fill="#D1D1D1"/>
<path d="M25.4358 13.2253V15.7349C23.8197 15.7313 22.2458 15.2194 20.9369 14.2716V20.8658C20.9336 22.4461 20.3036 23.9605 19.185 25.0767C18.0664 26.193 16.5507 26.8199 14.9705 26.8199C13.7482 26.8222 12.5554 26.4452 11.5566 25.7407C12.3711 26.6167 13.4304 27.2272 14.5967 27.4926C15.7631 27.758 16.9823 27.666 18.0955 27.2286C19.2088 26.7911 20.1646 26.0286 20.8383 25.0402C21.512 24.0519 21.8725 22.8836 21.8727 21.6874V15.1137C23.186 16.0553 24.7621 16.5602 26.3781 16.5572V13.3256C26.0614 13.3249 25.7456 13.2913 25.4358 13.2253Z" fill="#D1D1D1"/>
<path d="M20.9367 20.8672V14.2729C22.2508 15.2152 23.8281 15.72 25.4451 15.7157V13.2062C24.4904 13.0047 23.6271 12.4984 22.9853 11.7634C22.4731 11.4316 22.0338 10.9991 21.6942 10.492C21.3546 9.985 21.1218 9.41413 21.0099 8.81421H18.6343V21.8022C18.6112 22.3675 18.4125 22.9116 18.066 23.3588C17.7195 23.8061 17.2423 24.1343 16.7006 24.2978C16.159 24.4614 15.5799 24.4522 15.0438 24.2715C14.5076 24.0908 14.041 23.7476 13.7089 23.2896C13.1716 23.0066 12.7444 22.5521 12.495 21.9984C12.2457 21.4447 12.1886 20.8235 12.3328 20.2336C12.477 19.6437 12.8143 19.1189 13.291 18.7427C13.7676 18.3665 14.3564 18.1604 14.9637 18.1572C15.2366 18.1594 15.5077 18.2016 15.7685 18.2823V15.7721C14.6144 15.7917 13.491 16.1466 12.5352 16.7937C11.5794 17.4407 10.8324 18.3518 10.3855 19.416C9.93852 20.4802 9.81082 21.6514 10.018 22.7869C10.2251 23.9223 10.7581 24.973 11.552 25.8108C12.5604 26.4911 13.7541 26.8435 14.9702 26.8198C16.5502 26.8198 18.0657 26.1931 19.1843 25.0771C20.3028 23.9612 20.933 22.4472 20.9367 20.8672Z" fill="#191919"/>
</svg>
