<svg width="35" height="35" viewBox="0 0 35 35" fill="none" xmlns="http://www.w3.org/2000/svg">
<path d="M17.5 35C27.165 35 35 27.165 35 17.5C35 7.83502 27.165 0 17.5 0C7.83502 0 0 7.83502 0 17.5C0 27.165 7.83502 35 17.5 35Z" fill="#A7BEE5"/>
<path d="M15.773 15.735V14.9675C15.5068 14.9251 15.2378 14.9021 14.9682 14.8987C13.6992 14.8957 12.4623 15.2982 11.4381 16.0476C10.414 16.797 9.65601 17.8541 9.27487 19.0645C8.89373 20.275 8.90933 21.5756 9.3194 22.7766C9.72947 23.9776 10.5126 25.0162 11.5544 25.7408C10.771 24.9016 10.2472 23.8537 10.0461 22.7234C9.8451 21.5931 9.97545 20.4287 10.4215 19.3709C10.8675 18.313 11.6101 17.4069 12.5597 16.7617C13.5093 16.1165 14.6253 15.7599 15.773 15.735V15.735Z" fill="#7EA2E0"/>
<path d="M15.9176 24.4055C16.6186 24.4046 17.2922 24.1334 17.7982 23.6484C18.3042 23.1634 18.6037 22.5019 18.6342 21.8016V8.82163H21.0061C20.9578 8.55047 20.9345 8.27543 20.9366 8H17.6933V20.9668C17.6672 21.6703 17.3696 22.3365 16.863 22.8254C16.3564 23.3143 15.6801 23.5879 14.976 23.589C14.5389 23.5851 14.1089 23.4778 13.7213 23.2758C13.9725 23.6238 14.3024 23.9076 14.684 24.1039C15.0657 24.3002 15.4884 24.4035 15.9176 24.4055V24.4055Z" fill="#7EA2E0"/>
<path d="M25.4355 13.2252V12.5038C24.5628 12.5038 23.7094 12.2463 22.9824 11.7634C23.6195 12.5046 24.4806 13.0183 25.4355 13.2267V13.2252Z" fill="#7EA2E0"/>
<path d="M22.9823 11.7634C22.2663 10.9478 21.8716 9.89952 21.8717 8.81421H21.0062C21.118 9.41413 21.3509 9.985 21.6905 10.492C22.0301 10.9991 22.4694 11.4316 22.9816 11.7634H22.9823Z" fill="#D8E6FF"/>
<path d="M14.9706 18.1441C14.3634 18.1475 13.7747 18.3537 13.2981 18.73C12.8215 19.1062 12.4842 19.631 12.34 20.2208C12.1957 20.8107 12.2527 21.4318 12.5018 21.9856C12.751 22.5394 13.178 22.994 13.7151 23.2773C13.4214 22.8715 13.2455 22.3925 13.2069 21.8931C13.1683 21.3937 13.2686 20.8933 13.4965 20.4473C13.7244 20.0012 14.0712 19.6269 14.4986 19.3656C14.9259 19.1042 15.4172 18.9661 15.9181 18.9665C16.191 18.9694 16.462 19.0115 16.7229 19.0916V15.7912C16.4564 15.7514 16.1875 15.7306 15.9181 15.729H15.7718V18.2385C15.5107 18.1686 15.2408 18.1368 14.9706 18.1441V18.1441Z" fill="#D8E6FF"/>
<path d="M25.4359 13.2253V15.7349C23.8199 15.7313 22.246 15.2194 20.9371 14.2716V20.8658C20.9338 22.4461 20.3038 23.9605 19.1852 25.0767C18.0666 26.193 16.5509 26.8199 14.9706 26.8199C13.7484 26.8222 12.5556 26.4452 11.5568 25.7407C12.3712 26.6167 13.4306 27.2272 14.5969 27.4926C15.7632 27.758 16.9824 27.666 18.0957 27.2286C19.209 26.7911 20.1648 26.0286 20.8385 25.0402C21.5122 24.0519 21.8726 22.8836 21.8729 21.6874V15.1137C23.1862 16.0553 24.7623 16.5602 26.3783 16.5572V13.3256C26.0616 13.3249 25.7457 13.2913 25.4359 13.2253V13.2253Z" fill="#D8E6FF"/>
<path d="M20.9369 20.8672V14.2729C22.251 15.2152 23.8283 15.72 25.4452 15.7157V13.2062C24.4906 13.0047 23.6273 12.4984 22.9855 11.7634C22.4733 11.4316 22.034 10.9991 21.6944 10.492C21.3548 9.985 21.1219 9.41413 21.0101 8.81421H18.6345V21.8022C18.6113 22.3675 18.4127 22.9116 18.0662 23.3588C17.7197 23.8061 17.2424 24.1343 16.7008 24.2978C16.1592 24.4614 15.5801 24.4522 15.0439 24.2715C14.5078 24.0908 14.0412 23.7476 13.7091 23.2896C13.1718 23.0066 12.7445 22.5521 12.4952 21.9984C12.2459 21.4447 12.1888 20.8235 12.333 20.2336C12.4772 19.6437 12.8145 19.1189 13.2911 18.7427C13.7678 18.3665 14.3566 18.1604 14.9638 18.1572C15.2368 18.1594 15.5079 18.2016 15.7686 18.2823V15.7721C14.6146 15.7917 13.4912 16.1466 12.5354 16.7937C11.5795 17.4407 10.8326 18.3518 10.3857 19.416C9.9387 20.4802 9.811 21.6514 10.0181 22.7869C10.2253 23.9223 10.7583 24.973 11.5522 25.8108C12.5605 26.4911 13.7543 26.8435 14.9704 26.8198C16.5504 26.8198 18.0659 26.1931 19.1845 25.0771C20.303 23.9612 20.9332 22.4472 20.9369 20.8672V20.8672Z" fill="#1E4588"/>
</svg>
